%TF.GenerationSoftware,KiCad,Pcbnew,(6.0.9-0)*%
%TF.CreationDate,2023-02-07T22:14:43+01:00*%
%TF.ProjectId,SHOE_SHIELD,53484f45-5f53-4484-9945-4c442e6b6963,rev?*%
%TF.SameCoordinates,Original*%
%TF.FileFunction,Legend,Bot*%
%TF.FilePolarity,Positive*%
%FSLAX46Y46*%
G04 Gerber Fmt 4.6, Leading zero omitted, Abs format (unit mm)*
G04 Created by KiCad (PCBNEW (6.0.9-0)) date 2023-02-07 22:14:43*
%MOMM*%
%LPD*%
G01*
G04 APERTURE LIST*
%ADD10C,0.150000*%
%ADD11C,0.325200*%
%ADD12C,0.300000*%
%ADD13C,0.120000*%
G04 APERTURE END LIST*
D10*
X156114000Y-102791000D02*
X184064000Y-102791000D01*
X184064000Y-102791000D02*
X184064000Y-78641000D01*
X184064000Y-78641000D02*
X156114000Y-78641000D01*
X156114000Y-78641000D02*
X156114000Y-102791000D01*
D11*
X161960600Y-41148000D02*
G75*
G03*
X161960600Y-41148000I-162600J0D01*
G01*
D12*
X166016857Y-75924857D02*
X165945428Y-75710571D01*
X165945428Y-75353428D01*
X166016857Y-75210571D01*
X166088285Y-75139142D01*
X166231142Y-75067714D01*
X166374000Y-75067714D01*
X166516857Y-75139142D01*
X166588285Y-75210571D01*
X166659714Y-75353428D01*
X166731142Y-75639142D01*
X166802571Y-75782000D01*
X166874000Y-75853428D01*
X167016857Y-75924857D01*
X167159714Y-75924857D01*
X167302571Y-75853428D01*
X167374000Y-75782000D01*
X167445428Y-75639142D01*
X167445428Y-75282000D01*
X167374000Y-75067714D01*
X166016857Y-73853428D02*
X165945428Y-73996285D01*
X165945428Y-74282000D01*
X166016857Y-74424857D01*
X166159714Y-74496285D01*
X166731142Y-74496285D01*
X166874000Y-74424857D01*
X166945428Y-74282000D01*
X166945428Y-73996285D01*
X166874000Y-73853428D01*
X166731142Y-73782000D01*
X166588285Y-73782000D01*
X166445428Y-74496285D01*
X166945428Y-73139142D02*
X165945428Y-73139142D01*
X166802571Y-73139142D02*
X166874000Y-73067714D01*
X166945428Y-72924857D01*
X166945428Y-72710571D01*
X166874000Y-72567714D01*
X166731142Y-72496285D01*
X165945428Y-72496285D01*
X166016857Y-71853428D02*
X165945428Y-71710571D01*
X165945428Y-71424857D01*
X166016857Y-71282000D01*
X166159714Y-71210571D01*
X166231142Y-71210571D01*
X166374000Y-71282000D01*
X166445428Y-71424857D01*
X166445428Y-71639142D01*
X166516857Y-71782000D01*
X166659714Y-71853428D01*
X166731142Y-71853428D01*
X166874000Y-71782000D01*
X166945428Y-71639142D01*
X166945428Y-71424857D01*
X166874000Y-71282000D01*
X165945428Y-70567714D02*
X166945428Y-70567714D01*
X167445428Y-70567714D02*
X167374000Y-70639142D01*
X167302571Y-70567714D01*
X167374000Y-70496285D01*
X167445428Y-70567714D01*
X167302571Y-70567714D01*
X166945428Y-69853428D02*
X165945428Y-69853428D01*
X166802571Y-69853428D02*
X166874000Y-69782000D01*
X166945428Y-69639142D01*
X166945428Y-69424857D01*
X166874000Y-69282000D01*
X166731142Y-69210571D01*
X165945428Y-69210571D01*
X166945428Y-68710571D02*
X166945428Y-68139142D01*
X167445428Y-68496285D02*
X166159714Y-68496285D01*
X166016857Y-68424857D01*
X165945428Y-68282000D01*
X165945428Y-68139142D01*
X166088285Y-67639142D02*
X166016857Y-67567714D01*
X165945428Y-67639142D01*
X166016857Y-67710571D01*
X166088285Y-67639142D01*
X165945428Y-67639142D01*
X165945428Y-66710571D02*
X166016857Y-66853428D01*
X166088285Y-66924857D01*
X166231142Y-66996285D01*
X166659714Y-66996285D01*
X166802571Y-66924857D01*
X166874000Y-66853428D01*
X166945428Y-66710571D01*
X166945428Y-66496285D01*
X166874000Y-66353428D01*
X166802571Y-66282000D01*
X166659714Y-66210571D01*
X166231142Y-66210571D01*
X166088285Y-66282000D01*
X166016857Y-66353428D01*
X165945428Y-66496285D01*
X165945428Y-66710571D01*
X165945428Y-65567714D02*
X166945428Y-65567714D01*
X166659714Y-65567714D02*
X166802571Y-65496285D01*
X166874000Y-65424857D01*
X166945428Y-65282000D01*
X166945428Y-65139142D01*
X166945428Y-63996285D02*
X165731142Y-63996285D01*
X165588285Y-64067714D01*
X165516857Y-64139142D01*
X165445428Y-64282000D01*
X165445428Y-64496285D01*
X165516857Y-64639142D01*
X166016857Y-63996285D02*
X165945428Y-64139142D01*
X165945428Y-64424857D01*
X166016857Y-64567714D01*
X166088285Y-64639142D01*
X166231142Y-64710571D01*
X166659714Y-64710571D01*
X166802571Y-64639142D01*
X166874000Y-64567714D01*
X166945428Y-64424857D01*
X166945428Y-64139142D01*
X166874000Y-63996285D01*
X166516857Y-62139142D02*
X166516857Y-60996285D01*
X165945428Y-59139142D02*
X167445428Y-59139142D01*
X166374000Y-58639142D01*
X167445428Y-58139142D01*
X165945428Y-58139142D01*
X165945428Y-57424857D02*
X167445428Y-57424857D01*
X167445428Y-56853428D01*
X167374000Y-56710571D01*
X167302571Y-56639142D01*
X167159714Y-56567714D01*
X166945428Y-56567714D01*
X166802571Y-56639142D01*
X166731142Y-56710571D01*
X166659714Y-56853428D01*
X166659714Y-57424857D01*
X165945428Y-55924857D02*
X167445428Y-55924857D01*
X165945428Y-55210571D02*
X167445428Y-55210571D01*
D10*
X176390428Y-74389142D02*
X176390428Y-74722476D01*
X175866619Y-74722476D02*
X176866619Y-74722476D01*
X176866619Y-74246285D01*
X175914238Y-73912952D02*
X175866619Y-73770095D01*
X175866619Y-73532000D01*
X175914238Y-73436761D01*
X175961857Y-73389142D01*
X176057095Y-73341523D01*
X176152333Y-73341523D01*
X176247571Y-73389142D01*
X176295190Y-73436761D01*
X176342809Y-73532000D01*
X176390428Y-73722476D01*
X176438047Y-73817714D01*
X176485666Y-73865333D01*
X176580904Y-73912952D01*
X176676142Y-73912952D01*
X176771380Y-73865333D01*
X176819000Y-73817714D01*
X176866619Y-73722476D01*
X176866619Y-73484380D01*
X176819000Y-73341523D01*
X175866619Y-72341523D02*
X176342809Y-72674857D01*
X175866619Y-72912952D02*
X176866619Y-72912952D01*
X176866619Y-72532000D01*
X176819000Y-72436761D01*
X176771380Y-72389142D01*
X176676142Y-72341523D01*
X176533285Y-72341523D01*
X176438047Y-72389142D01*
X176390428Y-72436761D01*
X176342809Y-72532000D01*
X176342809Y-72912952D01*
X175866619Y-71151047D02*
X176533285Y-71151047D01*
X176342809Y-71151047D02*
X176438047Y-71103428D01*
X176485666Y-71055809D01*
X176533285Y-70960571D01*
X176533285Y-70865333D01*
X175914238Y-70151047D02*
X175866619Y-70246285D01*
X175866619Y-70436761D01*
X175914238Y-70532000D01*
X176009476Y-70579619D01*
X176390428Y-70579619D01*
X176485666Y-70532000D01*
X176533285Y-70436761D01*
X176533285Y-70246285D01*
X176485666Y-70151047D01*
X176390428Y-70103428D01*
X176295190Y-70103428D01*
X176199952Y-70579619D01*
X175866619Y-69246285D02*
X176390428Y-69246285D01*
X176485666Y-69293904D01*
X176533285Y-69389142D01*
X176533285Y-69579619D01*
X176485666Y-69674857D01*
X175914238Y-69246285D02*
X175866619Y-69341523D01*
X175866619Y-69579619D01*
X175914238Y-69674857D01*
X176009476Y-69722476D01*
X176104714Y-69722476D01*
X176199952Y-69674857D01*
X176247571Y-69579619D01*
X176247571Y-69341523D01*
X176295190Y-69246285D01*
X175866619Y-68341523D02*
X176866619Y-68341523D01*
X175914238Y-68341523D02*
X175866619Y-68436761D01*
X175866619Y-68627238D01*
X175914238Y-68722476D01*
X175961857Y-68770095D01*
X176057095Y-68817714D01*
X176342809Y-68817714D01*
X176438047Y-68770095D01*
X176485666Y-68722476D01*
X176533285Y-68627238D01*
X176533285Y-68436761D01*
X176485666Y-68341523D01*
X175866619Y-67865333D02*
X176533285Y-67865333D01*
X176866619Y-67865333D02*
X176819000Y-67912952D01*
X176771380Y-67865333D01*
X176819000Y-67817714D01*
X176866619Y-67865333D01*
X176771380Y-67865333D01*
X176533285Y-67389142D02*
X175866619Y-67389142D01*
X176438047Y-67389142D02*
X176485666Y-67341523D01*
X176533285Y-67246285D01*
X176533285Y-67103428D01*
X176485666Y-67008190D01*
X176390428Y-66960571D01*
X175866619Y-66960571D01*
X176533285Y-66055809D02*
X175723761Y-66055809D01*
X175628523Y-66103428D01*
X175580904Y-66151047D01*
X175533285Y-66246285D01*
X175533285Y-66389142D01*
X175580904Y-66484380D01*
X175914238Y-66055809D02*
X175866619Y-66151047D01*
X175866619Y-66341523D01*
X175914238Y-66436761D01*
X175961857Y-66484380D01*
X176057095Y-66532000D01*
X176342809Y-66532000D01*
X176438047Y-66484380D01*
X176485666Y-66436761D01*
X176533285Y-66341523D01*
X176533285Y-66151047D01*
X176485666Y-66055809D01*
X175866619Y-64674857D02*
X175914238Y-64770095D01*
X175961857Y-64817714D01*
X176057095Y-64865333D01*
X176342809Y-64865333D01*
X176438047Y-64817714D01*
X176485666Y-64770095D01*
X176533285Y-64674857D01*
X176533285Y-64532000D01*
X176485666Y-64436761D01*
X176438047Y-64389142D01*
X176342809Y-64341523D01*
X176057095Y-64341523D01*
X175961857Y-64389142D01*
X175914238Y-64436761D01*
X175866619Y-64532000D01*
X175866619Y-64674857D01*
X176533285Y-63912952D02*
X175866619Y-63912952D01*
X176438047Y-63912952D02*
X176485666Y-63865333D01*
X176533285Y-63770095D01*
X176533285Y-63627238D01*
X176485666Y-63532000D01*
X176390428Y-63484380D01*
X175866619Y-63484380D01*
X176152333Y-62293904D02*
X176152333Y-61817714D01*
X175866619Y-62389142D02*
X176866619Y-62055809D01*
X175866619Y-61722476D01*
X175866619Y-60865333D02*
X175866619Y-61436761D01*
X175866619Y-61151047D02*
X176866619Y-61151047D01*
X176723761Y-61246285D01*
X176628523Y-61341523D01*
X176580904Y-61436761D01*
X175866619Y-58865333D02*
X175866619Y-58912952D01*
X175914238Y-59008190D01*
X176057095Y-59151047D01*
X176342809Y-59389142D01*
X176485666Y-59484380D01*
X176628523Y-59532000D01*
X176723761Y-59532000D01*
X176819000Y-59484380D01*
X176866619Y-59389142D01*
X176866619Y-59341523D01*
X176819000Y-59246285D01*
X176723761Y-59198666D01*
X176676142Y-59198666D01*
X176580904Y-59246285D01*
X176533285Y-59293904D01*
X176342809Y-59579619D01*
X176295190Y-59627238D01*
X176199952Y-59674857D01*
X176057095Y-59674857D01*
X175961857Y-59627238D01*
X175914238Y-59579619D01*
X175866619Y-59484380D01*
X175866619Y-59341523D01*
X175914238Y-59246285D01*
X175961857Y-59198666D01*
X176152333Y-59055809D01*
X176295190Y-59008190D01*
X176390428Y-59008190D01*
X176152333Y-57722476D02*
X176152333Y-57246285D01*
X175866619Y-57817714D02*
X176866619Y-57484380D01*
X175866619Y-57151047D01*
X176866619Y-56627238D02*
X176866619Y-56532000D01*
X176819000Y-56436761D01*
X176771380Y-56389142D01*
X176676142Y-56341523D01*
X176485666Y-56293904D01*
X176247571Y-56293904D01*
X176057095Y-56341523D01*
X175961857Y-56389142D01*
X175914238Y-56436761D01*
X175866619Y-56532000D01*
X175866619Y-56627238D01*
X175914238Y-56722476D01*
X175961857Y-56770095D01*
X176057095Y-56817714D01*
X176247571Y-56865333D01*
X176485666Y-56865333D01*
X176676142Y-56817714D01*
X176771380Y-56770095D01*
X176819000Y-56722476D01*
X176866619Y-56627238D01*
X174256619Y-74198666D02*
X175256619Y-74198666D01*
X174256619Y-73627238D01*
X175256619Y-73627238D01*
X174304238Y-72770095D02*
X174256619Y-72865333D01*
X174256619Y-73055809D01*
X174304238Y-73151047D01*
X174399476Y-73198666D01*
X174780428Y-73198666D01*
X174875666Y-73151047D01*
X174923285Y-73055809D01*
X174923285Y-72865333D01*
X174875666Y-72770095D01*
X174780428Y-72722476D01*
X174685190Y-72722476D01*
X174589952Y-73198666D01*
X174256619Y-72151047D02*
X174304238Y-72246285D01*
X174351857Y-72293904D01*
X174447095Y-72341523D01*
X174732809Y-72341523D01*
X174828047Y-72293904D01*
X174875666Y-72246285D01*
X174923285Y-72151047D01*
X174923285Y-72008190D01*
X174875666Y-71912952D01*
X174828047Y-71865333D01*
X174732809Y-71817714D01*
X174447095Y-71817714D01*
X174351857Y-71865333D01*
X174304238Y-71912952D01*
X174256619Y-72008190D01*
X174256619Y-72151047D01*
X174256619Y-71389142D02*
X175256619Y-71389142D01*
X175256619Y-71008190D01*
X175209000Y-70912952D01*
X175161380Y-70865333D01*
X175066142Y-70817714D01*
X174923285Y-70817714D01*
X174828047Y-70865333D01*
X174780428Y-70912952D01*
X174732809Y-71008190D01*
X174732809Y-71389142D01*
X174256619Y-70389142D02*
X174923285Y-70389142D01*
X175256619Y-70389142D02*
X175209000Y-70436761D01*
X175161380Y-70389142D01*
X175209000Y-70341523D01*
X175256619Y-70389142D01*
X175161380Y-70389142D01*
X174256619Y-70008190D02*
X174923285Y-69484380D01*
X174923285Y-70008190D02*
X174256619Y-69484380D01*
X174304238Y-68722476D02*
X174256619Y-68817714D01*
X174256619Y-69008190D01*
X174304238Y-69103428D01*
X174399476Y-69151047D01*
X174780428Y-69151047D01*
X174875666Y-69103428D01*
X174923285Y-69008190D01*
X174923285Y-68817714D01*
X174875666Y-68722476D01*
X174780428Y-68674857D01*
X174685190Y-68674857D01*
X174589952Y-69151047D01*
X174256619Y-68103428D02*
X174304238Y-68198666D01*
X174399476Y-68246285D01*
X175256619Y-68246285D01*
X174304238Y-66532000D02*
X174256619Y-66627238D01*
X174256619Y-66817714D01*
X174304238Y-66912952D01*
X174351857Y-66960571D01*
X174447095Y-67008190D01*
X174732809Y-67008190D01*
X174828047Y-66960571D01*
X174875666Y-66912952D01*
X174923285Y-66817714D01*
X174923285Y-66627238D01*
X174875666Y-66532000D01*
X174256619Y-65960571D02*
X174304238Y-66055809D01*
X174351857Y-66103428D01*
X174447095Y-66151047D01*
X174732809Y-66151047D01*
X174828047Y-66103428D01*
X174875666Y-66055809D01*
X174923285Y-65960571D01*
X174923285Y-65817714D01*
X174875666Y-65722476D01*
X174828047Y-65674857D01*
X174732809Y-65627238D01*
X174447095Y-65627238D01*
X174351857Y-65674857D01*
X174304238Y-65722476D01*
X174256619Y-65817714D01*
X174256619Y-65960571D01*
X174923285Y-65198666D02*
X174256619Y-65198666D01*
X174828047Y-65198666D02*
X174875666Y-65151047D01*
X174923285Y-65055809D01*
X174923285Y-64912952D01*
X174875666Y-64817714D01*
X174780428Y-64770095D01*
X174256619Y-64770095D01*
X174923285Y-64436761D02*
X174923285Y-64055809D01*
X175256619Y-64293904D02*
X174399476Y-64293904D01*
X174304238Y-64246285D01*
X174256619Y-64151047D01*
X174256619Y-64055809D01*
X174256619Y-63722476D02*
X174923285Y-63722476D01*
X174732809Y-63722476D02*
X174828047Y-63674857D01*
X174875666Y-63627238D01*
X174923285Y-63532000D01*
X174923285Y-63436761D01*
X174256619Y-62960571D02*
X174304238Y-63055809D01*
X174351857Y-63103428D01*
X174447095Y-63151047D01*
X174732809Y-63151047D01*
X174828047Y-63103428D01*
X174875666Y-63055809D01*
X174923285Y-62960571D01*
X174923285Y-62817714D01*
X174875666Y-62722476D01*
X174828047Y-62674857D01*
X174732809Y-62627238D01*
X174447095Y-62627238D01*
X174351857Y-62674857D01*
X174304238Y-62722476D01*
X174256619Y-62817714D01*
X174256619Y-62960571D01*
X174256619Y-62055809D02*
X174304238Y-62151047D01*
X174399476Y-62198666D01*
X175256619Y-62198666D01*
X174256619Y-60770095D02*
X174304238Y-60865333D01*
X174351857Y-60912952D01*
X174447095Y-60960571D01*
X174732809Y-60960571D01*
X174828047Y-60912952D01*
X174875666Y-60865333D01*
X174923285Y-60770095D01*
X174923285Y-60627238D01*
X174875666Y-60532000D01*
X174828047Y-60484380D01*
X174732809Y-60436761D01*
X174447095Y-60436761D01*
X174351857Y-60484380D01*
X174304238Y-60532000D01*
X174256619Y-60627238D01*
X174256619Y-60770095D01*
X174923285Y-60008190D02*
X174256619Y-60008190D01*
X174828047Y-60008190D02*
X174875666Y-59960571D01*
X174923285Y-59865333D01*
X174923285Y-59722476D01*
X174875666Y-59627238D01*
X174780428Y-59579619D01*
X174256619Y-59579619D01*
X174256619Y-58341523D02*
X175256619Y-58341523D01*
X175256619Y-58103428D01*
X175209000Y-57960571D01*
X175113761Y-57865333D01*
X175018523Y-57817714D01*
X174828047Y-57770095D01*
X174685190Y-57770095D01*
X174494714Y-57817714D01*
X174399476Y-57865333D01*
X174304238Y-57960571D01*
X174256619Y-58103428D01*
X174256619Y-58341523D01*
X174828047Y-57198666D02*
X174875666Y-57293904D01*
X174923285Y-57341523D01*
X175018523Y-57389142D01*
X175066142Y-57389142D01*
X175161380Y-57341523D01*
X175209000Y-57293904D01*
X175256619Y-57198666D01*
X175256619Y-57008190D01*
X175209000Y-56912952D01*
X175161380Y-56865333D01*
X175066142Y-56817714D01*
X175018523Y-56817714D01*
X174923285Y-56865333D01*
X174875666Y-56912952D01*
X174828047Y-57008190D01*
X174828047Y-57198666D01*
X174780428Y-57293904D01*
X174732809Y-57341523D01*
X174637571Y-57389142D01*
X174447095Y-57389142D01*
X174351857Y-57341523D01*
X174304238Y-57293904D01*
X174256619Y-57198666D01*
X174256619Y-57008190D01*
X174304238Y-56912952D01*
X174351857Y-56865333D01*
X174447095Y-56817714D01*
X174637571Y-56817714D01*
X174732809Y-56865333D01*
X174780428Y-56912952D01*
X174828047Y-57008190D01*
%TO.C,D1*%
X171648380Y-69111904D02*
X170648380Y-69111904D01*
X170648380Y-69350000D01*
X170696000Y-69492857D01*
X170791238Y-69588095D01*
X170886476Y-69635714D01*
X171076952Y-69683333D01*
X171219809Y-69683333D01*
X171410285Y-69635714D01*
X171505523Y-69588095D01*
X171600761Y-69492857D01*
X171648380Y-69350000D01*
X171648380Y-69111904D01*
X171648380Y-70635714D02*
X171648380Y-70064285D01*
X171648380Y-70350000D02*
X170648380Y-70350000D01*
X170791238Y-70254761D01*
X170886476Y-70159523D01*
X170934095Y-70064285D01*
X170817380Y-62375714D02*
X170817380Y-61804285D01*
X170817380Y-62090000D02*
X169817380Y-62090000D01*
X169960238Y-61994761D01*
X170055476Y-61899523D01*
X170103095Y-61804285D01*
%TO.C,J7*%
X182816380Y-80692666D02*
X183530666Y-80692666D01*
X183673523Y-80645047D01*
X183768761Y-80549809D01*
X183816380Y-80406952D01*
X183816380Y-80311714D01*
X182816380Y-81073619D02*
X182816380Y-81740285D01*
X183816380Y-81311714D01*
D13*
%TO.C,D1*%
X169290000Y-62640000D02*
X169290000Y-68540000D01*
X173190000Y-62640000D02*
X173190000Y-68540000D01*
X173190000Y-68540000D02*
X172115000Y-68540000D01*
%TO.C,J16*%
X169420000Y-39530000D02*
X169420000Y-36530000D01*
X173420000Y-39530000D02*
X169420000Y-39530000D01*
X168420000Y-36530000D02*
X168420000Y-38330000D01*
X177420000Y-50530000D02*
X177420000Y-39530000D01*
X174420000Y-38330000D02*
X174420000Y-36530000D01*
X165420000Y-50530000D02*
X177420000Y-50530000D01*
X165420000Y-39530000D02*
X165420000Y-50530000D01*
X166920000Y-39530000D02*
X165420000Y-39530000D01*
X173420000Y-36530000D02*
X173420000Y-39530000D01*
X177420000Y-39530000D02*
X175920000Y-39530000D01*
X166920000Y-38330000D02*
X166920000Y-39530000D01*
X175920000Y-38330000D02*
X174420000Y-38330000D01*
X175920000Y-39530000D02*
X175920000Y-38330000D01*
X168420000Y-38330000D02*
X166920000Y-38330000D01*
X174420000Y-36530000D02*
X168420000Y-36530000D01*
%TO.C,J7*%
X158944000Y-82356000D02*
X158944000Y-79696000D01*
X179324000Y-82356000D02*
X179324000Y-79696000D01*
X181924000Y-79696000D02*
X180594000Y-79696000D01*
X179324000Y-82356000D02*
X158944000Y-82356000D01*
X179324000Y-79696000D02*
X158944000Y-79696000D01*
X181924000Y-81026000D02*
X181924000Y-79696000D01*
%TO.C,J5*%
X170174000Y-102481000D02*
X163054000Y-102481000D01*
X170174000Y-95861000D02*
X163054000Y-95861000D01*
X163874000Y-97541000D02*
X163928000Y-97595000D01*
X163684000Y-97731000D02*
X163760000Y-97807000D01*
X170174000Y-95861000D02*
X170174000Y-102481000D01*
X170414000Y-102721000D02*
X168914000Y-102721000D01*
X170174000Y-100921000D02*
X163054000Y-100921000D01*
X163054000Y-95861000D02*
X163054000Y-102481000D01*
X165799000Y-99846000D02*
X165853000Y-99901000D01*
X170414000Y-100981000D02*
X170414000Y-102721000D01*
X165967000Y-99635000D02*
X166043000Y-99711000D01*
X169069733Y-97334355D02*
G75*
G03*
X167657000Y-97335000I-705733J-1386645D01*
G01*
X168337556Y-100276682D02*
G75*
G03*
X169071000Y-100107000I26445J1555677D01*
G01*
X167658045Y-100106515D02*
G75*
G03*
X168364000Y-100276000I705957J1385523D01*
G01*
X166977355Y-98015267D02*
G75*
G03*
X166978000Y-99428000I1386646J-705734D01*
G01*
X169750645Y-99426733D02*
G75*
G03*
X169750000Y-98014000I-1386645J705733D01*
G01*
X166419000Y-98721000D02*
G75*
G03*
X166419000Y-98721000I-1555000J0D01*
G01*
%TO.C,J8*%
X171334000Y-97731000D02*
X171410000Y-97807000D01*
X177824000Y-100921000D02*
X170704000Y-100921000D01*
X173449000Y-99846000D02*
X173503000Y-99901000D01*
X177824000Y-102481000D02*
X170704000Y-102481000D01*
X170704000Y-95861000D02*
X170704000Y-102481000D01*
X177824000Y-95861000D02*
X177824000Y-102481000D01*
X171524000Y-97541000D02*
X171578000Y-97595000D01*
X178064000Y-102721000D02*
X176564000Y-102721000D01*
X177824000Y-95861000D02*
X170704000Y-95861000D01*
X173617000Y-99635000D02*
X173693000Y-99711000D01*
X178064000Y-100981000D02*
X178064000Y-102721000D01*
X175308045Y-100106515D02*
G75*
G03*
X176014000Y-100276000I705957J1385523D01*
G01*
X177400645Y-99426733D02*
G75*
G03*
X177400000Y-98014000I-1386645J705733D01*
G01*
X175987556Y-100276682D02*
G75*
G03*
X176721000Y-100107000I26445J1555677D01*
G01*
X174627355Y-98015267D02*
G75*
G03*
X174628000Y-99428000I1386646J-705734D01*
G01*
X176719733Y-97334355D02*
G75*
G03*
X175307000Y-97335000I-705733J-1386645D01*
G01*
X174069000Y-98721000D02*
G75*
G03*
X174069000Y-98721000I-1555000J0D01*
G01*
%TD*%
M02*
