%TF.GenerationSoftware,KiCad,Pcbnew,(6.0.9-0)*%
%TF.CreationDate,2023-02-07T22:14:42+01:00*%
%TF.ProjectId,SHOE_SHIELD,53484f45-5f53-4484-9945-4c442e6b6963,rev?*%
%TF.SameCoordinates,Original*%
%TF.FileFunction,Copper,L1,Top*%
%TF.FilePolarity,Positive*%
%FSLAX46Y46*%
G04 Gerber Fmt 4.6, Leading zero omitted, Abs format (unit mm)*
G04 Created by KiCad (PCBNEW (6.0.9-0)) date 2023-02-07 22:14:42*
%MOMM*%
%LPD*%
G01*
G04 APERTURE LIST*
%TA.AperFunction,ComponentPad*%
%ADD10C,1.400000*%
%TD*%
%TA.AperFunction,ComponentPad*%
%ADD11O,1.400000X1.400000*%
%TD*%
%TA.AperFunction,ComponentPad*%
%ADD12R,1.700000X1.700000*%
%TD*%
%TA.AperFunction,ComponentPad*%
%ADD13O,1.700000X1.700000*%
%TD*%
%TA.AperFunction,ComponentPad*%
%ADD14R,1.560000X1.560000*%
%TD*%
%TA.AperFunction,ComponentPad*%
%ADD15C,1.560000*%
%TD*%
%TA.AperFunction,ComponentPad*%
%ADD16C,1.750000*%
%TD*%
%TA.AperFunction,ComponentPad*%
%ADD17R,2.300000X2.300000*%
%TD*%
%TA.AperFunction,ComponentPad*%
%ADD18C,2.300000*%
%TD*%
%TA.AperFunction,Conductor*%
%ADD19C,0.304000*%
%TD*%
%TA.AperFunction,Conductor*%
%ADD20C,0.608000*%
%TD*%
G04 APERTURE END LIST*
D10*
%TO.P,R1,1*%
%TO.N,GND*%
X181920000Y-71620000D03*
D11*
%TO.P,R1,2*%
%TO.N,A1*%
X181920000Y-69080000D03*
%TD*%
D12*
%TO.P,J1,1,Pin_1*%
%TO.N,- L_Out*%
X186278000Y-90141000D03*
D13*
%TO.P,J1,2,Pin_2*%
%TO.N,+ L_Out*%
X186278000Y-92681000D03*
%TD*%
D12*
%TO.P,J13,1,Pin_1*%
%TO.N,D1*%
X159550000Y-44975000D03*
D13*
%TO.P,J13,2,Pin_2*%
%TO.N,D0*%
X159550000Y-42435000D03*
%TD*%
D12*
%TO.P,J12,1,Pin_1*%
%TO.N,A9*%
X185674000Y-48514000D03*
D13*
%TO.P,J12,2,Pin_2*%
%TO.N,A8*%
X185674000Y-51054000D03*
%TD*%
D12*
%TO.P,J14,1,Pin_1*%
%TO.N,GND*%
X185674000Y-61468000D03*
D13*
%TO.P,J14,2,Pin_2*%
%TO.N,+5V*%
X185674000Y-58928000D03*
%TO.P,J14,3,Pin_3*%
%TO.N,SCL*%
X185674000Y-56388000D03*
%TO.P,J14,4,Pin_4*%
%TO.N,SDA*%
X185674000Y-53848000D03*
%TD*%
D12*
%TO.P,J15,1,Pin_1*%
%TO.N,GND*%
X182050000Y-61410000D03*
D13*
%TO.P,J15,2,Pin_2*%
%TO.N,+5V*%
X182050000Y-58870000D03*
%TO.P,J15,3,Pin_3*%
%TO.N,SCL*%
X182050000Y-56330000D03*
%TO.P,J15,4,Pin_4*%
%TO.N,SDA*%
X182050000Y-53790000D03*
%TD*%
D12*
%TO.P,J10,1,Pin_1*%
%TO.N,+5V*%
X185620000Y-40900000D03*
D13*
%TO.P,J10,2,Pin_2*%
%TO.N,GND*%
X185620000Y-43440000D03*
%TO.P,J10,3,Pin_3*%
%TO.N,+3V3*%
X185620000Y-45980000D03*
%TD*%
D12*
%TO.P,J19,1,Pin_1*%
%TO.N,D6*%
X159530000Y-59815000D03*
D13*
%TO.P,J19,2,Pin_2*%
%TO.N,D5*%
X159530000Y-57275000D03*
%TD*%
D12*
%TO.P,J6,1,Pin_1*%
%TO.N,A1*%
X185760000Y-69088000D03*
D13*
%TO.P,J6,2,Pin_2*%
%TO.N,+3V3*%
X185760000Y-71628000D03*
%TD*%
D12*
%TO.P,J9,1,Pin_1*%
%TO.N,A0*%
X185760000Y-76708000D03*
D13*
%TO.P,J9,2,Pin_2*%
%TO.N,+3V3*%
X185760000Y-74168000D03*
%TD*%
D12*
%TO.P,J11,1,Pin_1*%
%TO.N,INT*%
X159540000Y-48620000D03*
D13*
%TO.P,J11,2,Pin_2*%
%TO.N,ADR*%
X159540000Y-51160000D03*
%TO.P,J11,3,Pin_3*%
%TO.N,RST*%
X159540000Y-53700000D03*
%TD*%
D14*
%TO.P,RV1,1,1*%
%TO.N,Net-(J16-PadT)*%
X172348000Y-78546000D03*
D15*
%TO.P,RV1,2,2*%
%TO.N,L_in*%
X174848000Y-83546000D03*
%TO.P,RV1,3,3*%
%TO.N,GNDA*%
X177348000Y-78546000D03*
%TD*%
D12*
%TO.P,J20,1,Pin_1*%
%TO.N,D9*%
X159512000Y-66460000D03*
D13*
%TO.P,J20,2,Pin_2*%
%TO.N,D10*%
X159512000Y-69000000D03*
%TO.P,J20,3,Pin_3*%
%TO.N,D11*%
X159512000Y-71540000D03*
%TO.P,J20,4,Pin_4*%
%TO.N,D12*%
X159512000Y-74080000D03*
%TD*%
D10*
%TO.P,R2,1*%
%TO.N,GND*%
X181930000Y-76150000D03*
D11*
%TO.P,R2,2*%
%TO.N,A0*%
X181930000Y-73610000D03*
%TD*%
D12*
%TO.P,J2,1,Pin_1*%
%TO.N,+ R_Out*%
X186278000Y-96282000D03*
D13*
%TO.P,J2,2,Pin_2*%
%TO.N,- R_Out*%
X186278000Y-98822000D03*
%TD*%
D12*
%TO.P,J4,1,Pin_1*%
%TO.N,D13*%
X179060000Y-74060000D03*
D13*
%TO.P,J4,2,Pin_2*%
%TO.N,A0*%
X179060000Y-71520000D03*
%TO.P,J4,3,Pin_3*%
%TO.N,A1*%
X179060000Y-68980000D03*
%TO.P,J4,4,Pin_4*%
%TO.N,A2*%
X179060000Y-66440000D03*
%TO.P,J4,5,Pin_5*%
%TO.N,A3*%
X179060000Y-63900000D03*
%TO.P,J4,6,Pin_6*%
%TO.N,SCL*%
X179060000Y-61360000D03*
%TO.P,J4,7,Pin_7*%
%TO.N,SDA*%
X179060000Y-58820000D03*
%TO.P,J4,8,Pin_8*%
%TO.N,unconnected-(J4-Pad8)*%
X179060000Y-56280000D03*
%TO.P,J4,9,Pin_9*%
%TO.N,unconnected-(J4-Pad9)*%
X179060000Y-53740000D03*
%TO.P,J4,10,Pin_10*%
%TO.N,A8*%
X179060000Y-51200000D03*
%TO.P,J4,11,Pin_11*%
%TO.N,A9*%
X179060000Y-48660000D03*
%TO.P,J4,12,Pin_12*%
%TO.N,+3V3*%
X179060000Y-46120000D03*
%TO.P,J4,13,Pin_13*%
%TO.N,GND*%
X179060000Y-43580000D03*
%TO.P,J4,14,Pin_14*%
%TO.N,+5V*%
X179060000Y-41040000D03*
%TD*%
D12*
%TO.P,J17,1,Pin_1*%
%TO.N,A3*%
X185720000Y-64008000D03*
D13*
%TO.P,J17,2,Pin_2*%
%TO.N,A2*%
X185720000Y-66548000D03*
%TD*%
D14*
%TO.P,RV2,1,1*%
%TO.N,Net-(J16-PadR)*%
X157136500Y-78546000D03*
D15*
%TO.P,RV2,2,2*%
%TO.N,R_in*%
X159636500Y-83546000D03*
%TO.P,RV2,3,3*%
%TO.N,GNDA*%
X162136500Y-78546000D03*
%TD*%
D12*
%TO.P,J3,1,Pin_1*%
%TO.N,GND*%
X163860000Y-41010000D03*
D13*
%TO.P,J3,2,Pin_2*%
%TO.N,D0*%
X163860000Y-43550000D03*
%TO.P,J3,3,Pin_3*%
%TO.N,D1*%
X163860000Y-46090000D03*
%TO.P,J3,4,Pin_4*%
%TO.N,INT*%
X163860000Y-48630000D03*
%TO.P,J3,5,Pin_5*%
%TO.N,ADR*%
X163860000Y-51170000D03*
%TO.P,J3,6,Pin_6*%
%TO.N,RST*%
X163860000Y-53710000D03*
%TO.P,J3,7,Pin_7*%
%TO.N,D5*%
X163860000Y-56250000D03*
%TO.P,J3,8,Pin_8*%
%TO.N,D6*%
X163860000Y-58790000D03*
%TO.P,J3,9,Pin_9*%
%TO.N,unconnected-(J3-Pad9)*%
X163860000Y-61330000D03*
%TO.P,J3,10,Pin_10*%
%TO.N,D8*%
X163860000Y-63870000D03*
%TO.P,J3,11,Pin_11*%
%TO.N,D9*%
X163860000Y-66410000D03*
%TO.P,J3,12,Pin_12*%
%TO.N,D10*%
X163860000Y-68950000D03*
%TO.P,J3,13,Pin_13*%
%TO.N,D11*%
X163860000Y-71490000D03*
%TO.P,J3,14,Pin_14*%
%TO.N,D12*%
X163860000Y-74030000D03*
%TD*%
D12*
%TO.P,J18,1,Pin_1*%
%TO.N,D13*%
X185790000Y-79248000D03*
%TD*%
D16*
%TO.P,J16,R*%
%TO.N,Net-(J16-PadR)*%
X166420000Y-47830000D03*
%TO.P,J16,RN*%
%TO.N,N/C*%
X168920000Y-47830000D03*
%TO.P,J16,S*%
%TO.N,GNDA*%
X171420000Y-42830000D03*
%TO.P,J16,T*%
%TO.N,Net-(J16-PadT)*%
X176420000Y-47830000D03*
%TO.P,J16,TN*%
%TO.N,N/C*%
X173920000Y-47830000D03*
%TD*%
D12*
%TO.P,J7,1,Pin_1*%
%TO.N,+5V*%
X180594000Y-81026000D03*
D13*
%TO.P,J7,2,Pin_2*%
%TO.N,GND*%
X178054000Y-81026000D03*
%TO.P,J7,3,Pin_3*%
%TO.N,SDWN*%
X175514000Y-81026000D03*
%TO.P,J7,4,Pin_4*%
%TO.N,L_in*%
X172974000Y-81026000D03*
%TO.P,J7,5,Pin_5*%
%TO.N,GNDA*%
X170434000Y-81026000D03*
%TO.P,J7,6,Pin_6*%
X167894000Y-81026000D03*
%TO.P,J7,7,Pin_7*%
%TO.N,R_in*%
X165354000Y-81026000D03*
%TO.P,J7,8,Pin_8*%
%TO.N,G'*%
X162814000Y-81026000D03*
%TO.P,J7,9,Pin_9*%
%TO.N,G*%
X160274000Y-81026000D03*
%TD*%
D17*
%TO.P,J5,1,Pin_1*%
%TO.N,+ L_Out*%
X168364000Y-98721000D03*
D18*
%TO.P,J5,2,Pin_2*%
%TO.N,- L_Out*%
X164864000Y-98721000D03*
%TD*%
D17*
%TO.P,J8,1,Pin_1*%
%TO.N,- R_Out*%
X176014000Y-98721000D03*
D18*
%TO.P,J8,2,Pin_2*%
%TO.N,+ R_Out*%
X172514000Y-98721000D03*
%TD*%
D19*
%TO.N,- L_Out*%
X173444000Y-90141000D02*
X186449000Y-90141000D01*
X164864000Y-98721000D02*
X173444000Y-90141000D01*
%TO.N,+ L_Out*%
X174404000Y-92681000D02*
X186449000Y-92681000D01*
X168364000Y-98721000D02*
X174404000Y-92681000D01*
%TO.N,+ R_Out*%
X175632520Y-95602480D02*
X185840480Y-95602480D01*
X172514000Y-98721000D02*
X175632520Y-95602480D01*
X172514000Y-98721000D02*
X172514000Y-98646000D01*
X185840480Y-95602480D02*
X186459000Y-96221000D01*
%TO.N,- R_Out*%
X176014000Y-98721000D02*
X186419000Y-98721000D01*
X186419000Y-98721000D02*
X186459000Y-98761000D01*
%TO.N,INT*%
X159240000Y-48600000D02*
X163760000Y-48600000D01*
X163760000Y-48600000D02*
X163800000Y-48640000D01*
%TO.N,ADR*%
X163760000Y-51140000D02*
X163800000Y-51180000D01*
X159240000Y-51140000D02*
X163760000Y-51140000D01*
%TO.N,RST*%
X163800000Y-53720000D02*
X159280000Y-53720000D01*
X159280000Y-53720000D02*
X159240000Y-53680000D01*
%TO.N,D5*%
X162835000Y-57275000D02*
X163860000Y-56250000D01*
X159530000Y-57275000D02*
X162835000Y-57275000D01*
%TO.N,D9*%
X159420000Y-66460000D02*
X163810000Y-66460000D01*
X163810000Y-66460000D02*
X163860000Y-66410000D01*
D20*
%TO.N,+5V*%
X179105000Y-41040000D02*
X181970000Y-41040000D01*
X184795000Y-41040000D02*
X184850000Y-41095000D01*
X181970000Y-41040000D02*
X184795000Y-41040000D01*
X181600000Y-41040000D02*
X181970000Y-41040000D01*
%TO.N,+3V3*%
X185480000Y-46120000D02*
X185620000Y-45980000D01*
X179060000Y-46120000D02*
X185480000Y-46120000D01*
D19*
%TO.N,A1*%
X185760000Y-69220000D02*
X185620000Y-69080000D01*
X181920000Y-69080000D02*
X179205000Y-69080000D01*
X185620000Y-69080000D02*
X181920000Y-69080000D01*
X179205000Y-69080000D02*
X179105000Y-68980000D01*
%TO.N,A0*%
X179840000Y-71520000D02*
X181930000Y-73610000D01*
X179060000Y-71520000D02*
X179840000Y-71520000D01*
X181930000Y-73640000D02*
X185220000Y-76930000D01*
X185220000Y-76930000D02*
X185760000Y-76930000D01*
X181930000Y-73610000D02*
X181930000Y-73640000D01*
%TO.N,L_in*%
X172974000Y-81280000D02*
X172974000Y-81026000D01*
X174776500Y-83546000D02*
X174776500Y-83082500D01*
X174776500Y-83082500D02*
X172974000Y-81280000D01*
%TO.N,GNDA*%
X165406000Y-78546000D02*
X162136500Y-78546000D01*
X171430000Y-42840000D02*
X171420000Y-42830000D01*
X167894000Y-81026000D02*
X167894000Y-79930000D01*
X167894000Y-79930000D02*
X166510000Y-78546000D01*
X171430000Y-50580000D02*
X171430000Y-42840000D01*
X167894000Y-81026000D02*
X170434000Y-81026000D01*
X168910000Y-75042000D02*
X168910000Y-53100000D01*
X176056500Y-79766000D02*
X177276500Y-78546000D01*
X167894000Y-80946000D02*
X167894000Y-81026000D01*
X168910000Y-53100000D02*
X171430000Y-50580000D01*
X166510000Y-78546000D02*
X165406000Y-78546000D01*
X165406000Y-78546000D02*
X168910000Y-75042000D01*
X170434000Y-81026000D02*
X171694000Y-79766000D01*
X171694000Y-79766000D02*
X176056500Y-79766000D01*
%TO.N,R_in*%
X162784000Y-83546000D02*
X165304000Y-81026000D01*
X159636500Y-83546000D02*
X162784000Y-83546000D01*
X165304000Y-81026000D02*
X165354000Y-81026000D01*
%TO.N,Net-(J16-PadR)*%
X161148500Y-76454000D02*
X164338000Y-76454000D01*
X157136500Y-78546000D02*
X159228500Y-76454000D01*
X164338000Y-76454000D02*
X166420000Y-74372000D01*
X166420000Y-74372000D02*
X166420000Y-47830000D01*
X159228500Y-76454000D02*
X161798000Y-76454000D01*
%TO.N,Net-(J16-PadT)*%
X171958000Y-55372000D02*
X176420000Y-50910000D01*
X171958000Y-78227500D02*
X171958000Y-55372000D01*
X176420000Y-50910000D02*
X176420000Y-47830000D01*
X172276500Y-78546000D02*
X171958000Y-78227500D01*
%TO.N,D0*%
X160665000Y-43550000D02*
X163860000Y-43550000D01*
X159550000Y-42435000D02*
X160665000Y-43550000D01*
%TO.N,D1*%
X162745000Y-44975000D02*
X163860000Y-46090000D01*
X159550000Y-44975000D02*
X162745000Y-44975000D01*
%TO.N,D6*%
X162835000Y-59815000D02*
X163860000Y-58790000D01*
X159530000Y-59815000D02*
X162835000Y-59815000D01*
%TO.N,D10*%
X159420000Y-69000000D02*
X163810000Y-69000000D01*
X163810000Y-69000000D02*
X163860000Y-68950000D01*
%TO.N,D11*%
X163860000Y-71490000D02*
X159470000Y-71490000D01*
X159470000Y-71490000D02*
X159420000Y-71540000D01*
%TO.N,D12*%
X159420000Y-74080000D02*
X163810000Y-74080000D01*
X163810000Y-74080000D02*
X163860000Y-74030000D01*
%TO.N,D13*%
X182880000Y-79248000D02*
X185790000Y-79248000D01*
X179060000Y-74060000D02*
X179060000Y-75428000D01*
X179060000Y-75428000D02*
X182880000Y-79248000D01*
%TO.N,A2*%
X179060000Y-66440000D02*
X185600000Y-66440000D01*
X185600000Y-66440000D02*
X185720000Y-66560000D01*
%TO.N,A3*%
X179060000Y-63900000D02*
X185600000Y-63900000D01*
X185600000Y-63900000D02*
X185720000Y-64020000D01*
%TO.N,SCL*%
X180550000Y-59870000D02*
X180550000Y-58210000D01*
X179235000Y-61230000D02*
X179105000Y-61360000D01*
X179060000Y-61360000D02*
X180550000Y-59870000D01*
X182055000Y-56325000D02*
X182050000Y-56330000D01*
X182050000Y-56710000D02*
X182050000Y-56330000D01*
X185650000Y-56325000D02*
X182055000Y-56325000D01*
X180550000Y-58210000D02*
X182050000Y-56710000D01*
%TO.N,SDA*%
X185645000Y-53790000D02*
X185650000Y-53785000D01*
X182050000Y-53790000D02*
X185645000Y-53790000D01*
X180550000Y-57330000D02*
X180550000Y-55290000D01*
X179060000Y-58820000D02*
X180550000Y-57330000D01*
X180550000Y-55290000D02*
X182050000Y-53790000D01*
%TO.N,A8*%
X185640000Y-51150000D02*
X179110000Y-51150000D01*
X179110000Y-51150000D02*
X179060000Y-51200000D01*
%TO.N,A9*%
X179060000Y-48660000D02*
X185590000Y-48660000D01*
X185590000Y-48660000D02*
X185640000Y-48610000D01*
%TD*%
%TA.AperFunction,Conductor*%
%TO.N,GND*%
G36*
X187597621Y-38870502D02*
G01*
X187644114Y-38924158D01*
X187655500Y-38976500D01*
X187655500Y-88798939D01*
X187635498Y-88867060D01*
X187581842Y-88913553D01*
X187511568Y-88923657D01*
X187453935Y-88899765D01*
X187410297Y-88867060D01*
X187374705Y-88840385D01*
X187238316Y-88789255D01*
X187176134Y-88782500D01*
X185379866Y-88782500D01*
X185317684Y-88789255D01*
X185181295Y-88840385D01*
X185064739Y-88927739D01*
X184977385Y-89044295D01*
X184926255Y-89180684D01*
X184919500Y-89242866D01*
X184919500Y-89354500D01*
X184899498Y-89422621D01*
X184845842Y-89469114D01*
X184793500Y-89480500D01*
X173471246Y-89480500D01*
X173462676Y-89480208D01*
X173416754Y-89477077D01*
X173416750Y-89477077D01*
X173409178Y-89476561D01*
X173401702Y-89477866D01*
X173401698Y-89477866D01*
X173350710Y-89486765D01*
X173344185Y-89487728D01*
X173292834Y-89493942D01*
X173292831Y-89493943D01*
X173285292Y-89494855D01*
X173278186Y-89497540D01*
X173271180Y-89499261D01*
X173266069Y-89500659D01*
X173259174Y-89502741D01*
X173251692Y-89504047D01*
X173197342Y-89527905D01*
X173191262Y-89530386D01*
X173142854Y-89548678D01*
X173135746Y-89551364D01*
X173129483Y-89555668D01*
X173123059Y-89559027D01*
X173118464Y-89561585D01*
X173112264Y-89565252D01*
X173105308Y-89568305D01*
X173099282Y-89572929D01*
X173058238Y-89604422D01*
X173052904Y-89608297D01*
X173010255Y-89637609D01*
X173010247Y-89637616D01*
X173003995Y-89641913D01*
X172998946Y-89647580D01*
X172965509Y-89685109D01*
X172960527Y-89690385D01*
X165532393Y-97118519D01*
X165470081Y-97152545D01*
X165395083Y-97145834D01*
X165382661Y-97140689D01*
X165382652Y-97140686D01*
X165378089Y-97138796D01*
X165274185Y-97113851D01*
X165129062Y-97079009D01*
X165129056Y-97079008D01*
X165124249Y-97077854D01*
X164864000Y-97057372D01*
X164603751Y-97077854D01*
X164598944Y-97079008D01*
X164598938Y-97079009D01*
X164439727Y-97117233D01*
X164349911Y-97138796D01*
X164345340Y-97140689D01*
X164345338Y-97140690D01*
X164113303Y-97236802D01*
X164113299Y-97236804D01*
X164108729Y-97238697D01*
X163886144Y-97375097D01*
X163687637Y-97544637D01*
X163518097Y-97743144D01*
X163381697Y-97965729D01*
X163379804Y-97970299D01*
X163379802Y-97970303D01*
X163283690Y-98202338D01*
X163281796Y-98206911D01*
X163280641Y-98211723D01*
X163222009Y-98455938D01*
X163222008Y-98455944D01*
X163220854Y-98460751D01*
X163200372Y-98721000D01*
X163220854Y-98981249D01*
X163222008Y-98986056D01*
X163222009Y-98986062D01*
X163260424Y-99146069D01*
X163281796Y-99235089D01*
X163283689Y-99239660D01*
X163283690Y-99239662D01*
X163367363Y-99441665D01*
X163381697Y-99476271D01*
X163518097Y-99698856D01*
X163687637Y-99897363D01*
X163886144Y-100066903D01*
X164108729Y-100203303D01*
X164113299Y-100205196D01*
X164113303Y-100205198D01*
X164345338Y-100301310D01*
X164349911Y-100303204D01*
X164404164Y-100316229D01*
X164598938Y-100362991D01*
X164598944Y-100362992D01*
X164603751Y-100364146D01*
X164864000Y-100384628D01*
X165124249Y-100364146D01*
X165129056Y-100362992D01*
X165129062Y-100362991D01*
X165323836Y-100316229D01*
X165378089Y-100303204D01*
X165382662Y-100301310D01*
X165614697Y-100205198D01*
X165614701Y-100205196D01*
X165619271Y-100203303D01*
X165841856Y-100066903D01*
X166040363Y-99897363D01*
X166209903Y-99698856D01*
X166346303Y-99476271D01*
X166360638Y-99441665D01*
X166444310Y-99239662D01*
X166444311Y-99239660D01*
X166446204Y-99235089D01*
X166456981Y-99190200D01*
X166492333Y-99128631D01*
X166555360Y-99095948D01*
X166626051Y-99102529D01*
X166681962Y-99146283D01*
X166705500Y-99219614D01*
X166705500Y-99919134D01*
X166712255Y-99981316D01*
X166763385Y-100117705D01*
X166850739Y-100234261D01*
X166967295Y-100321615D01*
X167103684Y-100372745D01*
X167165866Y-100379500D01*
X169562134Y-100379500D01*
X169624316Y-100372745D01*
X169760705Y-100321615D01*
X169877261Y-100234261D01*
X169964615Y-100117705D01*
X170015745Y-99981316D01*
X170022500Y-99919134D01*
X170022500Y-98048778D01*
X170042502Y-97980657D01*
X170059405Y-97959683D01*
X174640683Y-93378405D01*
X174702995Y-93344379D01*
X174729778Y-93341500D01*
X185018821Y-93341500D01*
X185086942Y-93361502D01*
X185126253Y-93401665D01*
X185177987Y-93486088D01*
X185324250Y-93654938D01*
X185496126Y-93797632D01*
X185689000Y-93910338D01*
X185897692Y-93990030D01*
X185902760Y-93991061D01*
X185902763Y-93991062D01*
X186010017Y-94012883D01*
X186116597Y-94034567D01*
X186121772Y-94034757D01*
X186121774Y-94034757D01*
X186334673Y-94042564D01*
X186334677Y-94042564D01*
X186339837Y-94042753D01*
X186344957Y-94042097D01*
X186344959Y-94042097D01*
X186556288Y-94015025D01*
X186556289Y-94015025D01*
X186561416Y-94014368D01*
X186566366Y-94012883D01*
X186770429Y-93951661D01*
X186770434Y-93951659D01*
X186775384Y-93950174D01*
X186975994Y-93851896D01*
X187157860Y-93722173D01*
X187316096Y-93564489D01*
X187319112Y-93560292D01*
X187427177Y-93409903D01*
X187483172Y-93366255D01*
X187553875Y-93359809D01*
X187616840Y-93392612D01*
X187652074Y-93454248D01*
X187655500Y-93483429D01*
X187655500Y-94939939D01*
X187635498Y-95008060D01*
X187581842Y-95054553D01*
X187511568Y-95064657D01*
X187453935Y-95040765D01*
X187374705Y-94981385D01*
X187238316Y-94930255D01*
X187176134Y-94923500D01*
X185379866Y-94923500D01*
X185317684Y-94930255D01*
X185310283Y-94933029D01*
X185310281Y-94933030D01*
X185307797Y-94933961D01*
X185263566Y-94941980D01*
X175659766Y-94941980D01*
X175651196Y-94941688D01*
X175605274Y-94938557D01*
X175605270Y-94938557D01*
X175597698Y-94938041D01*
X175590222Y-94939346D01*
X175590218Y-94939346D01*
X175539230Y-94948245D01*
X175532705Y-94949208D01*
X175481354Y-94955422D01*
X175481351Y-94955423D01*
X175473812Y-94956335D01*
X175466706Y-94959020D01*
X175459700Y-94960741D01*
X175454589Y-94962139D01*
X175447694Y-94964221D01*
X175440212Y-94965527D01*
X175385862Y-94989385D01*
X175379782Y-94991866D01*
X175336926Y-95008060D01*
X175324266Y-95012844D01*
X175318003Y-95017148D01*
X175311579Y-95020507D01*
X175306984Y-95023065D01*
X175300784Y-95026732D01*
X175293828Y-95029785D01*
X175287802Y-95034409D01*
X175246758Y-95065902D01*
X175241424Y-95069777D01*
X175198775Y-95099089D01*
X175198767Y-95099096D01*
X175192515Y-95103393D01*
X175187466Y-95109060D01*
X175154029Y-95146589D01*
X175149047Y-95151865D01*
X173182393Y-97118519D01*
X173120081Y-97152545D01*
X173045083Y-97145834D01*
X173032661Y-97140689D01*
X173032652Y-97140686D01*
X173028089Y-97138796D01*
X172924185Y-97113851D01*
X172779062Y-97079009D01*
X172779056Y-97079008D01*
X172774249Y-97077854D01*
X172514000Y-97057372D01*
X172253751Y-97077854D01*
X172248944Y-97079008D01*
X172248938Y-97079009D01*
X172089727Y-97117233D01*
X171999911Y-97138796D01*
X171995340Y-97140689D01*
X171995338Y-97140690D01*
X171763303Y-97236802D01*
X171763299Y-97236804D01*
X171758729Y-97238697D01*
X171536144Y-97375097D01*
X171337637Y-97544637D01*
X171168097Y-97743144D01*
X171031697Y-97965729D01*
X171029804Y-97970299D01*
X171029802Y-97970303D01*
X170933690Y-98202338D01*
X170931796Y-98206911D01*
X170930641Y-98211723D01*
X170872009Y-98455938D01*
X170872008Y-98455944D01*
X170870854Y-98460751D01*
X170850372Y-98721000D01*
X170870854Y-98981249D01*
X170872008Y-98986056D01*
X170872009Y-98986062D01*
X170910424Y-99146069D01*
X170931796Y-99235089D01*
X170933689Y-99239660D01*
X170933690Y-99239662D01*
X171017363Y-99441665D01*
X171031697Y-99476271D01*
X171168097Y-99698856D01*
X171337637Y-99897363D01*
X171536144Y-100066903D01*
X171758729Y-100203303D01*
X171763299Y-100205196D01*
X171763303Y-100205198D01*
X171995338Y-100301310D01*
X171999911Y-100303204D01*
X172054164Y-100316229D01*
X172248938Y-100362991D01*
X172248944Y-100362992D01*
X172253751Y-100364146D01*
X172514000Y-100384628D01*
X172774249Y-100364146D01*
X172779056Y-100362992D01*
X172779062Y-100362991D01*
X172973836Y-100316229D01*
X173028089Y-100303204D01*
X173032662Y-100301310D01*
X173264697Y-100205198D01*
X173264701Y-100205196D01*
X173269271Y-100203303D01*
X173491856Y-100066903D01*
X173690363Y-99897363D01*
X173859903Y-99698856D01*
X173996303Y-99476271D01*
X174010638Y-99441665D01*
X174094310Y-99239662D01*
X174094311Y-99239660D01*
X174096204Y-99235089D01*
X174106981Y-99190200D01*
X174142333Y-99128631D01*
X174205360Y-99095948D01*
X174276051Y-99102529D01*
X174331962Y-99146283D01*
X174355500Y-99219614D01*
X174355500Y-99919134D01*
X174362255Y-99981316D01*
X174413385Y-100117705D01*
X174500739Y-100234261D01*
X174617295Y-100321615D01*
X174753684Y-100372745D01*
X174815866Y-100379500D01*
X177212134Y-100379500D01*
X177274316Y-100372745D01*
X177410705Y-100321615D01*
X177527261Y-100234261D01*
X177614615Y-100117705D01*
X177665745Y-99981316D01*
X177672500Y-99919134D01*
X177672500Y-99507500D01*
X177692502Y-99439379D01*
X177746158Y-99392886D01*
X177798500Y-99381500D01*
X184956927Y-99381500D01*
X185025048Y-99401502D01*
X185064360Y-99441665D01*
X185177987Y-99627088D01*
X185324250Y-99795938D01*
X185496126Y-99938632D01*
X185689000Y-100051338D01*
X185693825Y-100053180D01*
X185693826Y-100053181D01*
X185736527Y-100069487D01*
X185897692Y-100131030D01*
X185902760Y-100132061D01*
X185902763Y-100132062D01*
X186010017Y-100153883D01*
X186116597Y-100175567D01*
X186121772Y-100175757D01*
X186121774Y-100175757D01*
X186334673Y-100183564D01*
X186334677Y-100183564D01*
X186339837Y-100183753D01*
X186344957Y-100183097D01*
X186344959Y-100183097D01*
X186556288Y-100156025D01*
X186556289Y-100156025D01*
X186561416Y-100155368D01*
X186566366Y-100153883D01*
X186770429Y-100092661D01*
X186770434Y-100092659D01*
X186775384Y-100091174D01*
X186975994Y-99992896D01*
X187157860Y-99863173D01*
X187316096Y-99705489D01*
X187320862Y-99698856D01*
X187427177Y-99550903D01*
X187483172Y-99507255D01*
X187553875Y-99500809D01*
X187616840Y-99533612D01*
X187652074Y-99595248D01*
X187655500Y-99624429D01*
X187655500Y-102291500D01*
X187635498Y-102359621D01*
X187581842Y-102406114D01*
X187529500Y-102417500D01*
X156568500Y-102417500D01*
X156500379Y-102397498D01*
X156453886Y-102343842D01*
X156442500Y-102291500D01*
X156442500Y-79960500D01*
X156462502Y-79892379D01*
X156516158Y-79845886D01*
X156568500Y-79834500D01*
X157964634Y-79834500D01*
X158026816Y-79827745D01*
X158163205Y-79776615D01*
X158279761Y-79689261D01*
X158367115Y-79572705D01*
X158418245Y-79436316D01*
X158425000Y-79374134D01*
X158425000Y-78243778D01*
X158445002Y-78175657D01*
X158461905Y-78154683D01*
X159465183Y-77151405D01*
X159527495Y-77117379D01*
X159554278Y-77114500D01*
X161589161Y-77114500D01*
X161657282Y-77134502D01*
X161703775Y-77188158D01*
X161713879Y-77258432D01*
X161684385Y-77323012D01*
X161642411Y-77354695D01*
X161494770Y-77423541D01*
X161494767Y-77423543D01*
X161489789Y-77425864D01*
X161305104Y-77555181D01*
X161145681Y-77714604D01*
X161016364Y-77899289D01*
X161014043Y-77904267D01*
X161014041Y-77904270D01*
X160945364Y-78051548D01*
X160921081Y-78103624D01*
X160919659Y-78108932D01*
X160919658Y-78108934D01*
X160901780Y-78175657D01*
X160862728Y-78321400D01*
X160843078Y-78546000D01*
X160862728Y-78770600D01*
X160864152Y-78775913D01*
X160864152Y-78775915D01*
X160918703Y-78979500D01*
X160921081Y-78988376D01*
X160923403Y-78993357D01*
X160923404Y-78993358D01*
X160941350Y-79031842D01*
X161016364Y-79192711D01*
X161145681Y-79377396D01*
X161305104Y-79536819D01*
X161489789Y-79666136D01*
X161494767Y-79668457D01*
X161494770Y-79668459D01*
X161643243Y-79737693D01*
X161694124Y-79761419D01*
X161699432Y-79762841D01*
X161699434Y-79762842D01*
X161736196Y-79772692D01*
X161846347Y-79802207D01*
X161906968Y-79839158D01*
X161937989Y-79903018D01*
X161929561Y-79973513D01*
X161904828Y-80010964D01*
X161775657Y-80146134D01*
X161754629Y-80168138D01*
X161647201Y-80325621D01*
X161592293Y-80370621D01*
X161521768Y-80378792D01*
X161458021Y-80347538D01*
X161437324Y-80323054D01*
X161356822Y-80198617D01*
X161356820Y-80198614D01*
X161354014Y-80194277D01*
X161203670Y-80029051D01*
X161199619Y-80025852D01*
X161199615Y-80025848D01*
X161032414Y-79893800D01*
X161032410Y-79893798D01*
X161028359Y-79890598D01*
X161020869Y-79886463D01*
X160935175Y-79839158D01*
X160832789Y-79782638D01*
X160827920Y-79780914D01*
X160827916Y-79780912D01*
X160627087Y-79709795D01*
X160627083Y-79709794D01*
X160622212Y-79708069D01*
X160617119Y-79707162D01*
X160617116Y-79707161D01*
X160407373Y-79669800D01*
X160407367Y-79669799D01*
X160402284Y-79668894D01*
X160328452Y-79667992D01*
X160184081Y-79666228D01*
X160184079Y-79666228D01*
X160178911Y-79666165D01*
X159958091Y-79699955D01*
X159745756Y-79769357D01*
X159715443Y-79785137D01*
X159611163Y-79839422D01*
X159547607Y-79872507D01*
X159543474Y-79875610D01*
X159543471Y-79875612D01*
X159373100Y-80003530D01*
X159368965Y-80006635D01*
X159365393Y-80010373D01*
X159235657Y-80146134D01*
X159214629Y-80168138D01*
X159088743Y-80352680D01*
X158994688Y-80555305D01*
X158934989Y-80770570D01*
X158911251Y-80992695D01*
X158911548Y-80997848D01*
X158911548Y-80997851D01*
X158917011Y-81092590D01*
X158924110Y-81215715D01*
X158925247Y-81220761D01*
X158925248Y-81220767D01*
X158945119Y-81308939D01*
X158973222Y-81433639D01*
X159057266Y-81640616D01*
X159097641Y-81706502D01*
X159171291Y-81826688D01*
X159173987Y-81831088D01*
X159320250Y-81999938D01*
X159386806Y-82055194D01*
X159403138Y-82068753D01*
X159442773Y-82127656D01*
X159444271Y-82198636D01*
X159407156Y-82259159D01*
X159355265Y-82287403D01*
X159248785Y-82315935D01*
X159199434Y-82329158D01*
X159199432Y-82329159D01*
X159194124Y-82330581D01*
X159189143Y-82332903D01*
X159189142Y-82332904D01*
X158994770Y-82423541D01*
X158994767Y-82423543D01*
X158989789Y-82425864D01*
X158805104Y-82555181D01*
X158645681Y-82714604D01*
X158516364Y-82899289D01*
X158514043Y-82904267D01*
X158514041Y-82904270D01*
X158494528Y-82946116D01*
X158421081Y-83103624D01*
X158362728Y-83321400D01*
X158343078Y-83546000D01*
X158362728Y-83770600D01*
X158421081Y-83988376D01*
X158423403Y-83993357D01*
X158423404Y-83993358D01*
X158511814Y-84182953D01*
X158516364Y-84192711D01*
X158645681Y-84377396D01*
X158805104Y-84536819D01*
X158989789Y-84666136D01*
X158994767Y-84668457D01*
X158994770Y-84668459D01*
X159189142Y-84759096D01*
X159194124Y-84761419D01*
X159199432Y-84762841D01*
X159199434Y-84762842D01*
X159406585Y-84818348D01*
X159406587Y-84818348D01*
X159411900Y-84819772D01*
X159636500Y-84839422D01*
X159861100Y-84819772D01*
X159866413Y-84818348D01*
X159866415Y-84818348D01*
X160073566Y-84762842D01*
X160073568Y-84762841D01*
X160078876Y-84761419D01*
X160083858Y-84759096D01*
X160278230Y-84668459D01*
X160278233Y-84668457D01*
X160283211Y-84666136D01*
X160467896Y-84536819D01*
X160627319Y-84377396D01*
X160709359Y-84260230D01*
X160764816Y-84215901D01*
X160812572Y-84206500D01*
X162756753Y-84206500D01*
X162765323Y-84206792D01*
X162811245Y-84209923D01*
X162811249Y-84209923D01*
X162818821Y-84210439D01*
X162826298Y-84209134D01*
X162826299Y-84209134D01*
X162877268Y-84200238D01*
X162883795Y-84199275D01*
X162935164Y-84193059D01*
X162935173Y-84193057D01*
X162942708Y-84192145D01*
X162949814Y-84189460D01*
X162956819Y-84187739D01*
X162961918Y-84186345D01*
X162968827Y-84184259D01*
X162976308Y-84182953D01*
X163030640Y-84159103D01*
X163036744Y-84156612D01*
X163085149Y-84138321D01*
X163085150Y-84138320D01*
X163092254Y-84135636D01*
X163098517Y-84131332D01*
X163104963Y-84127961D01*
X163109522Y-84125423D01*
X163115732Y-84121750D01*
X163122691Y-84118696D01*
X163169797Y-84082551D01*
X163175097Y-84078700D01*
X163224005Y-84045087D01*
X163262491Y-84001891D01*
X163267473Y-83996615D01*
X164888731Y-82375357D01*
X164951043Y-82341331D01*
X165002947Y-82340982D01*
X165192597Y-82379567D01*
X165197772Y-82379757D01*
X165197774Y-82379757D01*
X165410673Y-82387564D01*
X165410677Y-82387564D01*
X165415837Y-82387753D01*
X165420957Y-82387097D01*
X165420959Y-82387097D01*
X165632288Y-82360025D01*
X165632289Y-82360025D01*
X165637416Y-82359368D01*
X165642366Y-82357883D01*
X165846429Y-82296661D01*
X165846434Y-82296659D01*
X165851384Y-82295174D01*
X166051994Y-82196896D01*
X166233860Y-82067173D01*
X166392096Y-81909489D01*
X166451594Y-81826689D01*
X166522453Y-81728077D01*
X166523776Y-81729028D01*
X166570645Y-81685857D01*
X166640580Y-81673625D01*
X166706026Y-81701144D01*
X166733875Y-81732994D01*
X166793987Y-81831088D01*
X166940250Y-81999938D01*
X167112126Y-82142632D01*
X167305000Y-82255338D01*
X167513692Y-82335030D01*
X167518760Y-82336061D01*
X167518763Y-82336062D01*
X167626017Y-82357883D01*
X167732597Y-82379567D01*
X167737772Y-82379757D01*
X167737774Y-82379757D01*
X167950673Y-82387564D01*
X167950677Y-82387564D01*
X167955837Y-82387753D01*
X167960957Y-82387097D01*
X167960959Y-82387097D01*
X168172288Y-82360025D01*
X168172289Y-82360025D01*
X168177416Y-82359368D01*
X168182366Y-82357883D01*
X168386429Y-82296661D01*
X168386434Y-82296659D01*
X168391384Y-82295174D01*
X168591994Y-82196896D01*
X168773860Y-82067173D01*
X168932096Y-81909489D01*
X168935112Y-81905292D01*
X169054623Y-81738974D01*
X169110618Y-81695326D01*
X169156946Y-81686500D01*
X169174821Y-81686500D01*
X169242942Y-81706502D01*
X169282253Y-81746665D01*
X169333987Y-81831088D01*
X169480250Y-81999938D01*
X169652126Y-82142632D01*
X169845000Y-82255338D01*
X170053692Y-82335030D01*
X170058760Y-82336061D01*
X170058763Y-82336062D01*
X170166017Y-82357883D01*
X170272597Y-82379567D01*
X170277772Y-82379757D01*
X170277774Y-82379757D01*
X170490673Y-82387564D01*
X170490677Y-82387564D01*
X170495837Y-82387753D01*
X170500957Y-82387097D01*
X170500959Y-82387097D01*
X170712288Y-82360025D01*
X170712289Y-82360025D01*
X170717416Y-82359368D01*
X170722366Y-82357883D01*
X170926429Y-82296661D01*
X170926434Y-82296659D01*
X170931384Y-82295174D01*
X171131994Y-82196896D01*
X171313860Y-82067173D01*
X171472096Y-81909489D01*
X171531594Y-81826689D01*
X171602453Y-81728077D01*
X171603776Y-81729028D01*
X171650645Y-81685857D01*
X171720580Y-81673625D01*
X171786026Y-81701144D01*
X171813875Y-81732994D01*
X171873987Y-81831088D01*
X172020250Y-81999938D01*
X172192126Y-82142632D01*
X172385000Y-82255338D01*
X172593692Y-82335030D01*
X172598760Y-82336061D01*
X172598763Y-82336062D01*
X172706017Y-82357883D01*
X172812597Y-82379567D01*
X172817772Y-82379757D01*
X172817774Y-82379757D01*
X173030673Y-82387564D01*
X173030677Y-82387564D01*
X173035837Y-82387753D01*
X173040956Y-82387097D01*
X173040961Y-82387097D01*
X173073607Y-82382915D01*
X173143717Y-82394100D01*
X173178711Y-82418799D01*
X173643642Y-82883730D01*
X173677668Y-82946042D01*
X173672603Y-83016857D01*
X173668742Y-83026074D01*
X173634906Y-83098637D01*
X173632581Y-83103624D01*
X173574228Y-83321400D01*
X173554578Y-83546000D01*
X173574228Y-83770600D01*
X173632581Y-83988376D01*
X173634903Y-83993357D01*
X173634904Y-83993358D01*
X173723314Y-84182953D01*
X173727864Y-84192711D01*
X173857181Y-84377396D01*
X174016604Y-84536819D01*
X174201289Y-84666136D01*
X174206267Y-84668457D01*
X174206270Y-84668459D01*
X174400642Y-84759096D01*
X174405624Y-84761419D01*
X174410932Y-84762841D01*
X174410934Y-84762842D01*
X174618085Y-84818348D01*
X174618087Y-84818348D01*
X174623400Y-84819772D01*
X174848000Y-84839422D01*
X175072600Y-84819772D01*
X175077913Y-84818348D01*
X175077915Y-84818348D01*
X175285066Y-84762842D01*
X175285068Y-84762841D01*
X175290376Y-84761419D01*
X175295358Y-84759096D01*
X175489730Y-84668459D01*
X175489733Y-84668457D01*
X175494711Y-84666136D01*
X175679396Y-84536819D01*
X175838819Y-84377396D01*
X175968136Y-84192711D01*
X175972687Y-84182953D01*
X176061096Y-83993358D01*
X176061097Y-83993357D01*
X176063419Y-83988376D01*
X176121772Y-83770600D01*
X176141422Y-83546000D01*
X176121772Y-83321400D01*
X176063419Y-83103624D01*
X175989972Y-82946116D01*
X175970459Y-82904270D01*
X175970457Y-82904267D01*
X175968136Y-82899289D01*
X175838819Y-82714604D01*
X175700686Y-82576471D01*
X175666660Y-82514159D01*
X175671725Y-82443344D01*
X175714272Y-82386508D01*
X175773771Y-82362397D01*
X175792288Y-82360025D01*
X175792289Y-82360025D01*
X175797416Y-82359368D01*
X175802366Y-82357883D01*
X176006429Y-82296661D01*
X176006434Y-82296659D01*
X176011384Y-82295174D01*
X176211994Y-82196896D01*
X176393860Y-82067173D01*
X176537400Y-81924134D01*
X179235500Y-81924134D01*
X179242255Y-81986316D01*
X179293385Y-82122705D01*
X179380739Y-82239261D01*
X179497295Y-82326615D01*
X179633684Y-82377745D01*
X179695866Y-82384500D01*
X181492134Y-82384500D01*
X181554316Y-82377745D01*
X181690705Y-82326615D01*
X181807261Y-82239261D01*
X181894615Y-82122705D01*
X181945745Y-81986316D01*
X181952500Y-81924134D01*
X181952500Y-80127866D01*
X181945745Y-80065684D01*
X181894615Y-79929295D01*
X181807261Y-79812739D01*
X181690705Y-79725385D01*
X181554316Y-79674255D01*
X181492134Y-79667500D01*
X179695866Y-79667500D01*
X179633684Y-79674255D01*
X179497295Y-79725385D01*
X179380739Y-79812739D01*
X179293385Y-79929295D01*
X179242255Y-80065684D01*
X179235500Y-80127866D01*
X179235500Y-81924134D01*
X176537400Y-81924134D01*
X176552096Y-81909489D01*
X176611594Y-81826689D01*
X176679435Y-81732277D01*
X176682453Y-81728077D01*
X176698640Y-81695326D01*
X176779136Y-81532453D01*
X176779137Y-81532451D01*
X176781430Y-81527811D01*
X176846370Y-81314069D01*
X176875529Y-81092590D01*
X176877156Y-81026000D01*
X176858852Y-80803361D01*
X176804431Y-80586702D01*
X176715354Y-80381840D01*
X176636883Y-80260542D01*
X176616676Y-80192483D01*
X176636472Y-80124302D01*
X176653580Y-80103008D01*
X176924806Y-79831782D01*
X176987118Y-79797756D01*
X177046512Y-79799170D01*
X177118085Y-79818348D01*
X177118087Y-79818348D01*
X177123400Y-79819772D01*
X177348000Y-79839422D01*
X177572600Y-79819772D01*
X177577913Y-79818348D01*
X177577915Y-79818348D01*
X177785066Y-79762842D01*
X177785068Y-79762841D01*
X177790376Y-79761419D01*
X177841257Y-79737693D01*
X177989730Y-79668459D01*
X177989733Y-79668457D01*
X177994711Y-79666136D01*
X178179396Y-79536819D01*
X178338819Y-79377396D01*
X178468136Y-79192711D01*
X178543151Y-79031842D01*
X178561096Y-78993358D01*
X178561097Y-78993357D01*
X178563419Y-78988376D01*
X178565798Y-78979500D01*
X178620348Y-78775915D01*
X178620348Y-78775913D01*
X178621772Y-78770600D01*
X178641422Y-78546000D01*
X178621772Y-78321400D01*
X178582720Y-78175657D01*
X178564842Y-78108934D01*
X178564841Y-78108932D01*
X178563419Y-78103624D01*
X178539136Y-78051548D01*
X178470459Y-77904270D01*
X178470457Y-77904267D01*
X178468136Y-77899289D01*
X178338819Y-77714604D01*
X178179396Y-77555181D01*
X177994711Y-77425864D01*
X177989733Y-77423543D01*
X177989730Y-77423541D01*
X177795358Y-77332904D01*
X177795357Y-77332903D01*
X177790376Y-77330581D01*
X177785068Y-77329159D01*
X177785066Y-77329158D01*
X177577915Y-77273652D01*
X177577913Y-77273652D01*
X177572600Y-77272228D01*
X177348000Y-77252578D01*
X177123400Y-77272228D01*
X177118087Y-77273652D01*
X177118085Y-77273652D01*
X176910934Y-77329158D01*
X176910932Y-77329159D01*
X176905624Y-77330581D01*
X176900643Y-77332903D01*
X176900642Y-77332904D01*
X176706270Y-77423541D01*
X176706267Y-77423543D01*
X176701289Y-77425864D01*
X176516604Y-77555181D01*
X176357181Y-77714604D01*
X176227864Y-77899289D01*
X176225543Y-77904267D01*
X176225541Y-77904270D01*
X176156864Y-78051548D01*
X176132581Y-78103624D01*
X176131159Y-78108932D01*
X176131158Y-78108934D01*
X176113280Y-78175657D01*
X176074228Y-78321400D01*
X176054578Y-78546000D01*
X176055057Y-78551475D01*
X176072614Y-78752147D01*
X176058625Y-78821752D01*
X176036188Y-78852224D01*
X175819817Y-79068595D01*
X175757505Y-79102621D01*
X175730722Y-79105500D01*
X173762500Y-79105500D01*
X173694379Y-79085498D01*
X173647886Y-79031842D01*
X173636500Y-78979500D01*
X173636500Y-77717866D01*
X173629745Y-77655684D01*
X173578615Y-77519295D01*
X173491261Y-77402739D01*
X173374705Y-77315385D01*
X173238316Y-77264255D01*
X173176134Y-77257500D01*
X172744500Y-77257500D01*
X172676379Y-77237498D01*
X172629886Y-77183842D01*
X172618500Y-77131500D01*
X172618500Y-55697778D01*
X172638502Y-55629657D01*
X172655405Y-55608683D01*
X176867769Y-51396319D01*
X176874035Y-51390465D01*
X176908727Y-51360201D01*
X176914452Y-51355207D01*
X176918817Y-51348996D01*
X176918820Y-51348993D01*
X176948578Y-51306651D01*
X176952511Y-51301356D01*
X176984429Y-51260649D01*
X176989117Y-51254670D01*
X176992243Y-51247746D01*
X176995977Y-51241581D01*
X176998597Y-51236989D01*
X177002010Y-51230625D01*
X177006376Y-51224412D01*
X177009134Y-51217338D01*
X177009139Y-51217329D01*
X177027940Y-51169108D01*
X177030494Y-51163030D01*
X177031157Y-51161562D01*
X177054904Y-51108967D01*
X177056289Y-51101494D01*
X177058463Y-51094556D01*
X177059889Y-51089550D01*
X177061688Y-51082545D01*
X177064448Y-51075466D01*
X177065653Y-51066319D01*
X177072196Y-51016618D01*
X177073228Y-51010104D01*
X177082654Y-50959245D01*
X177082654Y-50959244D01*
X177084038Y-50951777D01*
X177080709Y-50894044D01*
X177080500Y-50886792D01*
X177080500Y-49123245D01*
X177100502Y-49055124D01*
X177133332Y-49020666D01*
X177311847Y-48893333D01*
X177311849Y-48893331D01*
X177316051Y-48890334D01*
X177477199Y-48729747D01*
X177480217Y-48725546D01*
X177483564Y-48721614D01*
X177484916Y-48722765D01*
X177534775Y-48683904D01*
X177605479Y-48677462D01*
X177668441Y-48710267D01*
X177703673Y-48771905D01*
X177706887Y-48793824D01*
X177710110Y-48849715D01*
X177711247Y-48854761D01*
X177711248Y-48854767D01*
X177719264Y-48890334D01*
X177759222Y-49067639D01*
X177843266Y-49274616D01*
X177845965Y-49279020D01*
X177938904Y-49430683D01*
X177959987Y-49465088D01*
X178106250Y-49633938D01*
X178278126Y-49776632D01*
X178300106Y-49789476D01*
X178351445Y-49819476D01*
X178400169Y-49871114D01*
X178413240Y-49940897D01*
X178386509Y-50006669D01*
X178346055Y-50040027D01*
X178333607Y-50046507D01*
X178329474Y-50049610D01*
X178329471Y-50049612D01*
X178159100Y-50177530D01*
X178154965Y-50180635D01*
X178151393Y-50184373D01*
X178004319Y-50338277D01*
X178000629Y-50342138D01*
X177874743Y-50526680D01*
X177836089Y-50609954D01*
X177800503Y-50686618D01*
X177780688Y-50729305D01*
X177720989Y-50944570D01*
X177697251Y-51166695D01*
X177697548Y-51171848D01*
X177697548Y-51171851D01*
X177702668Y-51260649D01*
X177710110Y-51389715D01*
X177711247Y-51394761D01*
X177711248Y-51394767D01*
X177711598Y-51396319D01*
X177759222Y-51607639D01*
X177843266Y-51814616D01*
X177872916Y-51863000D01*
X177938904Y-51970683D01*
X177959987Y-52005088D01*
X178106250Y-52173938D01*
X178278126Y-52316632D01*
X178316249Y-52338909D01*
X178351445Y-52359476D01*
X178400169Y-52411114D01*
X178413240Y-52480897D01*
X178386509Y-52546669D01*
X178346055Y-52580027D01*
X178333607Y-52586507D01*
X178329474Y-52589610D01*
X178329471Y-52589612D01*
X178159100Y-52717530D01*
X178154965Y-52720635D01*
X178151393Y-52724373D01*
X178004319Y-52878277D01*
X178000629Y-52882138D01*
X177997715Y-52886410D01*
X177997714Y-52886411D01*
X177945730Y-52962617D01*
X177874743Y-53066680D01*
X177851534Y-53116680D01*
X177801435Y-53224610D01*
X177780688Y-53269305D01*
X177720989Y-53484570D01*
X177697251Y-53706695D01*
X177697548Y-53711848D01*
X177697548Y-53711851D01*
X177703011Y-53806590D01*
X177710110Y-53929715D01*
X177711247Y-53934761D01*
X177711248Y-53934767D01*
X177720213Y-53974547D01*
X177759222Y-54147639D01*
X177843266Y-54354616D01*
X177875635Y-54407438D01*
X177938893Y-54510665D01*
X177959987Y-54545088D01*
X178106250Y-54713938D01*
X178278126Y-54856632D01*
X178337856Y-54891535D01*
X178351445Y-54899476D01*
X178400169Y-54951114D01*
X178413240Y-55020897D01*
X178386509Y-55086669D01*
X178346055Y-55120027D01*
X178333607Y-55126507D01*
X178329474Y-55129610D01*
X178329471Y-55129612D01*
X178159100Y-55257530D01*
X178154965Y-55260635D01*
X178151393Y-55264373D01*
X178004319Y-55418277D01*
X178000629Y-55422138D01*
X177997715Y-55426410D01*
X177997714Y-55426411D01*
X177945730Y-55502617D01*
X177874743Y-55606680D01*
X177780688Y-55809305D01*
X177720989Y-56024570D01*
X177697251Y-56246695D01*
X177697548Y-56251848D01*
X177697548Y-56251851D01*
X177697766Y-56255635D01*
X177710110Y-56469715D01*
X177711247Y-56474761D01*
X177711248Y-56474767D01*
X177724067Y-56531648D01*
X177759222Y-56687639D01*
X177843266Y-56894616D01*
X177845965Y-56899020D01*
X177935829Y-57045665D01*
X177959987Y-57085088D01*
X178106250Y-57253938D01*
X178278126Y-57396632D01*
X178338944Y-57432171D01*
X178351445Y-57439476D01*
X178400169Y-57491114D01*
X178413240Y-57560897D01*
X178386509Y-57626669D01*
X178346055Y-57660027D01*
X178333607Y-57666507D01*
X178329474Y-57669610D01*
X178329471Y-57669612D01*
X178159100Y-57797530D01*
X178154965Y-57800635D01*
X178151393Y-57804373D01*
X178004319Y-57958277D01*
X178000629Y-57962138D01*
X177997715Y-57966410D01*
X177997714Y-57966411D01*
X177945730Y-58042617D01*
X177874743Y-58146680D01*
X177780688Y-58349305D01*
X177720989Y-58564570D01*
X177697251Y-58786695D01*
X177697548Y-58791848D01*
X177697548Y-58791851D01*
X177705894Y-58936590D01*
X177710110Y-59009715D01*
X177711247Y-59014761D01*
X177711248Y-59014767D01*
X177734449Y-59117715D01*
X177759222Y-59227639D01*
X177843266Y-59434616D01*
X177959987Y-59625088D01*
X178106250Y-59793938D01*
X178278126Y-59936632D01*
X178338944Y-59972171D01*
X178351445Y-59979476D01*
X178400169Y-60031114D01*
X178413240Y-60100897D01*
X178386509Y-60166669D01*
X178346055Y-60200027D01*
X178333607Y-60206507D01*
X178329474Y-60209610D01*
X178329471Y-60209612D01*
X178159100Y-60337530D01*
X178154965Y-60340635D01*
X178151393Y-60344373D01*
X178004319Y-60498277D01*
X178000629Y-60502138D01*
X177874743Y-60686680D01*
X177780688Y-60889305D01*
X177720989Y-61104570D01*
X177697251Y-61326695D01*
X177697548Y-61331848D01*
X177697548Y-61331851D01*
X177709812Y-61544547D01*
X177710110Y-61549715D01*
X177711247Y-61554761D01*
X177711248Y-61554767D01*
X177724358Y-61612939D01*
X177759222Y-61767639D01*
X177797461Y-61861811D01*
X177832873Y-61949020D01*
X177843266Y-61974616D01*
X177959987Y-62165088D01*
X178106250Y-62333938D01*
X178278126Y-62476632D01*
X178300106Y-62489476D01*
X178351445Y-62519476D01*
X178400169Y-62571114D01*
X178413240Y-62640897D01*
X178386509Y-62706669D01*
X178346055Y-62740027D01*
X178333607Y-62746507D01*
X178329474Y-62749610D01*
X178329471Y-62749612D01*
X178159100Y-62877530D01*
X178154965Y-62880635D01*
X178151393Y-62884373D01*
X178004319Y-63038277D01*
X178000629Y-63042138D01*
X177874743Y-63226680D01*
X177780688Y-63429305D01*
X177720989Y-63644570D01*
X177697251Y-63866695D01*
X177697548Y-63871848D01*
X177697548Y-63871851D01*
X177709812Y-64084547D01*
X177710110Y-64089715D01*
X177711247Y-64094761D01*
X177711248Y-64094767D01*
X177724358Y-64152939D01*
X177759222Y-64307639D01*
X177820673Y-64458976D01*
X177832873Y-64489020D01*
X177843266Y-64514616D01*
X177959987Y-64705088D01*
X178106250Y-64873938D01*
X178278126Y-65016632D01*
X178300106Y-65029476D01*
X178351445Y-65059476D01*
X178400169Y-65111114D01*
X178413240Y-65180897D01*
X178386509Y-65246669D01*
X178346055Y-65280027D01*
X178333607Y-65286507D01*
X178329474Y-65289610D01*
X178329471Y-65289612D01*
X178159100Y-65417530D01*
X178154965Y-65420635D01*
X178151393Y-65424373D01*
X178004319Y-65578277D01*
X178000629Y-65582138D01*
X177874743Y-65766680D01*
X177780688Y-65969305D01*
X177720989Y-66184570D01*
X177697251Y-66406695D01*
X177697548Y-66411848D01*
X177697548Y-66411851D01*
X177701088Y-66473240D01*
X177710110Y-66629715D01*
X177711247Y-66634761D01*
X177711248Y-66634767D01*
X177724358Y-66692939D01*
X177759222Y-66847639D01*
X177843266Y-67054616D01*
X177959987Y-67245088D01*
X178106250Y-67413938D01*
X178278126Y-67556632D01*
X178348595Y-67597811D01*
X178351445Y-67599476D01*
X178400169Y-67651114D01*
X178413240Y-67720897D01*
X178386509Y-67786669D01*
X178346055Y-67820027D01*
X178333607Y-67826507D01*
X178329474Y-67829610D01*
X178329471Y-67829612D01*
X178159100Y-67957530D01*
X178154965Y-67960635D01*
X178091461Y-68027088D01*
X178004319Y-68118277D01*
X178000629Y-68122138D01*
X177997715Y-68126410D01*
X177997714Y-68126411D01*
X177956745Y-68186469D01*
X177874743Y-68306680D01*
X177780688Y-68509305D01*
X177720989Y-68724570D01*
X177697251Y-68946695D01*
X177697548Y-68951848D01*
X177697548Y-68951851D01*
X177698108Y-68961562D01*
X177710110Y-69169715D01*
X177711247Y-69174761D01*
X177711248Y-69174767D01*
X177724358Y-69232939D01*
X177759222Y-69387639D01*
X177843266Y-69594616D01*
X177845965Y-69599020D01*
X177944921Y-69760502D01*
X177959987Y-69785088D01*
X178106250Y-69953938D01*
X178278126Y-70096632D01*
X178312352Y-70116632D01*
X178351445Y-70139476D01*
X178400169Y-70191114D01*
X178413240Y-70260897D01*
X178386509Y-70326669D01*
X178346055Y-70360027D01*
X178333607Y-70366507D01*
X178329474Y-70369610D01*
X178329471Y-70369612D01*
X178159100Y-70497530D01*
X178154965Y-70500635D01*
X178129894Y-70526870D01*
X178004319Y-70658277D01*
X178000629Y-70662138D01*
X177874743Y-70846680D01*
X177780688Y-71049305D01*
X177720989Y-71264570D01*
X177697251Y-71486695D01*
X177697548Y-71491848D01*
X177697548Y-71491851D01*
X177698108Y-71501562D01*
X177710110Y-71709715D01*
X177711247Y-71714761D01*
X177711248Y-71714767D01*
X177734449Y-71817715D01*
X177759222Y-71927639D01*
X177843266Y-72134616D01*
X177959987Y-72325088D01*
X178106250Y-72493938D01*
X178110230Y-72497242D01*
X178114981Y-72501187D01*
X178154616Y-72560090D01*
X178156113Y-72631071D01*
X178118997Y-72691593D01*
X178078725Y-72716112D01*
X177995686Y-72747242D01*
X177963295Y-72759385D01*
X177846739Y-72846739D01*
X177759385Y-72963295D01*
X177708255Y-73099684D01*
X177701500Y-73161866D01*
X177701500Y-74958134D01*
X177708255Y-75020316D01*
X177759385Y-75156705D01*
X177846739Y-75273261D01*
X177963295Y-75360615D01*
X178099684Y-75411745D01*
X178161866Y-75418500D01*
X178281828Y-75418500D01*
X178349949Y-75438502D01*
X178396442Y-75492158D01*
X178406916Y-75529364D01*
X178413855Y-75586708D01*
X178416540Y-75593815D01*
X178418261Y-75600819D01*
X178419655Y-75605918D01*
X178421741Y-75612827D01*
X178423047Y-75620308D01*
X178426101Y-75627265D01*
X178446896Y-75674639D01*
X178449388Y-75680743D01*
X178470364Y-75736254D01*
X178474668Y-75742517D01*
X178478039Y-75748963D01*
X178480577Y-75753522D01*
X178484250Y-75759732D01*
X178487304Y-75766691D01*
X178523449Y-75813797D01*
X178527306Y-75819106D01*
X178556565Y-75861678D01*
X178560913Y-75868005D01*
X178566581Y-75873055D01*
X178566582Y-75873056D01*
X178604109Y-75906491D01*
X178609385Y-75911473D01*
X182393681Y-79695769D01*
X182399534Y-79702034D01*
X182434793Y-79742452D01*
X182441004Y-79746817D01*
X182441007Y-79746820D01*
X182483349Y-79776578D01*
X182488644Y-79780511D01*
X182535330Y-79817117D01*
X182542254Y-79820243D01*
X182548419Y-79823977D01*
X182553011Y-79826597D01*
X182559375Y-79830010D01*
X182565588Y-79834376D01*
X182572662Y-79837134D01*
X182572671Y-79837139D01*
X182620892Y-79855940D01*
X182626961Y-79858490D01*
X182681033Y-79882904D01*
X182688506Y-79884289D01*
X182695444Y-79886463D01*
X182700450Y-79887889D01*
X182707455Y-79889688D01*
X182714534Y-79892448D01*
X182722063Y-79893439D01*
X182722066Y-79893440D01*
X182773382Y-79900196D01*
X182779897Y-79901228D01*
X182838223Y-79912038D01*
X182845803Y-79911601D01*
X182845804Y-79911601D01*
X182895955Y-79908709D01*
X182903208Y-79908500D01*
X184305500Y-79908500D01*
X184373621Y-79928502D01*
X184420114Y-79982158D01*
X184431500Y-80034500D01*
X184431500Y-80146134D01*
X184438255Y-80208316D01*
X184489385Y-80344705D01*
X184576739Y-80461261D01*
X184693295Y-80548615D01*
X184829684Y-80599745D01*
X184891866Y-80606500D01*
X186688134Y-80606500D01*
X186750316Y-80599745D01*
X186886705Y-80548615D01*
X187003261Y-80461261D01*
X187090615Y-80344705D01*
X187141745Y-80208316D01*
X187148500Y-80146134D01*
X187148500Y-78349866D01*
X187141745Y-78287684D01*
X187090615Y-78151295D01*
X187003261Y-78034739D01*
X187006015Y-78032675D01*
X186979948Y-77984939D01*
X186985013Y-77914124D01*
X187002243Y-77882591D01*
X187055229Y-77811892D01*
X187055230Y-77811890D01*
X187060615Y-77804705D01*
X187111745Y-77668316D01*
X187118500Y-77606134D01*
X187118500Y-75809866D01*
X187111745Y-75747684D01*
X187060615Y-75611295D01*
X186973261Y-75494739D01*
X186856705Y-75407385D01*
X186844132Y-75402672D01*
X186738203Y-75362960D01*
X186681439Y-75320318D01*
X186656739Y-75253756D01*
X186671947Y-75184408D01*
X186693493Y-75155727D01*
X186704015Y-75145242D01*
X186798096Y-75051489D01*
X186857594Y-74968689D01*
X186925435Y-74874277D01*
X186928453Y-74870077D01*
X186937158Y-74852465D01*
X187025136Y-74674453D01*
X187025137Y-74674451D01*
X187027430Y-74669811D01*
X187067640Y-74537466D01*
X187090865Y-74461023D01*
X187090865Y-74461021D01*
X187092370Y-74456069D01*
X187121529Y-74234590D01*
X187123156Y-74168000D01*
X187104852Y-73945361D01*
X187050431Y-73728702D01*
X186961354Y-73523840D01*
X186921906Y-73462862D01*
X186842822Y-73340617D01*
X186842820Y-73340614D01*
X186840014Y-73336277D01*
X186689670Y-73171051D01*
X186685619Y-73167852D01*
X186685615Y-73167848D01*
X186518414Y-73035800D01*
X186518410Y-73035798D01*
X186514359Y-73032598D01*
X186473053Y-73009796D01*
X186423084Y-72959364D01*
X186408312Y-72889921D01*
X186433428Y-72823516D01*
X186460780Y-72796909D01*
X186513387Y-72759385D01*
X186639860Y-72669173D01*
X186655762Y-72653327D01*
X186752337Y-72557088D01*
X186798096Y-72511489D01*
X186808334Y-72497242D01*
X186925435Y-72334277D01*
X186928453Y-72330077D01*
X186969870Y-72246277D01*
X187025136Y-72134453D01*
X187025137Y-72134451D01*
X187027430Y-72129811D01*
X187082778Y-71947639D01*
X187090865Y-71921023D01*
X187090865Y-71921021D01*
X187092370Y-71916069D01*
X187121529Y-71694590D01*
X187123156Y-71628000D01*
X187104852Y-71405361D01*
X187050431Y-71188702D01*
X186961354Y-70983840D01*
X186855042Y-70819507D01*
X186842822Y-70800617D01*
X186842820Y-70800614D01*
X186840014Y-70796277D01*
X186820202Y-70774504D01*
X186692798Y-70634488D01*
X186661746Y-70570642D01*
X186670141Y-70500143D01*
X186715317Y-70445375D01*
X186741761Y-70431706D01*
X186848297Y-70391767D01*
X186856705Y-70388615D01*
X186973261Y-70301261D01*
X187060615Y-70184705D01*
X187111745Y-70048316D01*
X187118500Y-69986134D01*
X187118500Y-68189866D01*
X187111745Y-68127684D01*
X187060615Y-67991295D01*
X186973261Y-67874739D01*
X186856705Y-67787385D01*
X186793704Y-67763767D01*
X186727711Y-67739027D01*
X186727709Y-67739027D01*
X186720316Y-67736255D01*
X186720046Y-67736226D01*
X186661335Y-67702688D01*
X186628513Y-67639733D01*
X186634937Y-67569028D01*
X186663185Y-67526069D01*
X186711895Y-67477529D01*
X186758096Y-67431489D01*
X186817594Y-67348689D01*
X186885435Y-67254277D01*
X186888453Y-67250077D01*
X186922759Y-67180665D01*
X186985136Y-67054453D01*
X186985137Y-67054451D01*
X186987430Y-67049811D01*
X187052370Y-66836069D01*
X187081529Y-66614590D01*
X187083156Y-66548000D01*
X187064852Y-66325361D01*
X187010431Y-66108702D01*
X186921354Y-65903840D01*
X186881906Y-65842862D01*
X186802822Y-65720617D01*
X186802820Y-65720614D01*
X186800014Y-65716277D01*
X186780117Y-65694410D01*
X186652798Y-65554488D01*
X186621746Y-65490642D01*
X186630141Y-65420143D01*
X186675317Y-65365375D01*
X186701761Y-65351706D01*
X186808297Y-65311767D01*
X186816705Y-65308615D01*
X186933261Y-65221261D01*
X187020615Y-65104705D01*
X187071745Y-64968316D01*
X187078500Y-64906134D01*
X187078500Y-63109866D01*
X187071745Y-63047684D01*
X187020615Y-62911295D01*
X186933261Y-62794739D01*
X186816705Y-62707385D01*
X186680316Y-62656255D01*
X186618134Y-62649500D01*
X184821866Y-62649500D01*
X184759684Y-62656255D01*
X184623295Y-62707385D01*
X184506739Y-62794739D01*
X184419385Y-62911295D01*
X184368255Y-63047684D01*
X184361500Y-63109866D01*
X184361500Y-63113500D01*
X184361486Y-63113549D01*
X184361316Y-63116680D01*
X184360578Y-63116640D01*
X184341498Y-63181621D01*
X184287842Y-63228114D01*
X184235500Y-63239500D01*
X180319338Y-63239500D01*
X180251217Y-63219498D01*
X180213546Y-63181940D01*
X180142822Y-63072617D01*
X180142820Y-63072614D01*
X180140014Y-63068277D01*
X179989670Y-62903051D01*
X179985619Y-62899852D01*
X179985615Y-62899848D01*
X179818414Y-62767800D01*
X179818410Y-62767798D01*
X179814359Y-62764598D01*
X179773053Y-62741796D01*
X179723084Y-62691364D01*
X179708312Y-62621921D01*
X179733428Y-62555516D01*
X179760780Y-62528909D01*
X179816063Y-62489476D01*
X179939860Y-62401173D01*
X180098096Y-62243489D01*
X180157594Y-62160689D01*
X180225435Y-62066277D01*
X180228453Y-62062077D01*
X180286506Y-61944616D01*
X180325136Y-61866453D01*
X180325137Y-61866451D01*
X180327430Y-61861811D01*
X180392370Y-61648069D01*
X180421529Y-61426590D01*
X180423156Y-61360000D01*
X180404852Y-61137361D01*
X180395364Y-61099588D01*
X180384487Y-61056282D01*
X180387292Y-60985340D01*
X180417596Y-60936492D01*
X180997769Y-60356319D01*
X181004035Y-60350465D01*
X181038727Y-60320201D01*
X181044452Y-60315207D01*
X181048817Y-60308996D01*
X181048820Y-60308993D01*
X181078578Y-60266651D01*
X181082511Y-60261356D01*
X181114429Y-60220649D01*
X181119117Y-60214670D01*
X181122243Y-60207746D01*
X181125977Y-60201581D01*
X181128597Y-60196989D01*
X181132010Y-60190625D01*
X181136376Y-60184412D01*
X181139134Y-60177338D01*
X181139139Y-60177329D01*
X181157940Y-60129108D01*
X181160494Y-60123031D01*
X181174105Y-60092884D01*
X181220366Y-60039029D01*
X181288400Y-60018733D01*
X181352513Y-60035944D01*
X181456538Y-60096731D01*
X181456542Y-60096733D01*
X181461000Y-60099338D01*
X181465825Y-60101180D01*
X181465826Y-60101181D01*
X181518680Y-60121364D01*
X181669692Y-60179030D01*
X181674760Y-60180061D01*
X181674763Y-60180062D01*
X181758872Y-60197174D01*
X181888597Y-60223567D01*
X181893772Y-60223757D01*
X181893774Y-60223757D01*
X182106673Y-60231564D01*
X182106677Y-60231564D01*
X182111837Y-60231753D01*
X182116957Y-60231097D01*
X182116959Y-60231097D01*
X182328288Y-60204025D01*
X182328289Y-60204025D01*
X182333416Y-60203368D01*
X182338366Y-60201883D01*
X182542429Y-60140661D01*
X182542434Y-60140659D01*
X182547384Y-60139174D01*
X182747994Y-60040896D01*
X182929860Y-59911173D01*
X182939128Y-59901938D01*
X183084435Y-59757137D01*
X183088096Y-59753489D01*
X183218453Y-59572077D01*
X183233014Y-59542616D01*
X183315136Y-59376453D01*
X183315137Y-59376451D01*
X183317430Y-59371811D01*
X183382370Y-59158069D01*
X183411529Y-58936590D01*
X183411821Y-58924646D01*
X183413074Y-58873365D01*
X183413074Y-58873361D01*
X183413156Y-58870000D01*
X183394852Y-58647361D01*
X183340431Y-58430702D01*
X183251354Y-58225840D01*
X183157063Y-58080088D01*
X183132822Y-58042617D01*
X183132820Y-58042614D01*
X183130014Y-58038277D01*
X182979670Y-57873051D01*
X182975619Y-57869852D01*
X182975615Y-57869848D01*
X182808414Y-57737800D01*
X182808410Y-57737798D01*
X182804359Y-57734598D01*
X182763053Y-57711796D01*
X182713084Y-57661364D01*
X182698312Y-57591921D01*
X182723428Y-57525516D01*
X182750780Y-57498909D01*
X182844343Y-57432171D01*
X182929860Y-57371173D01*
X182939128Y-57361938D01*
X183084435Y-57217137D01*
X183088096Y-57213489D01*
X183145582Y-57133489D01*
X183214216Y-57037974D01*
X183270211Y-56994326D01*
X183316539Y-56985500D01*
X184376213Y-56985500D01*
X184444334Y-57005502D01*
X184483646Y-57045665D01*
X184573987Y-57193088D01*
X184720250Y-57361938D01*
X184892126Y-57504632D01*
X184927865Y-57525516D01*
X184965445Y-57547476D01*
X185014169Y-57599114D01*
X185027240Y-57668897D01*
X185000509Y-57734669D01*
X184960055Y-57768027D01*
X184947607Y-57774507D01*
X184943474Y-57777610D01*
X184943471Y-57777612D01*
X184788430Y-57894020D01*
X184768965Y-57908635D01*
X184765393Y-57912373D01*
X184648727Y-58034457D01*
X184614629Y-58070138D01*
X184611715Y-58074410D01*
X184611714Y-58074411D01*
X184526556Y-58199249D01*
X184488743Y-58254680D01*
X184473003Y-58288590D01*
X184407037Y-58430702D01*
X184394688Y-58457305D01*
X184334989Y-58672570D01*
X184311251Y-58894695D01*
X184311548Y-58899848D01*
X184311548Y-58899851D01*
X184317011Y-58994590D01*
X184324110Y-59117715D01*
X184325247Y-59122761D01*
X184325248Y-59122767D01*
X184345119Y-59210939D01*
X184373222Y-59335639D01*
X184457266Y-59542616D01*
X184573987Y-59733088D01*
X184720250Y-59901938D01*
X184892126Y-60044632D01*
X185085000Y-60157338D01*
X185089825Y-60159180D01*
X185089826Y-60159181D01*
X185144508Y-60180062D01*
X185293692Y-60237030D01*
X185298760Y-60238061D01*
X185298763Y-60238062D01*
X185406017Y-60259883D01*
X185512597Y-60281567D01*
X185517772Y-60281757D01*
X185517774Y-60281757D01*
X185730673Y-60289564D01*
X185730677Y-60289564D01*
X185735837Y-60289753D01*
X185740957Y-60289097D01*
X185740959Y-60289097D01*
X185952288Y-60262025D01*
X185952289Y-60262025D01*
X185957416Y-60261368D01*
X185962366Y-60259883D01*
X186166429Y-60198661D01*
X186166434Y-60198659D01*
X186171384Y-60197174D01*
X186371994Y-60098896D01*
X186553860Y-59969173D01*
X186589832Y-59933327D01*
X186635209Y-59888107D01*
X186712096Y-59811489D01*
X186771594Y-59728689D01*
X186839435Y-59634277D01*
X186842453Y-59630077D01*
X186869043Y-59576277D01*
X186939136Y-59434453D01*
X186939137Y-59434451D01*
X186941430Y-59429811D01*
X187006370Y-59216069D01*
X187035529Y-58994590D01*
X187035769Y-58984760D01*
X187037074Y-58931365D01*
X187037074Y-58931361D01*
X187037156Y-58928000D01*
X187018852Y-58705361D01*
X186964431Y-58488702D01*
X186875354Y-58283840D01*
X186783265Y-58141492D01*
X186756822Y-58100617D01*
X186756820Y-58100614D01*
X186754014Y-58096277D01*
X186603670Y-57931051D01*
X186599619Y-57927852D01*
X186599615Y-57927848D01*
X186432414Y-57795800D01*
X186432410Y-57795798D01*
X186428359Y-57792598D01*
X186387053Y-57769796D01*
X186337084Y-57719364D01*
X186322312Y-57649921D01*
X186347428Y-57583516D01*
X186374780Y-57556909D01*
X186424005Y-57521797D01*
X186553860Y-57429173D01*
X186589832Y-57393327D01*
X186635209Y-57348107D01*
X186712096Y-57271489D01*
X186737194Y-57236562D01*
X186839435Y-57094277D01*
X186842453Y-57090077D01*
X186884253Y-57005502D01*
X186939136Y-56894453D01*
X186939137Y-56894451D01*
X186941430Y-56889811D01*
X187006370Y-56676069D01*
X187035529Y-56454590D01*
X187035611Y-56451240D01*
X187037074Y-56391365D01*
X187037074Y-56391361D01*
X187037156Y-56388000D01*
X187018852Y-56165361D01*
X186964431Y-55948702D01*
X186875354Y-55743840D01*
X186787917Y-55608683D01*
X186756822Y-55560617D01*
X186756820Y-55560614D01*
X186754014Y-55556277D01*
X186603670Y-55391051D01*
X186599619Y-55387852D01*
X186599615Y-55387848D01*
X186432414Y-55255800D01*
X186432410Y-55255798D01*
X186428359Y-55252598D01*
X186387053Y-55229796D01*
X186337084Y-55179364D01*
X186322312Y-55109921D01*
X186347428Y-55043516D01*
X186374780Y-55016909D01*
X186425622Y-54980644D01*
X186553860Y-54889173D01*
X186575216Y-54867892D01*
X186662238Y-54781173D01*
X186712096Y-54731489D01*
X186811259Y-54593489D01*
X186839435Y-54554277D01*
X186842453Y-54550077D01*
X186862760Y-54508990D01*
X186939136Y-54354453D01*
X186939137Y-54354451D01*
X186941430Y-54349811D01*
X187006370Y-54136069D01*
X187035529Y-53914590D01*
X187035611Y-53911240D01*
X187037074Y-53851365D01*
X187037074Y-53851361D01*
X187037156Y-53848000D01*
X187018852Y-53625361D01*
X186964431Y-53408702D01*
X186875354Y-53203840D01*
X186818499Y-53115955D01*
X186756822Y-53020617D01*
X186756820Y-53020614D01*
X186754014Y-53016277D01*
X186603670Y-52851051D01*
X186599619Y-52847852D01*
X186599615Y-52847848D01*
X186432414Y-52715800D01*
X186432410Y-52715798D01*
X186428359Y-52712598D01*
X186423378Y-52709848D01*
X186364833Y-52677530D01*
X186232789Y-52604638D01*
X186202034Y-52593747D01*
X186137728Y-52570975D01*
X186080191Y-52529381D01*
X186054275Y-52463283D01*
X186068209Y-52393668D01*
X186117567Y-52342636D01*
X186143579Y-52331516D01*
X186166429Y-52324661D01*
X186166434Y-52324659D01*
X186171384Y-52323174D01*
X186371994Y-52224896D01*
X186553860Y-52095173D01*
X186712096Y-51937489D01*
X186762433Y-51867438D01*
X186839435Y-51760277D01*
X186842453Y-51756077D01*
X186881806Y-51676453D01*
X186939136Y-51560453D01*
X186939137Y-51560451D01*
X186941430Y-51555811D01*
X187006370Y-51342069D01*
X187035529Y-51120590D01*
X187036233Y-51091770D01*
X187037074Y-51057365D01*
X187037074Y-51057361D01*
X187037156Y-51054000D01*
X187018852Y-50831361D01*
X186964431Y-50614702D01*
X186875354Y-50409840D01*
X186809730Y-50308401D01*
X186756822Y-50226617D01*
X186756820Y-50226614D01*
X186754014Y-50222277D01*
X186736520Y-50203051D01*
X186606798Y-50060488D01*
X186575746Y-49996642D01*
X186584141Y-49926143D01*
X186629317Y-49871375D01*
X186655761Y-49857706D01*
X186762297Y-49817767D01*
X186770705Y-49814615D01*
X186887261Y-49727261D01*
X186974615Y-49610705D01*
X187025745Y-49474316D01*
X187032500Y-49412134D01*
X187032500Y-47615866D01*
X187025745Y-47553684D01*
X186974615Y-47417295D01*
X186887261Y-47300739D01*
X186770705Y-47213385D01*
X186634316Y-47162255D01*
X186629399Y-47161721D01*
X186568891Y-47127154D01*
X186536070Y-47064198D01*
X186542496Y-46993493D01*
X186570743Y-46950537D01*
X186579986Y-46941327D01*
X186658096Y-46863489D01*
X186706393Y-46796277D01*
X186785435Y-46686277D01*
X186788453Y-46682077D01*
X186793826Y-46671207D01*
X186885136Y-46486453D01*
X186885137Y-46486451D01*
X186887430Y-46481811D01*
X186920508Y-46372939D01*
X186950865Y-46273023D01*
X186950865Y-46273021D01*
X186952370Y-46268069D01*
X186981529Y-46046590D01*
X186983156Y-45980000D01*
X186964852Y-45757361D01*
X186910431Y-45540702D01*
X186821354Y-45335840D01*
X186768705Y-45254457D01*
X186702822Y-45152617D01*
X186702820Y-45152614D01*
X186700014Y-45148277D01*
X186549670Y-44983051D01*
X186545619Y-44979852D01*
X186545615Y-44979848D01*
X186378414Y-44847800D01*
X186378410Y-44847798D01*
X186374359Y-44844598D01*
X186178789Y-44736638D01*
X186173920Y-44734914D01*
X186173916Y-44734912D01*
X185973087Y-44663795D01*
X185973083Y-44663794D01*
X185968212Y-44662069D01*
X185963119Y-44661162D01*
X185963116Y-44661161D01*
X185753373Y-44623800D01*
X185753367Y-44623799D01*
X185748284Y-44622894D01*
X185674452Y-44621992D01*
X185530081Y-44620228D01*
X185530079Y-44620228D01*
X185524911Y-44620165D01*
X185304091Y-44653955D01*
X185091756Y-44723357D01*
X185061443Y-44739137D01*
X184907694Y-44819174D01*
X184893607Y-44826507D01*
X184889474Y-44829610D01*
X184889471Y-44829612D01*
X184719100Y-44957530D01*
X184714965Y-44960635D01*
X184560629Y-45122138D01*
X184557715Y-45126410D01*
X184557714Y-45126411D01*
X184471699Y-45252504D01*
X184416788Y-45297507D01*
X184367611Y-45307500D01*
X180213210Y-45307500D01*
X180145089Y-45287498D01*
X180120016Y-45266299D01*
X179993151Y-45126876D01*
X179993148Y-45126873D01*
X179989670Y-45123051D01*
X179985619Y-45119852D01*
X179985615Y-45119848D01*
X179818414Y-44987800D01*
X179818410Y-44987798D01*
X179814359Y-44984598D01*
X179805755Y-44979848D01*
X179755496Y-44952104D01*
X179618789Y-44876638D01*
X179613920Y-44874914D01*
X179613916Y-44874912D01*
X179413087Y-44803795D01*
X179413083Y-44803794D01*
X179408212Y-44802069D01*
X179403119Y-44801162D01*
X179403116Y-44801161D01*
X179193373Y-44763800D01*
X179193367Y-44763799D01*
X179188284Y-44762894D01*
X179114452Y-44761992D01*
X178970081Y-44760228D01*
X178970079Y-44760228D01*
X178964911Y-44760165D01*
X178744091Y-44793955D01*
X178531756Y-44863357D01*
X178501443Y-44879137D01*
X178350852Y-44957530D01*
X178333607Y-44966507D01*
X178329474Y-44969610D01*
X178329471Y-44969612D01*
X178159100Y-45097530D01*
X178154965Y-45100635D01*
X178113088Y-45144457D01*
X178004319Y-45258277D01*
X178000629Y-45262138D01*
X177997715Y-45266410D01*
X177997714Y-45266411D01*
X177969685Y-45307500D01*
X177874743Y-45446680D01*
X177780688Y-45649305D01*
X177720989Y-45864570D01*
X177697251Y-46086695D01*
X177697548Y-46091848D01*
X177697548Y-46091851D01*
X177709812Y-46304547D01*
X177710110Y-46309715D01*
X177711247Y-46314761D01*
X177711248Y-46314767D01*
X177714140Y-46327598D01*
X177759222Y-46527639D01*
X177818532Y-46673704D01*
X177832873Y-46709020D01*
X177843266Y-46734616D01*
X177959987Y-46925088D01*
X178106250Y-47093938D01*
X178278126Y-47236632D01*
X178300106Y-47249476D01*
X178351445Y-47279476D01*
X178400169Y-47331114D01*
X178413240Y-47400897D01*
X178386509Y-47466669D01*
X178346055Y-47500027D01*
X178333607Y-47506507D01*
X178329474Y-47509610D01*
X178329471Y-47509612D01*
X178159100Y-47637530D01*
X178154965Y-47640635D01*
X178015070Y-47787027D01*
X177953547Y-47822456D01*
X177882634Y-47818999D01*
X177824848Y-47777753D01*
X177798401Y-47710299D01*
X177794253Y-47659848D01*
X177789601Y-47603264D01*
X177735825Y-47389174D01*
X177735437Y-47387629D01*
X177735437Y-47387628D01*
X177734178Y-47382617D01*
X177658792Y-47209242D01*
X177645522Y-47178722D01*
X177645520Y-47178719D01*
X177643462Y-47173985D01*
X177544604Y-47021173D01*
X177522698Y-46987311D01*
X177522696Y-46987308D01*
X177519890Y-46982971D01*
X177366779Y-46814704D01*
X177188241Y-46673704D01*
X177150537Y-46652890D01*
X177135869Y-46644793D01*
X176989072Y-46563757D01*
X176984203Y-46562033D01*
X176984199Y-46562031D01*
X176779496Y-46489541D01*
X176779492Y-46489540D01*
X176774621Y-46487815D01*
X176769528Y-46486908D01*
X176769525Y-46486907D01*
X176555734Y-46448825D01*
X176555728Y-46448824D01*
X176550645Y-46447919D01*
X176477196Y-46447022D01*
X176328331Y-46445203D01*
X176328329Y-46445203D01*
X176323161Y-46445140D01*
X176098278Y-46479552D01*
X175882035Y-46550231D01*
X175877447Y-46552619D01*
X175877443Y-46552621D01*
X175684828Y-46652890D01*
X175680239Y-46655279D01*
X175676106Y-46658382D01*
X175676103Y-46658384D01*
X175502445Y-46788770D01*
X175498310Y-46791875D01*
X175494738Y-46795613D01*
X175363926Y-46932500D01*
X175341133Y-46956351D01*
X175338221Y-46960620D01*
X175338215Y-46960628D01*
X175274285Y-47054345D01*
X175219374Y-47099348D01*
X175148849Y-47107519D01*
X175085102Y-47076265D01*
X175064405Y-47051781D01*
X175022698Y-46987311D01*
X175022696Y-46987308D01*
X175019890Y-46982971D01*
X174866779Y-46814704D01*
X174688241Y-46673704D01*
X174650537Y-46652890D01*
X174635869Y-46644793D01*
X174489072Y-46563757D01*
X174484203Y-46562033D01*
X174484199Y-46562031D01*
X174279496Y-46489541D01*
X174279492Y-46489540D01*
X174274621Y-46487815D01*
X174269528Y-46486908D01*
X174269525Y-46486907D01*
X174055734Y-46448825D01*
X174055728Y-46448824D01*
X174050645Y-46447919D01*
X173977196Y-46447022D01*
X173828331Y-46445203D01*
X173828329Y-46445203D01*
X173823161Y-46445140D01*
X173598278Y-46479552D01*
X173382035Y-46550231D01*
X173377447Y-46552619D01*
X173377443Y-46552621D01*
X173184828Y-46652890D01*
X173180239Y-46655279D01*
X173176106Y-46658382D01*
X173176103Y-46658384D01*
X173002445Y-46788770D01*
X172998310Y-46791875D01*
X172994738Y-46795613D01*
X172863926Y-46932500D01*
X172841133Y-46956351D01*
X172712931Y-47144289D01*
X172710758Y-47148971D01*
X172710756Y-47148974D01*
X172633118Y-47316233D01*
X172617145Y-47350643D01*
X172584968Y-47466669D01*
X172560837Y-47553684D01*
X172556348Y-47569869D01*
X172555799Y-47575006D01*
X172533140Y-47787026D01*
X172532172Y-47796082D01*
X172532469Y-47801234D01*
X172532469Y-47801238D01*
X172540564Y-47941621D01*
X172545268Y-48023206D01*
X172546405Y-48028252D01*
X172546406Y-48028258D01*
X172566686Y-48118244D01*
X172595283Y-48245141D01*
X172680875Y-48455927D01*
X172799744Y-48649904D01*
X172803128Y-48653810D01*
X172803129Y-48653812D01*
X172829196Y-48683904D01*
X172948698Y-48821861D01*
X173123737Y-48967181D01*
X173128189Y-48969783D01*
X173128194Y-48969786D01*
X173285440Y-49061673D01*
X173320160Y-49081962D01*
X173532693Y-49163120D01*
X173537759Y-49164151D01*
X173537760Y-49164151D01*
X173636861Y-49184313D01*
X173755627Y-49208476D01*
X173883437Y-49213163D01*
X173977811Y-49216624D01*
X173977815Y-49216624D01*
X173982975Y-49216813D01*
X173988095Y-49216157D01*
X173988097Y-49216157D01*
X174203504Y-49188563D01*
X174203505Y-49188563D01*
X174208632Y-49187906D01*
X174291248Y-49163120D01*
X174421591Y-49124015D01*
X174421592Y-49124014D01*
X174426537Y-49122531D01*
X174630839Y-49022444D01*
X174635043Y-49019446D01*
X174635047Y-49019443D01*
X174811847Y-48893333D01*
X174811849Y-48893331D01*
X174816051Y-48890334D01*
X174977199Y-48729747D01*
X175067026Y-48604740D01*
X175123020Y-48561092D01*
X175193724Y-48554646D01*
X175256688Y-48587449D01*
X175276781Y-48612432D01*
X175285522Y-48626695D01*
X175299744Y-48649904D01*
X175303128Y-48653810D01*
X175303129Y-48653812D01*
X175329196Y-48683904D01*
X175448698Y-48821861D01*
X175623737Y-48967181D01*
X175628189Y-48969783D01*
X175628194Y-48969786D01*
X175697071Y-49010034D01*
X175745794Y-49061673D01*
X175759500Y-49118822D01*
X175759500Y-50584221D01*
X175739498Y-50652342D01*
X175722595Y-50673316D01*
X171510231Y-54885681D01*
X171503966Y-54891534D01*
X171463548Y-54926793D01*
X171459183Y-54933004D01*
X171459180Y-54933007D01*
X171429422Y-54975349D01*
X171425489Y-54980644D01*
X171388883Y-55027330D01*
X171385757Y-55034254D01*
X171382023Y-55040419D01*
X171379403Y-55045011D01*
X171375990Y-55051375D01*
X171371624Y-55057588D01*
X171368866Y-55064662D01*
X171368861Y-55064671D01*
X171350060Y-55112892D01*
X171347510Y-55118961D01*
X171323096Y-55173033D01*
X171321711Y-55180506D01*
X171319537Y-55187444D01*
X171318111Y-55192450D01*
X171316312Y-55199455D01*
X171313552Y-55206534D01*
X171312561Y-55214063D01*
X171312560Y-55214066D01*
X171305804Y-55265382D01*
X171304772Y-55271896D01*
X171293962Y-55330223D01*
X171294399Y-55337803D01*
X171294399Y-55337804D01*
X171297291Y-55387955D01*
X171297500Y-55395208D01*
X171297500Y-77270191D01*
X171277498Y-77338312D01*
X171247068Y-77371015D01*
X171204739Y-77402739D01*
X171117385Y-77519295D01*
X171066255Y-77655684D01*
X171059500Y-77717866D01*
X171059500Y-79374134D01*
X171062022Y-79397354D01*
X171049496Y-79467234D01*
X171025855Y-79500057D01*
X170858935Y-79666977D01*
X170796623Y-79701003D01*
X170747744Y-79701929D01*
X170567373Y-79669800D01*
X170567367Y-79669799D01*
X170562284Y-79668894D01*
X170488452Y-79667992D01*
X170344081Y-79666228D01*
X170344079Y-79666228D01*
X170338911Y-79666165D01*
X170118091Y-79699955D01*
X169905756Y-79769357D01*
X169875443Y-79785137D01*
X169771163Y-79839422D01*
X169707607Y-79872507D01*
X169703474Y-79875610D01*
X169703471Y-79875612D01*
X169533100Y-80003530D01*
X169528965Y-80006635D01*
X169525393Y-80010373D01*
X169395657Y-80146134D01*
X169374629Y-80168138D01*
X169277512Y-80310507D01*
X169222603Y-80355507D01*
X169173426Y-80365500D01*
X169153338Y-80365500D01*
X169085217Y-80345498D01*
X169047546Y-80307940D01*
X168976822Y-80198617D01*
X168976820Y-80198614D01*
X168974014Y-80194277D01*
X168823670Y-80029051D01*
X168819619Y-80025852D01*
X168819615Y-80025848D01*
X168652414Y-79893800D01*
X168652410Y-79893798D01*
X168648359Y-79890598D01*
X168640869Y-79886463D01*
X168604292Y-79866272D01*
X168554321Y-79815839D01*
X168542822Y-79786019D01*
X168541058Y-79778838D01*
X168540145Y-79771292D01*
X168537459Y-79764183D01*
X168535725Y-79757125D01*
X168534348Y-79752092D01*
X168532260Y-79745175D01*
X168530954Y-79737693D01*
X168507095Y-79683340D01*
X168504607Y-79677244D01*
X168486320Y-79628849D01*
X168483636Y-79621746D01*
X168479335Y-79615487D01*
X168475995Y-79609099D01*
X168473400Y-79604437D01*
X168469748Y-79598262D01*
X168466696Y-79591309D01*
X168462077Y-79585289D01*
X168462072Y-79585281D01*
X168430564Y-79544219D01*
X168426687Y-79538883D01*
X168397389Y-79496254D01*
X168397387Y-79496252D01*
X168393087Y-79489995D01*
X168367541Y-79467234D01*
X168349891Y-79451509D01*
X168344615Y-79446527D01*
X166996319Y-78098231D01*
X166990464Y-78091964D01*
X166976360Y-78075796D01*
X166946653Y-78011314D01*
X166956523Y-77941007D01*
X166982215Y-77903873D01*
X169357769Y-75528319D01*
X169364035Y-75522465D01*
X169387587Y-75501919D01*
X169404452Y-75487207D01*
X169408817Y-75480996D01*
X169408820Y-75480993D01*
X169438578Y-75438651D01*
X169442511Y-75433356D01*
X169474429Y-75392649D01*
X169479117Y-75386670D01*
X169482243Y-75379746D01*
X169485977Y-75373581D01*
X169488597Y-75368989D01*
X169492010Y-75362625D01*
X169496376Y-75356412D01*
X169499134Y-75349338D01*
X169499139Y-75349329D01*
X169517940Y-75301108D01*
X169520494Y-75295030D01*
X169525189Y-75284632D01*
X169544904Y-75240967D01*
X169546289Y-75233494D01*
X169548463Y-75226556D01*
X169549892Y-75221541D01*
X169551690Y-75214541D01*
X169554448Y-75207466D01*
X169555439Y-75199939D01*
X169555440Y-75199935D01*
X169562194Y-75148630D01*
X169563226Y-75142114D01*
X169572654Y-75091245D01*
X169574038Y-75083778D01*
X169572387Y-75055137D01*
X169570709Y-75026046D01*
X169570500Y-75018793D01*
X169570500Y-53425778D01*
X169590502Y-53357657D01*
X169607405Y-53336683D01*
X171877769Y-51066319D01*
X171884035Y-51060465D01*
X171918727Y-51030201D01*
X171924452Y-51025207D01*
X171928817Y-51018996D01*
X171928820Y-51018993D01*
X171958578Y-50976651D01*
X171962511Y-50971356D01*
X171994429Y-50930649D01*
X171999117Y-50924670D01*
X172002243Y-50917746D01*
X172005977Y-50911581D01*
X172008597Y-50906989D01*
X172012010Y-50900625D01*
X172016376Y-50894412D01*
X172019134Y-50887338D01*
X172019139Y-50887329D01*
X172037940Y-50839108D01*
X172040494Y-50833030D01*
X172043514Y-50826342D01*
X172064904Y-50778967D01*
X172066289Y-50771494D01*
X172068463Y-50764556D01*
X172069889Y-50759550D01*
X172071688Y-50752545D01*
X172074448Y-50745466D01*
X172082196Y-50686618D01*
X172083228Y-50680104D01*
X172092654Y-50629245D01*
X172092654Y-50629244D01*
X172094038Y-50621777D01*
X172090709Y-50564044D01*
X172090500Y-50556792D01*
X172090500Y-44116112D01*
X172110502Y-44047991D01*
X172143332Y-44013533D01*
X172311847Y-43893333D01*
X172311849Y-43893331D01*
X172316051Y-43890334D01*
X172477199Y-43729747D01*
X172531764Y-43653812D01*
X172606938Y-43549198D01*
X172606942Y-43549192D01*
X172609956Y-43544997D01*
X172710755Y-43341046D01*
X172776890Y-43123370D01*
X172790077Y-43023206D01*
X172806148Y-42901136D01*
X172806148Y-42901132D01*
X172806585Y-42897815D01*
X172807032Y-42879507D01*
X172808160Y-42833365D01*
X172808160Y-42833361D01*
X172808242Y-42830000D01*
X172789601Y-42603264D01*
X172736976Y-42393757D01*
X172735437Y-42387629D01*
X172735437Y-42387628D01*
X172734178Y-42382617D01*
X172664850Y-42223173D01*
X172645522Y-42178722D01*
X172645520Y-42178719D01*
X172643462Y-42173985D01*
X172542060Y-42017240D01*
X172522698Y-41987311D01*
X172522696Y-41987308D01*
X172519890Y-41982971D01*
X172366779Y-41814704D01*
X172188241Y-41673704D01*
X172150537Y-41652890D01*
X172060662Y-41603277D01*
X171989072Y-41563757D01*
X171984203Y-41562033D01*
X171984199Y-41562031D01*
X171779496Y-41489541D01*
X171779492Y-41489540D01*
X171774621Y-41487815D01*
X171769528Y-41486908D01*
X171769525Y-41486907D01*
X171555734Y-41448825D01*
X171555728Y-41448824D01*
X171550645Y-41447919D01*
X171477196Y-41447022D01*
X171328331Y-41445203D01*
X171328329Y-41445203D01*
X171323161Y-41445140D01*
X171098278Y-41479552D01*
X170882035Y-41550231D01*
X170877447Y-41552619D01*
X170877443Y-41552621D01*
X170787472Y-41599457D01*
X170680239Y-41655279D01*
X170676106Y-41658382D01*
X170676103Y-41658384D01*
X170505479Y-41786492D01*
X170498310Y-41791875D01*
X170494738Y-41795613D01*
X170376546Y-41919294D01*
X170341133Y-41956351D01*
X170212931Y-42144289D01*
X170210758Y-42148971D01*
X170210756Y-42148974D01*
X170138373Y-42304912D01*
X170117145Y-42350643D01*
X170056348Y-42569869D01*
X170055799Y-42575006D01*
X170037571Y-42745568D01*
X170032172Y-42796082D01*
X170032469Y-42801234D01*
X170032469Y-42801238D01*
X170043311Y-42989272D01*
X170045268Y-43023206D01*
X170046405Y-43028252D01*
X170046406Y-43028258D01*
X170068955Y-43128314D01*
X170095283Y-43245141D01*
X170180875Y-43455927D01*
X170299744Y-43649904D01*
X170448698Y-43821861D01*
X170623737Y-43967181D01*
X170628190Y-43969783D01*
X170628194Y-43969786D01*
X170707071Y-44015878D01*
X170755794Y-44067517D01*
X170769500Y-44124666D01*
X170769500Y-50254222D01*
X170749498Y-50322343D01*
X170732595Y-50343317D01*
X168462231Y-52613681D01*
X168455966Y-52619534D01*
X168415548Y-52654793D01*
X168411183Y-52661004D01*
X168411180Y-52661007D01*
X168381422Y-52703349D01*
X168377489Y-52708644D01*
X168340883Y-52755330D01*
X168337757Y-52762254D01*
X168334023Y-52768419D01*
X168331403Y-52773011D01*
X168327990Y-52779375D01*
X168323624Y-52785588D01*
X168320866Y-52792662D01*
X168320861Y-52792671D01*
X168302060Y-52840892D01*
X168299510Y-52846961D01*
X168275096Y-52901033D01*
X168273711Y-52908506D01*
X168271537Y-52915444D01*
X168270111Y-52920450D01*
X168268312Y-52927455D01*
X168265552Y-52934534D01*
X168264561Y-52942063D01*
X168264560Y-52942066D01*
X168257804Y-52993382D01*
X168256772Y-52999896D01*
X168245962Y-53058223D01*
X168246399Y-53065803D01*
X168246399Y-53065804D01*
X168249291Y-53115955D01*
X168249500Y-53123208D01*
X168249500Y-74716222D01*
X168229498Y-74784343D01*
X168212595Y-74805317D01*
X165169317Y-77848595D01*
X165107005Y-77882621D01*
X165080222Y-77885500D01*
X163312572Y-77885500D01*
X163244451Y-77865498D01*
X163209359Y-77831770D01*
X163184521Y-77796297D01*
X163127319Y-77714604D01*
X162967896Y-77555181D01*
X162783211Y-77425864D01*
X162778233Y-77423543D01*
X162778230Y-77423541D01*
X162630589Y-77354695D01*
X162577304Y-77307778D01*
X162557843Y-77239500D01*
X162578385Y-77171540D01*
X162632408Y-77125475D01*
X162683839Y-77114500D01*
X164310753Y-77114500D01*
X164319323Y-77114792D01*
X164365245Y-77117923D01*
X164365249Y-77117923D01*
X164372821Y-77118439D01*
X164380298Y-77117134D01*
X164380299Y-77117134D01*
X164431268Y-77108238D01*
X164437795Y-77107275D01*
X164489164Y-77101059D01*
X164489173Y-77101057D01*
X164496708Y-77100145D01*
X164503814Y-77097460D01*
X164510819Y-77095739D01*
X164515918Y-77094345D01*
X164522827Y-77092259D01*
X164530308Y-77090953D01*
X164584640Y-77067103D01*
X164590744Y-77064612D01*
X164639149Y-77046321D01*
X164639150Y-77046320D01*
X164646254Y-77043636D01*
X164652517Y-77039332D01*
X164658963Y-77035961D01*
X164663522Y-77033423D01*
X164669732Y-77029750D01*
X164676691Y-77026696D01*
X164723797Y-76990551D01*
X164729097Y-76986700D01*
X164778005Y-76953087D01*
X164816491Y-76909891D01*
X164821473Y-76904615D01*
X166867769Y-74858319D01*
X166874035Y-74852465D01*
X166889467Y-74839003D01*
X166914452Y-74817207D01*
X166918817Y-74810996D01*
X166918820Y-74810993D01*
X166948578Y-74768651D01*
X166952511Y-74763356D01*
X166984429Y-74722649D01*
X166989117Y-74716670D01*
X166992243Y-74709746D01*
X166995977Y-74703581D01*
X166998597Y-74698989D01*
X167002010Y-74692625D01*
X167006376Y-74686412D01*
X167009134Y-74679338D01*
X167009139Y-74679329D01*
X167027940Y-74631108D01*
X167030494Y-74625030D01*
X167054904Y-74570967D01*
X167056288Y-74563499D01*
X167058450Y-74556601D01*
X167059902Y-74551502D01*
X167061688Y-74544545D01*
X167064448Y-74537466D01*
X167072193Y-74478638D01*
X167073225Y-74472123D01*
X167082655Y-74421244D01*
X167084039Y-74413777D01*
X167080709Y-74356026D01*
X167080500Y-74348775D01*
X167080500Y-49123245D01*
X167100502Y-49055124D01*
X167133332Y-49020666D01*
X167311847Y-48893333D01*
X167311849Y-48893331D01*
X167316051Y-48890334D01*
X167477199Y-48729747D01*
X167567026Y-48604740D01*
X167623020Y-48561092D01*
X167693724Y-48554646D01*
X167756688Y-48587449D01*
X167776781Y-48612432D01*
X167785522Y-48626695D01*
X167799744Y-48649904D01*
X167803128Y-48653810D01*
X167803129Y-48653812D01*
X167829196Y-48683904D01*
X167948698Y-48821861D01*
X168123737Y-48967181D01*
X168128189Y-48969783D01*
X168128194Y-48969786D01*
X168285440Y-49061673D01*
X168320160Y-49081962D01*
X168532693Y-49163120D01*
X168537759Y-49164151D01*
X168537760Y-49164151D01*
X168636861Y-49184313D01*
X168755627Y-49208476D01*
X168883437Y-49213163D01*
X168977811Y-49216624D01*
X168977815Y-49216624D01*
X168982975Y-49216813D01*
X168988095Y-49216157D01*
X168988097Y-49216157D01*
X169203504Y-49188563D01*
X169203505Y-49188563D01*
X169208632Y-49187906D01*
X169291248Y-49163120D01*
X169421591Y-49124015D01*
X169421592Y-49124014D01*
X169426537Y-49122531D01*
X169630839Y-49022444D01*
X169635043Y-49019446D01*
X169635047Y-49019443D01*
X169811847Y-48893333D01*
X169811849Y-48893331D01*
X169816051Y-48890334D01*
X169977199Y-48729747D01*
X170031764Y-48653812D01*
X170106938Y-48549198D01*
X170106942Y-48549192D01*
X170109956Y-48544997D01*
X170168743Y-48426050D01*
X170208461Y-48345688D01*
X170208462Y-48345686D01*
X170210755Y-48341046D01*
X170276890Y-48123370D01*
X170290077Y-48023206D01*
X170306148Y-47901136D01*
X170306148Y-47901132D01*
X170306585Y-47897815D01*
X170308242Y-47830000D01*
X170289601Y-47603264D01*
X170235825Y-47389174D01*
X170235437Y-47387629D01*
X170235437Y-47387628D01*
X170234178Y-47382617D01*
X170158792Y-47209242D01*
X170145522Y-47178722D01*
X170145520Y-47178719D01*
X170143462Y-47173985D01*
X170044604Y-47021173D01*
X170022698Y-46987311D01*
X170022696Y-46987308D01*
X170019890Y-46982971D01*
X169866779Y-46814704D01*
X169688241Y-46673704D01*
X169650537Y-46652890D01*
X169635869Y-46644793D01*
X169489072Y-46563757D01*
X169484203Y-46562033D01*
X169484199Y-46562031D01*
X169279496Y-46489541D01*
X169279492Y-46489540D01*
X169274621Y-46487815D01*
X169269528Y-46486908D01*
X169269525Y-46486907D01*
X169055734Y-46448825D01*
X169055728Y-46448824D01*
X169050645Y-46447919D01*
X168977196Y-46447022D01*
X168828331Y-46445203D01*
X168828329Y-46445203D01*
X168823161Y-46445140D01*
X168598278Y-46479552D01*
X168382035Y-46550231D01*
X168377447Y-46552619D01*
X168377443Y-46552621D01*
X168184828Y-46652890D01*
X168180239Y-46655279D01*
X168176106Y-46658382D01*
X168176103Y-46658384D01*
X168002445Y-46788770D01*
X167998310Y-46791875D01*
X167994738Y-46795613D01*
X167863926Y-46932500D01*
X167841133Y-46956351D01*
X167838221Y-46960620D01*
X167838215Y-46960628D01*
X167774285Y-47054345D01*
X167719374Y-47099348D01*
X167648849Y-47107519D01*
X167585102Y-47076265D01*
X167564405Y-47051781D01*
X167522698Y-46987311D01*
X167522696Y-46987308D01*
X167519890Y-46982971D01*
X167366779Y-46814704D01*
X167188241Y-46673704D01*
X167150537Y-46652890D01*
X167135869Y-46644793D01*
X166989072Y-46563757D01*
X166984203Y-46562033D01*
X166984199Y-46562031D01*
X166779496Y-46489541D01*
X166779492Y-46489540D01*
X166774621Y-46487815D01*
X166769528Y-46486908D01*
X166769525Y-46486907D01*
X166555734Y-46448825D01*
X166555728Y-46448824D01*
X166550645Y-46447919D01*
X166477196Y-46447022D01*
X166328331Y-46445203D01*
X166328329Y-46445203D01*
X166323161Y-46445140D01*
X166098278Y-46479552D01*
X165882035Y-46550231D01*
X165877447Y-46552619D01*
X165877443Y-46552621D01*
X165684828Y-46652890D01*
X165680239Y-46655279D01*
X165676106Y-46658382D01*
X165676103Y-46658384D01*
X165502445Y-46788770D01*
X165498310Y-46791875D01*
X165494738Y-46795613D01*
X165363926Y-46932500D01*
X165341133Y-46956351D01*
X165212931Y-47144289D01*
X165210758Y-47148971D01*
X165210756Y-47148974D01*
X165133118Y-47316233D01*
X165117145Y-47350643D01*
X165084968Y-47466669D01*
X165060837Y-47553684D01*
X165056348Y-47569869D01*
X165055799Y-47575006D01*
X165055797Y-47575019D01*
X165052068Y-47609906D01*
X165024940Y-47675515D01*
X164966648Y-47716043D01*
X164895698Y-47718622D01*
X164833589Y-47681316D01*
X164793152Y-47636876D01*
X164793142Y-47636867D01*
X164789670Y-47633051D01*
X164785619Y-47629852D01*
X164785615Y-47629848D01*
X164618414Y-47497800D01*
X164618410Y-47497798D01*
X164614359Y-47494598D01*
X164573053Y-47471796D01*
X164523084Y-47421364D01*
X164508312Y-47351921D01*
X164533428Y-47285516D01*
X164560780Y-47258909D01*
X164629023Y-47210232D01*
X164739860Y-47131173D01*
X164771797Y-47099348D01*
X164821209Y-47050107D01*
X164898096Y-46973489D01*
X164927550Y-46932500D01*
X165025435Y-46796277D01*
X165028453Y-46792077D01*
X165080743Y-46686277D01*
X165125136Y-46596453D01*
X165125137Y-46596451D01*
X165127430Y-46591811D01*
X165192370Y-46378069D01*
X165221529Y-46156590D01*
X165223156Y-46090000D01*
X165204852Y-45867361D01*
X165150431Y-45650702D01*
X165061354Y-45445840D01*
X164971858Y-45307500D01*
X164942822Y-45262617D01*
X164942820Y-45262614D01*
X164940014Y-45258277D01*
X164789670Y-45093051D01*
X164785619Y-45089852D01*
X164785615Y-45089848D01*
X164618414Y-44957800D01*
X164618410Y-44957798D01*
X164614359Y-44954598D01*
X164573053Y-44931796D01*
X164523084Y-44881364D01*
X164508312Y-44811921D01*
X164533428Y-44745516D01*
X164560780Y-44718909D01*
X164651842Y-44653955D01*
X164739860Y-44591173D01*
X164898096Y-44433489D01*
X165028453Y-44252077D01*
X165113359Y-44080283D01*
X165125136Y-44056453D01*
X165125137Y-44056451D01*
X165127430Y-44051811D01*
X165159900Y-43944940D01*
X165190865Y-43843023D01*
X165190865Y-43843021D01*
X165192370Y-43838069D01*
X165221529Y-43616590D01*
X165223156Y-43550000D01*
X165204852Y-43327361D01*
X165150431Y-43110702D01*
X165061354Y-42905840D01*
X164987028Y-42790950D01*
X164942822Y-42722617D01*
X164942820Y-42722614D01*
X164940014Y-42718277D01*
X164789670Y-42553051D01*
X164785619Y-42549852D01*
X164785615Y-42549848D01*
X164618414Y-42417800D01*
X164618410Y-42417798D01*
X164614359Y-42414598D01*
X164600326Y-42406851D01*
X164556425Y-42382617D01*
X164418789Y-42306638D01*
X164413920Y-42304914D01*
X164413916Y-42304912D01*
X164213087Y-42233795D01*
X164213083Y-42233794D01*
X164208212Y-42232069D01*
X164203119Y-42231162D01*
X164203116Y-42231161D01*
X163993373Y-42193800D01*
X163993367Y-42193799D01*
X163988284Y-42192894D01*
X163914452Y-42191992D01*
X163770081Y-42190228D01*
X163770079Y-42190228D01*
X163764911Y-42190165D01*
X163544091Y-42223955D01*
X163331756Y-42293357D01*
X163305750Y-42306895D01*
X163138890Y-42393757D01*
X163133607Y-42396507D01*
X163129474Y-42399610D01*
X163129471Y-42399612D01*
X163105247Y-42417800D01*
X162954965Y-42530635D01*
X162800629Y-42692138D01*
X162703512Y-42834507D01*
X162648603Y-42879507D01*
X162599426Y-42889500D01*
X161001774Y-42889500D01*
X160933653Y-42869498D01*
X160887160Y-42815842D01*
X160877056Y-42745568D01*
X160879833Y-42733085D01*
X160879774Y-42733072D01*
X160880867Y-42728015D01*
X160882370Y-42723069D01*
X160911529Y-42501590D01*
X160913156Y-42435000D01*
X160894852Y-42212361D01*
X160840431Y-41995702D01*
X160751354Y-41790840D01*
X160711906Y-41729862D01*
X160632822Y-41607617D01*
X160632820Y-41607614D01*
X160630014Y-41603277D01*
X160479670Y-41438051D01*
X160475619Y-41434852D01*
X160475615Y-41434848D01*
X160308414Y-41302800D01*
X160308410Y-41302798D01*
X160304359Y-41299598D01*
X160108789Y-41191638D01*
X160103920Y-41189914D01*
X160103916Y-41189912D01*
X159903087Y-41118795D01*
X159903083Y-41118794D01*
X159898212Y-41117069D01*
X159893119Y-41116162D01*
X159893116Y-41116161D01*
X159683373Y-41078800D01*
X159683367Y-41078799D01*
X159678284Y-41077894D01*
X159604452Y-41076992D01*
X159460081Y-41075228D01*
X159460079Y-41075228D01*
X159454911Y-41075165D01*
X159234091Y-41108955D01*
X159021756Y-41178357D01*
X158823607Y-41281507D01*
X158819474Y-41284610D01*
X158819471Y-41284612D01*
X158795247Y-41302800D01*
X158644965Y-41415635D01*
X158616769Y-41445140D01*
X158505066Y-41562031D01*
X158490629Y-41577138D01*
X158487715Y-41581410D01*
X158487714Y-41581411D01*
X158438954Y-41652890D01*
X158364743Y-41761680D01*
X158324215Y-41848990D01*
X158276115Y-41952614D01*
X158270688Y-41964305D01*
X158210989Y-42179570D01*
X158187251Y-42401695D01*
X158187548Y-42406848D01*
X158187548Y-42406851D01*
X158193011Y-42501590D01*
X158200110Y-42624715D01*
X158201247Y-42629761D01*
X158201248Y-42629767D01*
X158221120Y-42717942D01*
X158249222Y-42842639D01*
X158333266Y-43049616D01*
X158449987Y-43240088D01*
X158596250Y-43408938D01*
X158600230Y-43412242D01*
X158604981Y-43416187D01*
X158644616Y-43475090D01*
X158646113Y-43546071D01*
X158608997Y-43606593D01*
X158568724Y-43631112D01*
X158453295Y-43674385D01*
X158336739Y-43761739D01*
X158249385Y-43878295D01*
X158198255Y-44014684D01*
X158191500Y-44076866D01*
X158191500Y-45873134D01*
X158198255Y-45935316D01*
X158249385Y-46071705D01*
X158336739Y-46188261D01*
X158453295Y-46275615D01*
X158589684Y-46326745D01*
X158651866Y-46333500D01*
X160448134Y-46333500D01*
X160510316Y-46326745D01*
X160646705Y-46275615D01*
X160763261Y-46188261D01*
X160850615Y-46071705D01*
X160901745Y-45935316D01*
X160908500Y-45873134D01*
X160908500Y-45761500D01*
X160928502Y-45693379D01*
X160982158Y-45646886D01*
X161034500Y-45635500D01*
X162410498Y-45635500D01*
X162478619Y-45655502D01*
X162525112Y-45709158D01*
X162535216Y-45779432D01*
X162531915Y-45795172D01*
X162520989Y-45834570D01*
X162497251Y-46056695D01*
X162497548Y-46061848D01*
X162497548Y-46061851D01*
X162509563Y-46270229D01*
X162510110Y-46279715D01*
X162511247Y-46284761D01*
X162511248Y-46284767D01*
X162520901Y-46327598D01*
X162559222Y-46497639D01*
X162643266Y-46704616D01*
X162661650Y-46734616D01*
X162742859Y-46867137D01*
X162759987Y-46895088D01*
X162906250Y-47063938D01*
X163078126Y-47206632D01*
X163123809Y-47233327D01*
X163151445Y-47249476D01*
X163200169Y-47301114D01*
X163213240Y-47370897D01*
X163186509Y-47436669D01*
X163146055Y-47470027D01*
X163133607Y-47476507D01*
X163129474Y-47479610D01*
X163129471Y-47479612D01*
X162964782Y-47603264D01*
X162954965Y-47610635D01*
X162800629Y-47772138D01*
X162797715Y-47776410D01*
X162797714Y-47776411D01*
X162723978Y-47884504D01*
X162669067Y-47929507D01*
X162619890Y-47939500D01*
X161024500Y-47939500D01*
X160956379Y-47919498D01*
X160909886Y-47865842D01*
X160898500Y-47813500D01*
X160898500Y-47721866D01*
X160891745Y-47659684D01*
X160840615Y-47523295D01*
X160753261Y-47406739D01*
X160636705Y-47319385D01*
X160500316Y-47268255D01*
X160438134Y-47261500D01*
X158641866Y-47261500D01*
X158579684Y-47268255D01*
X158443295Y-47319385D01*
X158326739Y-47406739D01*
X158239385Y-47523295D01*
X158188255Y-47659684D01*
X158181500Y-47721866D01*
X158181500Y-49518134D01*
X158188255Y-49580316D01*
X158239385Y-49716705D01*
X158326739Y-49833261D01*
X158443295Y-49920615D01*
X158451704Y-49923767D01*
X158451705Y-49923768D01*
X158560451Y-49964535D01*
X158617216Y-50007176D01*
X158641916Y-50073738D01*
X158626709Y-50143087D01*
X158607316Y-50169568D01*
X158480629Y-50302138D01*
X158477715Y-50306410D01*
X158477714Y-50306411D01*
X158450428Y-50346411D01*
X158354743Y-50486680D01*
X158322198Y-50556792D01*
X158277846Y-50652342D01*
X158260688Y-50689305D01*
X158200989Y-50904570D01*
X158177251Y-51126695D01*
X158177548Y-51131848D01*
X158177548Y-51131851D01*
X158187322Y-51301356D01*
X158190110Y-51349715D01*
X158191247Y-51354761D01*
X158191248Y-51354767D01*
X158213373Y-51452939D01*
X158239222Y-51567639D01*
X158300673Y-51718976D01*
X158317444Y-51760277D01*
X158323266Y-51774616D01*
X158439987Y-51965088D01*
X158586250Y-52133938D01*
X158758126Y-52276632D01*
X158769602Y-52283338D01*
X158831445Y-52319476D01*
X158880169Y-52371114D01*
X158893240Y-52440897D01*
X158866509Y-52506669D01*
X158826055Y-52540027D01*
X158813607Y-52546507D01*
X158809474Y-52549610D01*
X158809471Y-52549612D01*
X158669643Y-52654598D01*
X158634965Y-52680635D01*
X158609894Y-52706870D01*
X158530599Y-52789848D01*
X158480629Y-52842138D01*
X158477715Y-52846410D01*
X158477714Y-52846411D01*
X158427208Y-52920450D01*
X158354743Y-53026680D01*
X158322640Y-53095840D01*
X158270304Y-53208590D01*
X158260688Y-53229305D01*
X158200989Y-53444570D01*
X158177251Y-53666695D01*
X158177548Y-53671848D01*
X158177548Y-53671851D01*
X158183394Y-53773240D01*
X158190110Y-53889715D01*
X158191247Y-53894761D01*
X158191248Y-53894767D01*
X158200263Y-53934767D01*
X158239222Y-54107639D01*
X158323266Y-54314616D01*
X158347678Y-54354453D01*
X158406536Y-54450500D01*
X158439987Y-54505088D01*
X158586250Y-54673938D01*
X158758126Y-54816632D01*
X158951000Y-54929338D01*
X158955825Y-54931180D01*
X158955826Y-54931181D01*
X159028439Y-54958909D01*
X159159692Y-55009030D01*
X159164760Y-55010061D01*
X159164763Y-55010062D01*
X159249639Y-55027330D01*
X159378597Y-55053567D01*
X159383772Y-55053757D01*
X159383774Y-55053757D01*
X159596673Y-55061564D01*
X159596677Y-55061564D01*
X159601837Y-55061753D01*
X159606957Y-55061097D01*
X159606959Y-55061097D01*
X159818288Y-55034025D01*
X159818289Y-55034025D01*
X159823416Y-55033368D01*
X159843542Y-55027330D01*
X160032429Y-54970661D01*
X160032434Y-54970659D01*
X160037384Y-54969174D01*
X160237994Y-54870896D01*
X160419860Y-54741173D01*
X160447191Y-54713938D01*
X160568061Y-54593489D01*
X160578096Y-54583489D01*
X160686252Y-54432973D01*
X160742246Y-54389326D01*
X160788574Y-54380500D01*
X162606948Y-54380500D01*
X162675069Y-54400502D01*
X162714381Y-54440665D01*
X162759987Y-54515088D01*
X162763376Y-54519001D01*
X162763378Y-54519003D01*
X162793934Y-54554277D01*
X162906250Y-54683938D01*
X163078126Y-54826632D01*
X163085897Y-54831173D01*
X163151445Y-54869476D01*
X163200169Y-54921114D01*
X163213240Y-54990897D01*
X163186509Y-55056669D01*
X163146055Y-55090027D01*
X163133607Y-55096507D01*
X163129474Y-55099610D01*
X163129471Y-55099612D01*
X162959100Y-55227530D01*
X162954965Y-55230635D01*
X162951393Y-55234373D01*
X162804729Y-55387848D01*
X162800629Y-55392138D01*
X162797715Y-55396410D01*
X162797714Y-55396411D01*
X162730832Y-55494457D01*
X162674743Y-55576680D01*
X162627716Y-55677992D01*
X162599169Y-55739492D01*
X162580688Y-55779305D01*
X162520989Y-55994570D01*
X162497251Y-56216695D01*
X162497548Y-56221848D01*
X162497548Y-56221851D01*
X162503011Y-56316590D01*
X162510110Y-56439715D01*
X162514862Y-56460800D01*
X162510327Y-56531648D01*
X162468206Y-56588801D01*
X162401874Y-56614108D01*
X162391945Y-56614500D01*
X160789338Y-56614500D01*
X160721217Y-56594498D01*
X160683546Y-56556940D01*
X160612822Y-56447617D01*
X160612820Y-56447614D01*
X160610014Y-56443277D01*
X160459670Y-56278051D01*
X160455619Y-56274852D01*
X160455615Y-56274848D01*
X160288414Y-56142800D01*
X160288410Y-56142798D01*
X160284359Y-56139598D01*
X160088789Y-56031638D01*
X160083920Y-56029914D01*
X160083916Y-56029912D01*
X159883087Y-55958795D01*
X159883083Y-55958794D01*
X159878212Y-55957069D01*
X159873119Y-55956162D01*
X159873116Y-55956161D01*
X159663373Y-55918800D01*
X159663367Y-55918799D01*
X159658284Y-55917894D01*
X159584452Y-55916992D01*
X159440081Y-55915228D01*
X159440079Y-55915228D01*
X159434911Y-55915165D01*
X159214091Y-55948955D01*
X159001756Y-56018357D01*
X158803607Y-56121507D01*
X158799474Y-56124610D01*
X158799471Y-56124612D01*
X158629100Y-56252530D01*
X158624965Y-56255635D01*
X158470629Y-56417138D01*
X158467715Y-56421410D01*
X158467714Y-56421411D01*
X158440847Y-56460797D01*
X158344743Y-56601680D01*
X158250688Y-56804305D01*
X158190989Y-57019570D01*
X158167251Y-57241695D01*
X158167548Y-57246848D01*
X158167548Y-57246851D01*
X158174889Y-57374171D01*
X158180110Y-57464715D01*
X158181247Y-57469761D01*
X158181248Y-57469767D01*
X158189694Y-57507242D01*
X158229222Y-57682639D01*
X158313266Y-57889616D01*
X158353641Y-57955502D01*
X158423890Y-58070138D01*
X158429987Y-58080088D01*
X158576250Y-58248938D01*
X158580230Y-58252242D01*
X158584981Y-58256187D01*
X158624616Y-58315090D01*
X158626113Y-58386071D01*
X158588997Y-58446593D01*
X158548725Y-58471112D01*
X158501804Y-58488702D01*
X158433295Y-58514385D01*
X158316739Y-58601739D01*
X158229385Y-58718295D01*
X158178255Y-58854684D01*
X158171500Y-58916866D01*
X158171500Y-60713134D01*
X158178255Y-60775316D01*
X158229385Y-60911705D01*
X158316739Y-61028261D01*
X158433295Y-61115615D01*
X158569684Y-61166745D01*
X158631866Y-61173500D01*
X160428134Y-61173500D01*
X160490316Y-61166745D01*
X160626705Y-61115615D01*
X160743261Y-61028261D01*
X160830615Y-60911705D01*
X160881745Y-60775316D01*
X160888500Y-60713134D01*
X160888500Y-60601500D01*
X160908502Y-60533379D01*
X160962158Y-60486886D01*
X161014500Y-60475500D01*
X162561665Y-60475500D01*
X162629786Y-60495502D01*
X162676279Y-60549158D01*
X162686383Y-60619432D01*
X162673788Y-60656237D01*
X162674743Y-60656680D01*
X162660818Y-60686680D01*
X162580688Y-60859305D01*
X162520989Y-61074570D01*
X162497251Y-61296695D01*
X162497548Y-61301848D01*
X162497548Y-61301851D01*
X162504932Y-61429908D01*
X162510110Y-61519715D01*
X162511247Y-61524761D01*
X162511248Y-61524767D01*
X162518009Y-61554767D01*
X162559222Y-61737639D01*
X162643266Y-61944616D01*
X162759987Y-62135088D01*
X162906250Y-62303938D01*
X163078126Y-62446632D01*
X163123809Y-62473327D01*
X163151445Y-62489476D01*
X163200169Y-62541114D01*
X163213240Y-62610897D01*
X163186509Y-62676669D01*
X163146055Y-62710027D01*
X163133607Y-62716507D01*
X163129474Y-62719610D01*
X163129471Y-62719612D01*
X162959100Y-62847530D01*
X162954965Y-62850635D01*
X162800629Y-63012138D01*
X162797715Y-63016410D01*
X162797714Y-63016411D01*
X162759373Y-63072617D01*
X162674743Y-63196680D01*
X162580688Y-63399305D01*
X162520989Y-63614570D01*
X162497251Y-63836695D01*
X162497548Y-63841848D01*
X162497548Y-63841851D01*
X162503011Y-63936590D01*
X162510110Y-64059715D01*
X162511247Y-64064761D01*
X162511248Y-64064767D01*
X162518009Y-64094767D01*
X162559222Y-64277639D01*
X162643266Y-64484616D01*
X162661650Y-64514616D01*
X162721924Y-64612974D01*
X162759987Y-64675088D01*
X162906250Y-64843938D01*
X163078126Y-64986632D01*
X163123809Y-65013327D01*
X163151445Y-65029476D01*
X163200169Y-65081114D01*
X163213240Y-65150897D01*
X163186509Y-65216669D01*
X163146055Y-65250027D01*
X163133607Y-65256507D01*
X163129474Y-65259610D01*
X163129471Y-65259612D01*
X162980180Y-65371703D01*
X162954965Y-65390635D01*
X162800629Y-65552138D01*
X162797715Y-65556410D01*
X162797714Y-65556411D01*
X162764939Y-65604457D01*
X162674743Y-65736680D01*
X162674703Y-65736766D01*
X162624723Y-65785089D01*
X162566210Y-65799500D01*
X160996500Y-65799500D01*
X160928379Y-65779498D01*
X160881886Y-65725842D01*
X160870500Y-65673500D01*
X160870500Y-65561866D01*
X160863745Y-65499684D01*
X160812615Y-65363295D01*
X160725261Y-65246739D01*
X160608705Y-65159385D01*
X160472316Y-65108255D01*
X160410134Y-65101500D01*
X158613866Y-65101500D01*
X158551684Y-65108255D01*
X158415295Y-65159385D01*
X158298739Y-65246739D01*
X158211385Y-65363295D01*
X158160255Y-65499684D01*
X158153500Y-65561866D01*
X158153500Y-67358134D01*
X158160255Y-67420316D01*
X158211385Y-67556705D01*
X158298739Y-67673261D01*
X158415295Y-67760615D01*
X158423704Y-67763767D01*
X158423705Y-67763768D01*
X158532451Y-67804535D01*
X158589216Y-67847176D01*
X158613916Y-67913738D01*
X158598709Y-67983087D01*
X158579316Y-68009568D01*
X158466442Y-68127684D01*
X158452629Y-68142138D01*
X158326743Y-68326680D01*
X158318196Y-68345093D01*
X158241972Y-68509305D01*
X158232688Y-68529305D01*
X158172989Y-68744570D01*
X158149251Y-68966695D01*
X158149548Y-68971848D01*
X158149548Y-68971851D01*
X158152128Y-69016590D01*
X158162110Y-69189715D01*
X158163247Y-69194761D01*
X158163248Y-69194767D01*
X158187304Y-69301508D01*
X158211222Y-69407639D01*
X158295266Y-69614616D01*
X158297965Y-69619020D01*
X158405333Y-69794229D01*
X158411987Y-69805088D01*
X158558250Y-69973938D01*
X158702055Y-70093327D01*
X158721507Y-70109476D01*
X158730126Y-70116632D01*
X158754011Y-70130589D01*
X158803445Y-70159476D01*
X158852169Y-70211114D01*
X158865240Y-70280897D01*
X158838509Y-70346669D01*
X158798055Y-70380027D01*
X158785607Y-70386507D01*
X158781474Y-70389610D01*
X158781471Y-70389612D01*
X158628624Y-70504373D01*
X158606965Y-70520635D01*
X158585544Y-70543051D01*
X158475313Y-70658401D01*
X158452629Y-70682138D01*
X158326743Y-70866680D01*
X158287881Y-70950401D01*
X158241972Y-71049305D01*
X158232688Y-71069305D01*
X158172989Y-71284570D01*
X158149251Y-71506695D01*
X158149548Y-71511848D01*
X158149548Y-71511851D01*
X158152128Y-71556590D01*
X158162110Y-71729715D01*
X158163247Y-71734761D01*
X158163248Y-71734767D01*
X158180777Y-71812547D01*
X158211222Y-71947639D01*
X158295266Y-72154616D01*
X158297965Y-72159020D01*
X158399946Y-72325438D01*
X158411987Y-72345088D01*
X158558250Y-72513938D01*
X158699338Y-72631071D01*
X158721507Y-72649476D01*
X158730126Y-72656632D01*
X158779555Y-72685516D01*
X158803445Y-72699476D01*
X158852169Y-72751114D01*
X158865240Y-72820897D01*
X158838509Y-72886669D01*
X158798055Y-72920027D01*
X158785607Y-72926507D01*
X158781474Y-72929610D01*
X158781471Y-72929612D01*
X158643703Y-73033051D01*
X158606965Y-73060635D01*
X158541346Y-73129301D01*
X158479082Y-73194457D01*
X158452629Y-73222138D01*
X158326743Y-73406680D01*
X158324564Y-73411375D01*
X158234907Y-73604525D01*
X158232688Y-73609305D01*
X158172989Y-73824570D01*
X158149251Y-74046695D01*
X158149548Y-74051848D01*
X158149548Y-74051851D01*
X158152128Y-74096590D01*
X158162110Y-74269715D01*
X158163247Y-74274761D01*
X158163248Y-74274767D01*
X158171851Y-74312939D01*
X158211222Y-74487639D01*
X158244907Y-74570596D01*
X158289059Y-74679329D01*
X158295266Y-74694616D01*
X158297965Y-74699020D01*
X158399946Y-74865438D01*
X158411987Y-74885088D01*
X158558250Y-75053938D01*
X158730126Y-75196632D01*
X158923000Y-75309338D01*
X158927825Y-75311180D01*
X158927826Y-75311181D01*
X158995924Y-75337185D01*
X159131692Y-75389030D01*
X159136760Y-75390061D01*
X159136763Y-75390062D01*
X159243339Y-75411745D01*
X159350597Y-75433567D01*
X159355772Y-75433757D01*
X159355774Y-75433757D01*
X159568673Y-75441564D01*
X159568677Y-75441564D01*
X159573837Y-75441753D01*
X159578957Y-75441097D01*
X159578959Y-75441097D01*
X159790288Y-75414025D01*
X159790289Y-75414025D01*
X159795416Y-75413368D01*
X159810072Y-75408971D01*
X160004429Y-75350661D01*
X160004434Y-75350659D01*
X160009384Y-75349174D01*
X160209994Y-75250896D01*
X160391860Y-75121173D01*
X160436993Y-75076198D01*
X160494598Y-75018793D01*
X160550096Y-74963489D01*
X160556399Y-74954717D01*
X160672623Y-74792974D01*
X160728618Y-74749326D01*
X160774946Y-74740500D01*
X162631460Y-74740500D01*
X162699581Y-74760502D01*
X162738892Y-74800665D01*
X162752084Y-74822191D01*
X162759987Y-74835088D01*
X162763376Y-74839001D01*
X162763378Y-74839003D01*
X162825641Y-74910881D01*
X162906250Y-75003938D01*
X163078126Y-75146632D01*
X163271000Y-75259338D01*
X163275825Y-75261180D01*
X163275826Y-75261181D01*
X163321552Y-75278642D01*
X163479692Y-75339030D01*
X163484760Y-75340061D01*
X163484763Y-75340062D01*
X163565520Y-75356492D01*
X163698597Y-75383567D01*
X163703772Y-75383757D01*
X163703774Y-75383757D01*
X163916673Y-75391564D01*
X163916677Y-75391564D01*
X163921837Y-75391753D01*
X163926957Y-75391097D01*
X163926959Y-75391097D01*
X164138288Y-75364025D01*
X164138289Y-75364025D01*
X164143416Y-75363368D01*
X164148371Y-75361881D01*
X164148373Y-75361881D01*
X164166336Y-75356492D01*
X164237331Y-75356074D01*
X164297282Y-75394106D01*
X164327155Y-75458512D01*
X164317465Y-75528844D01*
X164291640Y-75566272D01*
X164101317Y-75756595D01*
X164039005Y-75790621D01*
X164012222Y-75793500D01*
X159255747Y-75793500D01*
X159247177Y-75793208D01*
X159201255Y-75790077D01*
X159201251Y-75790077D01*
X159193679Y-75789561D01*
X159135197Y-75799767D01*
X159128706Y-75800725D01*
X159105145Y-75803577D01*
X159077333Y-75806942D01*
X159077330Y-75806943D01*
X159069792Y-75807855D01*
X159062687Y-75810539D01*
X159055711Y-75812253D01*
X159050558Y-75813663D01*
X159043675Y-75815741D01*
X159036193Y-75817047D01*
X159029243Y-75820098D01*
X159029239Y-75820099D01*
X158981852Y-75840900D01*
X158975746Y-75843392D01*
X158927354Y-75861678D01*
X158920246Y-75864364D01*
X158913982Y-75868669D01*
X158907563Y-75872025D01*
X158902963Y-75874585D01*
X158896764Y-75878251D01*
X158889809Y-75881304D01*
X158883782Y-75885929D01*
X158883778Y-75885931D01*
X158842719Y-75917436D01*
X158837383Y-75921313D01*
X158794754Y-75950611D01*
X158794752Y-75950613D01*
X158788495Y-75954913D01*
X158783445Y-75960581D01*
X158783444Y-75960582D01*
X158750009Y-75998109D01*
X158745027Y-76003385D01*
X157527817Y-77220595D01*
X157465505Y-77254621D01*
X157438722Y-77257500D01*
X156568500Y-77257500D01*
X156500379Y-77237498D01*
X156453886Y-77183842D01*
X156442500Y-77131500D01*
X156442500Y-41006695D01*
X177697251Y-41006695D01*
X177697548Y-41011848D01*
X177697548Y-41011851D01*
X177708059Y-41194137D01*
X177710110Y-41229715D01*
X177711247Y-41234761D01*
X177711248Y-41234767D01*
X177735304Y-41341508D01*
X177759222Y-41447639D01*
X177843266Y-41654616D01*
X177845965Y-41659020D01*
X177939406Y-41811502D01*
X177959987Y-41845088D01*
X178106250Y-42013938D01*
X178278126Y-42156632D01*
X178471000Y-42269338D01*
X178679692Y-42349030D01*
X178684760Y-42350061D01*
X178684763Y-42350062D01*
X178792017Y-42371883D01*
X178898597Y-42393567D01*
X178903772Y-42393757D01*
X178903774Y-42393757D01*
X179116673Y-42401564D01*
X179116677Y-42401564D01*
X179121837Y-42401753D01*
X179126957Y-42401097D01*
X179126959Y-42401097D01*
X179338288Y-42374025D01*
X179338289Y-42374025D01*
X179343416Y-42373368D01*
X179419162Y-42350643D01*
X179552429Y-42310661D01*
X179552434Y-42310659D01*
X179557384Y-42309174D01*
X179757994Y-42210896D01*
X179939860Y-42081173D01*
X180098096Y-41923489D01*
X180111400Y-41904975D01*
X180167391Y-41861327D01*
X180213722Y-41852500D01*
X184177997Y-41852500D01*
X184246118Y-41872502D01*
X184292611Y-41926158D01*
X184295979Y-41934270D01*
X184319385Y-41996705D01*
X184406739Y-42113261D01*
X184523295Y-42200615D01*
X184659684Y-42251745D01*
X184721866Y-42258500D01*
X186518134Y-42258500D01*
X186580316Y-42251745D01*
X186716705Y-42200615D01*
X186833261Y-42113261D01*
X186920615Y-41996705D01*
X186971745Y-41860316D01*
X186978500Y-41798134D01*
X186978500Y-40001866D01*
X186971745Y-39939684D01*
X186920615Y-39803295D01*
X186833261Y-39686739D01*
X186716705Y-39599385D01*
X186580316Y-39548255D01*
X186518134Y-39541500D01*
X184721866Y-39541500D01*
X184659684Y-39548255D01*
X184523295Y-39599385D01*
X184406739Y-39686739D01*
X184319385Y-39803295D01*
X184268255Y-39939684D01*
X184261500Y-40001866D01*
X184261500Y-40101500D01*
X184241498Y-40169621D01*
X184187842Y-40216114D01*
X184135500Y-40227500D01*
X180213210Y-40227500D01*
X180145089Y-40207498D01*
X180120016Y-40186299D01*
X179993151Y-40046876D01*
X179993148Y-40046873D01*
X179989670Y-40043051D01*
X179985619Y-40039852D01*
X179985615Y-40039848D01*
X179818414Y-39907800D01*
X179818410Y-39907798D01*
X179814359Y-39904598D01*
X179618789Y-39796638D01*
X179613920Y-39794914D01*
X179613916Y-39794912D01*
X179413087Y-39723795D01*
X179413083Y-39723794D01*
X179408212Y-39722069D01*
X179403119Y-39721162D01*
X179403116Y-39721161D01*
X179193373Y-39683800D01*
X179193367Y-39683799D01*
X179188284Y-39682894D01*
X179114452Y-39681992D01*
X178970081Y-39680228D01*
X178970079Y-39680228D01*
X178964911Y-39680165D01*
X178744091Y-39713955D01*
X178531756Y-39783357D01*
X178333607Y-39886507D01*
X178329474Y-39889610D01*
X178329471Y-39889612D01*
X178159100Y-40017530D01*
X178154965Y-40020635D01*
X178089346Y-40089301D01*
X178012591Y-40169621D01*
X178000629Y-40182138D01*
X177997715Y-40186410D01*
X177997714Y-40186411D01*
X177982798Y-40208277D01*
X177874743Y-40366680D01*
X177780688Y-40569305D01*
X177720989Y-40784570D01*
X177697251Y-41006695D01*
X156442500Y-41006695D01*
X156442500Y-38976500D01*
X156462502Y-38908379D01*
X156516158Y-38861886D01*
X156568500Y-38850500D01*
X187529500Y-38850500D01*
X187597621Y-38870502D01*
G37*
%TD.AperFunction*%
%TA.AperFunction,Conductor*%
G36*
X180627012Y-73241554D02*
G01*
X180633595Y-73247683D01*
X180697785Y-73311873D01*
X180731811Y-73374185D01*
X180734211Y-73411950D01*
X180726973Y-73494680D01*
X180716884Y-73610000D01*
X180735314Y-73820655D01*
X180736738Y-73825968D01*
X180736738Y-73825970D01*
X180765841Y-73934582D01*
X180790044Y-74024910D01*
X180792366Y-74029891D01*
X180792367Y-74029892D01*
X180841528Y-74135317D01*
X180879411Y-74216558D01*
X181000699Y-74389776D01*
X181150224Y-74539301D01*
X181323442Y-74660589D01*
X181328420Y-74662910D01*
X181328423Y-74662912D01*
X181510108Y-74747633D01*
X181515090Y-74749956D01*
X181520398Y-74751378D01*
X181520400Y-74751379D01*
X181714030Y-74803262D01*
X181714032Y-74803262D01*
X181719345Y-74804686D01*
X181930000Y-74823116D01*
X182100464Y-74808202D01*
X182170068Y-74822191D01*
X182200540Y-74844628D01*
X184364595Y-77008683D01*
X184398621Y-77070995D01*
X184401500Y-77097778D01*
X184401500Y-77606134D01*
X184408255Y-77668316D01*
X184459385Y-77804705D01*
X184517780Y-77882621D01*
X184546739Y-77921261D01*
X184543985Y-77923325D01*
X184570052Y-77971061D01*
X184564987Y-78041876D01*
X184547757Y-78073409D01*
X184494771Y-78144108D01*
X184494770Y-78144110D01*
X184489385Y-78151295D01*
X184438255Y-78287684D01*
X184431500Y-78349866D01*
X184431500Y-78461500D01*
X184411498Y-78529621D01*
X184357842Y-78576114D01*
X184305500Y-78587500D01*
X183205778Y-78587500D01*
X183137657Y-78567498D01*
X183116683Y-78550595D01*
X180126018Y-75559930D01*
X180091992Y-75497618D01*
X180097057Y-75426803D01*
X180139604Y-75369967D01*
X180150555Y-75362921D01*
X180156705Y-75360615D01*
X180273261Y-75273261D01*
X180360615Y-75156705D01*
X180411745Y-75020316D01*
X180418500Y-74958134D01*
X180418500Y-73336778D01*
X180438502Y-73268657D01*
X180492158Y-73222164D01*
X180562432Y-73212060D01*
X180627012Y-73241554D01*
G37*
%TD.AperFunction*%
%TA.AperFunction,Conductor*%
G36*
X180909710Y-69760502D02*
G01*
X180944802Y-69794229D01*
X180974847Y-69837137D01*
X180990699Y-69859776D01*
X181140224Y-70009301D01*
X181313442Y-70130589D01*
X181318420Y-70132910D01*
X181318423Y-70132912D01*
X181486128Y-70211114D01*
X181505090Y-70219956D01*
X181510398Y-70221378D01*
X181510400Y-70221379D01*
X181704030Y-70273262D01*
X181704032Y-70273262D01*
X181709345Y-70274686D01*
X181920000Y-70293116D01*
X182130655Y-70274686D01*
X182135968Y-70273262D01*
X182135970Y-70273262D01*
X182329600Y-70221379D01*
X182329602Y-70221378D01*
X182334910Y-70219956D01*
X182353872Y-70211114D01*
X182521577Y-70132912D01*
X182521580Y-70132910D01*
X182526558Y-70130589D01*
X182699776Y-70009301D01*
X182849301Y-69859776D01*
X182865153Y-69837137D01*
X182895198Y-69794229D01*
X182950656Y-69749901D01*
X182998411Y-69740500D01*
X184275500Y-69740500D01*
X184343621Y-69760502D01*
X184390114Y-69814158D01*
X184401500Y-69866500D01*
X184401500Y-69986134D01*
X184408255Y-70048316D01*
X184459385Y-70184705D01*
X184546739Y-70301261D01*
X184663295Y-70388615D01*
X184671704Y-70391767D01*
X184671705Y-70391768D01*
X184780451Y-70432535D01*
X184837216Y-70475176D01*
X184861916Y-70541738D01*
X184846709Y-70611087D01*
X184827316Y-70637568D01*
X184700629Y-70770138D01*
X184697715Y-70774410D01*
X184697714Y-70774411D01*
X184631570Y-70871375D01*
X184574743Y-70954680D01*
X184480688Y-71157305D01*
X184420989Y-71372570D01*
X184397251Y-71594695D01*
X184397548Y-71599848D01*
X184397548Y-71599851D01*
X184403011Y-71694590D01*
X184410110Y-71817715D01*
X184411247Y-71822761D01*
X184411248Y-71822767D01*
X184431119Y-71910939D01*
X184459222Y-72035639D01*
X184513984Y-72170502D01*
X184530293Y-72210666D01*
X184543266Y-72242616D01*
X184545965Y-72247020D01*
X184655563Y-72425868D01*
X184659987Y-72433088D01*
X184806250Y-72601938D01*
X184978126Y-72744632D01*
X185027283Y-72773357D01*
X185051445Y-72787476D01*
X185100169Y-72839114D01*
X185113240Y-72908897D01*
X185086509Y-72974669D01*
X185046055Y-73008027D01*
X185033607Y-73014507D01*
X185029474Y-73017610D01*
X185029471Y-73017612D01*
X184909698Y-73107540D01*
X184854965Y-73148635D01*
X184700629Y-73310138D01*
X184697715Y-73314410D01*
X184697714Y-73314411D01*
X184631570Y-73411375D01*
X184574743Y-73494680D01*
X184480688Y-73697305D01*
X184420989Y-73912570D01*
X184397251Y-74134695D01*
X184397548Y-74139848D01*
X184397548Y-74139851D01*
X184403011Y-74234590D01*
X184410110Y-74357715D01*
X184411247Y-74362761D01*
X184411248Y-74362767D01*
X184417335Y-74389776D01*
X184459222Y-74575639D01*
X184516306Y-74716222D01*
X184534287Y-74760502D01*
X184543266Y-74782616D01*
X184564463Y-74817207D01*
X184654105Y-74963489D01*
X184659987Y-74973088D01*
X184806250Y-75141938D01*
X184810230Y-75145242D01*
X184814981Y-75149187D01*
X184854616Y-75208090D01*
X184856113Y-75279071D01*
X184818997Y-75339593D01*
X184778725Y-75364112D01*
X184716111Y-75387585D01*
X184645303Y-75392768D01*
X184582786Y-75358698D01*
X183158670Y-73934582D01*
X183124644Y-73872270D01*
X183123694Y-73824358D01*
X183124686Y-73820655D01*
X183143116Y-73610000D01*
X183124686Y-73399345D01*
X183119902Y-73381492D01*
X183071379Y-73200400D01*
X183071378Y-73200398D01*
X183069956Y-73195090D01*
X183059253Y-73172138D01*
X182982912Y-73008423D01*
X182982910Y-73008420D01*
X182980589Y-73003442D01*
X182859301Y-72830224D01*
X182709776Y-72680699D01*
X182536558Y-72559411D01*
X182531580Y-72557090D01*
X182531577Y-72557088D01*
X182349892Y-72472367D01*
X182349891Y-72472366D01*
X182344910Y-72470044D01*
X182339602Y-72468622D01*
X182339600Y-72468621D01*
X182145970Y-72416738D01*
X182145968Y-72416738D01*
X182140655Y-72415314D01*
X181930000Y-72396884D01*
X181924525Y-72397363D01*
X181731950Y-72414211D01*
X181662345Y-72400222D01*
X181631873Y-72377785D01*
X180378559Y-71124471D01*
X180351126Y-71080400D01*
X180350431Y-71080702D01*
X180345476Y-71069305D01*
X180263419Y-70880590D01*
X180261354Y-70875840D01*
X180152953Y-70708277D01*
X180142822Y-70692617D01*
X180142820Y-70692614D01*
X180140014Y-70688277D01*
X179989670Y-70523051D01*
X179985619Y-70519852D01*
X179985615Y-70519848D01*
X179818414Y-70387800D01*
X179818410Y-70387798D01*
X179814359Y-70384598D01*
X179773053Y-70361796D01*
X179723084Y-70311364D01*
X179708312Y-70241921D01*
X179733428Y-70175516D01*
X179760780Y-70148909D01*
X179816063Y-70109476D01*
X179939860Y-70021173D01*
X180098096Y-69863489D01*
X180148766Y-69792974D01*
X180204761Y-69749326D01*
X180251089Y-69740500D01*
X180841589Y-69740500D01*
X180909710Y-69760502D01*
G37*
%TD.AperFunction*%
%TD*%
M02*
