%TF.GenerationSoftware,KiCad,Pcbnew,(6.0.9-0)*%
%TF.CreationDate,2023-02-07T22:14:43+01:00*%
%TF.ProjectId,SHOE_SHIELD,53484f45-5f53-4484-9945-4c442e6b6963,rev?*%
%TF.SameCoordinates,Original*%
%TF.FileFunction,Legend,Top*%
%TF.FilePolarity,Positive*%
%FSLAX46Y46*%
G04 Gerber Fmt 4.6, Leading zero omitted, Abs format (unit mm)*
G04 Created by KiCad (PCBNEW (6.0.9-0)) date 2023-02-07 22:14:43*
%MOMM*%
%LPD*%
G01*
G04 APERTURE LIST*
%ADD10C,0.150000*%
%ADD11C,0.511578*%
%ADD12C,0.125000*%
%ADD13C,0.120000*%
G04 APERTURE END LIST*
D10*
X183134000Y-72898000D02*
X184150000Y-72898000D01*
X156559250Y-75438000D02*
X157892750Y-75438000D01*
X156305250Y-41148000D02*
X157638750Y-41148000D01*
X156305250Y-43688000D02*
X157638750Y-43688000D01*
X156559250Y-60960000D02*
X157892750Y-60960000D01*
X156559250Y-47244000D02*
X157892750Y-47244000D01*
D11*
X162053789Y-41148000D02*
G75*
G03*
X162053789Y-41148000I-255789J0D01*
G01*
D10*
X181102000Y-67818000D02*
X183896000Y-67818000D01*
X181102000Y-44704000D02*
X183896000Y-44704000D01*
X180975000Y-50038000D02*
X183769000Y-50038000D01*
X156144000Y-102821000D02*
X184094000Y-102821000D01*
X184094000Y-102821000D02*
X184094000Y-78671000D01*
X184094000Y-78671000D02*
X156144000Y-78671000D01*
X156144000Y-78671000D02*
X156144000Y-102821000D01*
X156559250Y-49784000D02*
X157892750Y-49784000D01*
X156559250Y-67818000D02*
X157892750Y-67818000D01*
X156559250Y-55880000D02*
X157892750Y-55880000D01*
X156559250Y-58420000D02*
X157892750Y-58420000D01*
X156559250Y-65024000D02*
X157892750Y-65024000D01*
X156559250Y-70358000D02*
X157892750Y-70358000D01*
X156559250Y-52578000D02*
X157892750Y-52578000D01*
X180975000Y-47498000D02*
X183769000Y-47498000D01*
X167650000Y-38900000D02*
X175150000Y-38900000D01*
X175150000Y-38900000D02*
X175150000Y-41280000D01*
X175150000Y-41280000D02*
X167650000Y-41280000D01*
X167650000Y-41280000D02*
X167650000Y-38900000D01*
G36*
X167650000Y-38900000D02*
G01*
X175150000Y-38900000D01*
X175150000Y-41280000D01*
X167650000Y-41280000D01*
X167650000Y-38900000D01*
G37*
X181102000Y-65278000D02*
X183896000Y-65278000D01*
X162565000Y-39730000D02*
X180355000Y-39730000D01*
X180355000Y-39730000D02*
X180355000Y-75290000D01*
X180355000Y-75290000D02*
X162565000Y-75290000D01*
X162565000Y-75290000D02*
X162565000Y-39730000D01*
X156559250Y-72898000D02*
X157892750Y-72898000D01*
X182943500Y-77918000D02*
X184150000Y-77918000D01*
X181102000Y-42418000D02*
X183896000Y-42418000D01*
X167568952Y-94400666D02*
X168045142Y-94400666D01*
X167473714Y-94686380D02*
X167807047Y-93686380D01*
X168140380Y-94686380D01*
X168473714Y-94686380D02*
X168473714Y-93686380D01*
X168807047Y-94400666D01*
X169140380Y-93686380D01*
X169140380Y-94686380D01*
X169616571Y-94686380D02*
X169616571Y-93686380D01*
X169997523Y-93686380D01*
X170092761Y-93734000D01*
X170140380Y-93781619D01*
X170188000Y-93876857D01*
X170188000Y-94019714D01*
X170140380Y-94114952D01*
X170092761Y-94162571D01*
X169997523Y-94210190D01*
X169616571Y-94210190D01*
X171568952Y-93686380D02*
X171759428Y-93686380D01*
X171854666Y-93734000D01*
X171949904Y-93829238D01*
X171997523Y-94019714D01*
X171997523Y-94353047D01*
X171949904Y-94543523D01*
X171854666Y-94638761D01*
X171759428Y-94686380D01*
X171568952Y-94686380D01*
X171473714Y-94638761D01*
X171378476Y-94543523D01*
X171330857Y-94353047D01*
X171330857Y-94019714D01*
X171378476Y-93829238D01*
X171473714Y-93734000D01*
X171568952Y-93686380D01*
X172426095Y-93686380D02*
X172426095Y-94495904D01*
X172473714Y-94591142D01*
X172521333Y-94638761D01*
X172616571Y-94686380D01*
X172807047Y-94686380D01*
X172902285Y-94638761D01*
X172949904Y-94591142D01*
X172997523Y-94495904D01*
X172997523Y-93686380D01*
X173330857Y-93686380D02*
X173902285Y-93686380D01*
X173616571Y-94686380D02*
X173616571Y-93686380D01*
X168092476Y-101798380D02*
X167616285Y-101798380D01*
X167616285Y-100798380D01*
X168425809Y-101417428D02*
X169187714Y-101417428D01*
X168806761Y-101798380D02*
X168806761Y-101036476D01*
X183775000Y-61271571D02*
X183739285Y-61343000D01*
X183739285Y-61450142D01*
X183775000Y-61557285D01*
X183846428Y-61628714D01*
X183917857Y-61664428D01*
X184060714Y-61700142D01*
X184167857Y-61700142D01*
X184310714Y-61664428D01*
X184382142Y-61628714D01*
X184453571Y-61557285D01*
X184489285Y-61450142D01*
X184489285Y-61378714D01*
X184453571Y-61271571D01*
X184417857Y-61235857D01*
X184167857Y-61235857D01*
X184167857Y-61378714D01*
X175966476Y-102052380D02*
X175633142Y-101576190D01*
X175395047Y-102052380D02*
X175395047Y-101052380D01*
X175776000Y-101052380D01*
X175871238Y-101100000D01*
X175918857Y-101147619D01*
X175966476Y-101242857D01*
X175966476Y-101385714D01*
X175918857Y-101480952D01*
X175871238Y-101528571D01*
X175776000Y-101576190D01*
X175395047Y-101576190D01*
X176395047Y-101671428D02*
X177156952Y-101671428D01*
X182538666Y-64722285D02*
X182538666Y-64246095D01*
X182824380Y-64817523D02*
X181824380Y-64484190D01*
X182824380Y-64150857D01*
X181824380Y-63912761D02*
X181824380Y-63293714D01*
X182205333Y-63627047D01*
X182205333Y-63484190D01*
X182252952Y-63388952D01*
X182300571Y-63341333D01*
X182395809Y-63293714D01*
X182633904Y-63293714D01*
X182729142Y-63341333D01*
X182776761Y-63388952D01*
X182824380Y-63484190D01*
X182824380Y-63769904D01*
X182776761Y-63865142D01*
X182729142Y-63912761D01*
X183840380Y-93019523D02*
X183840380Y-93495714D01*
X182840380Y-93495714D01*
X183459428Y-92686190D02*
X183459428Y-91924285D01*
X183840380Y-92305238D02*
X183078476Y-92305238D01*
X156773619Y-65809904D02*
X157773619Y-65809904D01*
X157773619Y-66048000D01*
X157726000Y-66190857D01*
X157630761Y-66286095D01*
X157535523Y-66333714D01*
X157345047Y-66381333D01*
X157202190Y-66381333D01*
X157011714Y-66333714D01*
X156916476Y-66286095D01*
X156821238Y-66190857D01*
X156773619Y-66048000D01*
X156773619Y-65809904D01*
X156773619Y-66857523D02*
X156773619Y-67048000D01*
X156821238Y-67143238D01*
X156868857Y-67190857D01*
X157011714Y-67286095D01*
X157202190Y-67333714D01*
X157583142Y-67333714D01*
X157678380Y-67286095D01*
X157726000Y-67238476D01*
X157773619Y-67143238D01*
X157773619Y-66952761D01*
X157726000Y-66857523D01*
X157678380Y-66809904D01*
X157583142Y-66762285D01*
X157345047Y-66762285D01*
X157249809Y-66809904D01*
X157202190Y-66857523D01*
X157154571Y-66952761D01*
X157154571Y-67143238D01*
X157202190Y-67238476D01*
X157249809Y-67286095D01*
X157345047Y-67333714D01*
X156773619Y-58951904D02*
X157773619Y-58951904D01*
X157773619Y-59190000D01*
X157726000Y-59332857D01*
X157630761Y-59428095D01*
X157535523Y-59475714D01*
X157345047Y-59523333D01*
X157202190Y-59523333D01*
X157011714Y-59475714D01*
X156916476Y-59428095D01*
X156821238Y-59332857D01*
X156773619Y-59190000D01*
X156773619Y-58951904D01*
X157773619Y-60380476D02*
X157773619Y-60190000D01*
X157726000Y-60094761D01*
X157678380Y-60047142D01*
X157535523Y-59951904D01*
X157345047Y-59904285D01*
X156964095Y-59904285D01*
X156868857Y-59951904D01*
X156821238Y-59999523D01*
X156773619Y-60094761D01*
X156773619Y-60285238D01*
X156821238Y-60380476D01*
X156868857Y-60428095D01*
X156964095Y-60475714D01*
X157202190Y-60475714D01*
X157297428Y-60428095D01*
X157345047Y-60380476D01*
X157392666Y-60285238D01*
X157392666Y-60094761D01*
X157345047Y-59999523D01*
X157297428Y-59951904D01*
X157202190Y-59904285D01*
X178419904Y-82546000D02*
X178324666Y-82498380D01*
X178181809Y-82498380D01*
X178038952Y-82546000D01*
X177943714Y-82641238D01*
X177896095Y-82736476D01*
X177848476Y-82926952D01*
X177848476Y-83069809D01*
X177896095Y-83260285D01*
X177943714Y-83355523D01*
X178038952Y-83450761D01*
X178181809Y-83498380D01*
X178277047Y-83498380D01*
X178419904Y-83450761D01*
X178467523Y-83403142D01*
X178467523Y-83069809D01*
X178277047Y-83069809D01*
X181522666Y-97607047D02*
X181522666Y-97130857D01*
X181808380Y-97702285D02*
X180808380Y-97368952D01*
X181808380Y-97035619D01*
X181808380Y-96702285D02*
X180808380Y-96702285D01*
X181522666Y-96368952D01*
X180808380Y-96035619D01*
X181808380Y-96035619D01*
X181808380Y-95559428D02*
X180808380Y-95559428D01*
X180808380Y-95178476D01*
X180856000Y-95083238D01*
X180903619Y-95035619D01*
X180998857Y-94988000D01*
X181141714Y-94988000D01*
X181236952Y-95035619D01*
X181284571Y-95083238D01*
X181332190Y-95178476D01*
X181332190Y-95559428D01*
X180808380Y-93607047D02*
X180808380Y-93416571D01*
X180856000Y-93321333D01*
X180951238Y-93226095D01*
X181141714Y-93178476D01*
X181475047Y-93178476D01*
X181665523Y-93226095D01*
X181760761Y-93321333D01*
X181808380Y-93416571D01*
X181808380Y-93607047D01*
X181760761Y-93702285D01*
X181665523Y-93797523D01*
X181475047Y-93845142D01*
X181141714Y-93845142D01*
X180951238Y-93797523D01*
X180856000Y-93702285D01*
X180808380Y-93607047D01*
X180808380Y-92749904D02*
X181617904Y-92749904D01*
X181713142Y-92702285D01*
X181760761Y-92654666D01*
X181808380Y-92559428D01*
X181808380Y-92368952D01*
X181760761Y-92273714D01*
X181713142Y-92226095D01*
X181617904Y-92178476D01*
X180808380Y-92178476D01*
X180808380Y-91845142D02*
X180808380Y-91273714D01*
X181808380Y-91559428D02*
X180808380Y-91559428D01*
X182538666Y-67262285D02*
X182538666Y-66786095D01*
X182824380Y-67357523D02*
X181824380Y-67024190D01*
X182824380Y-66690857D01*
X181919619Y-66405142D02*
X181872000Y-66357523D01*
X181824380Y-66262285D01*
X181824380Y-66024190D01*
X181872000Y-65928952D01*
X181919619Y-65881333D01*
X182014857Y-65833714D01*
X182110095Y-65833714D01*
X182252952Y-65881333D01*
X182824380Y-66452761D01*
X182824380Y-65833714D01*
X156773619Y-53109904D02*
X157773619Y-53109904D01*
X157773619Y-53348000D01*
X157726000Y-53490857D01*
X157630761Y-53586095D01*
X157535523Y-53633714D01*
X157345047Y-53681333D01*
X157202190Y-53681333D01*
X157011714Y-53633714D01*
X156916476Y-53586095D01*
X156821238Y-53490857D01*
X156773619Y-53348000D01*
X156773619Y-53109904D01*
X157440285Y-54538476D02*
X156773619Y-54538476D01*
X157821238Y-54300380D02*
X157106952Y-54062285D01*
X157106952Y-54681333D01*
X184199571Y-54758714D02*
X184235285Y-54651571D01*
X184235285Y-54473000D01*
X184199571Y-54401571D01*
X184163857Y-54365857D01*
X184092428Y-54330142D01*
X184021000Y-54330142D01*
X183949571Y-54365857D01*
X183913857Y-54401571D01*
X183878142Y-54473000D01*
X183842428Y-54615857D01*
X183806714Y-54687285D01*
X183771000Y-54723000D01*
X183699571Y-54758714D01*
X183628142Y-54758714D01*
X183556714Y-54723000D01*
X183521000Y-54687285D01*
X183485285Y-54615857D01*
X183485285Y-54437285D01*
X183521000Y-54330142D01*
X184235285Y-54008714D02*
X183485285Y-54008714D01*
X183485285Y-53830142D01*
X183521000Y-53723000D01*
X183592428Y-53651571D01*
X183663857Y-53615857D01*
X183806714Y-53580142D01*
X183913857Y-53580142D01*
X184056714Y-53615857D01*
X184128142Y-53651571D01*
X184199571Y-53723000D01*
X184235285Y-53830142D01*
X184235285Y-54008714D01*
X184021000Y-53294428D02*
X184021000Y-52937285D01*
X184235285Y-53365857D02*
X183485285Y-53115857D01*
X184235285Y-52865857D01*
X156886714Y-73257285D02*
X157636714Y-73257285D01*
X157636714Y-73435857D01*
X157601000Y-73543000D01*
X157529571Y-73614428D01*
X157458142Y-73650142D01*
X157315285Y-73685857D01*
X157208142Y-73685857D01*
X157065285Y-73650142D01*
X156993857Y-73614428D01*
X156922428Y-73543000D01*
X156886714Y-73435857D01*
X156886714Y-73257285D01*
X156886714Y-74400142D02*
X156886714Y-73971571D01*
X156886714Y-74185857D02*
X157636714Y-74185857D01*
X157529571Y-74114428D01*
X157458142Y-74043000D01*
X157422428Y-73971571D01*
X157565285Y-74685857D02*
X157601000Y-74721571D01*
X157636714Y-74793000D01*
X157636714Y-74971571D01*
X157601000Y-75043000D01*
X157565285Y-75078714D01*
X157493857Y-75114428D01*
X157422428Y-75114428D01*
X157315285Y-75078714D01*
X156886714Y-74650142D01*
X156886714Y-75114428D01*
X165104476Y-83528380D02*
X164771142Y-83052190D01*
X164533047Y-83528380D02*
X164533047Y-82528380D01*
X164914000Y-82528380D01*
X165009238Y-82576000D01*
X165056857Y-82623619D01*
X165104476Y-82718857D01*
X165104476Y-82861714D01*
X165056857Y-82956952D01*
X165009238Y-83004571D01*
X164914000Y-83052190D01*
X164533047Y-83052190D01*
X165533047Y-83147428D02*
X166294952Y-83147428D01*
X165914000Y-83528380D02*
X165914000Y-82766476D01*
X183840380Y-90225523D02*
X183840380Y-90701714D01*
X182840380Y-90701714D01*
X183459428Y-89892190D02*
X183459428Y-89130285D01*
X156886714Y-70717285D02*
X157636714Y-70717285D01*
X157636714Y-70895857D01*
X157601000Y-71003000D01*
X157529571Y-71074428D01*
X157458142Y-71110142D01*
X157315285Y-71145857D01*
X157208142Y-71145857D01*
X157065285Y-71110142D01*
X156993857Y-71074428D01*
X156922428Y-71003000D01*
X156886714Y-70895857D01*
X156886714Y-70717285D01*
X156886714Y-71860142D02*
X156886714Y-71431571D01*
X156886714Y-71645857D02*
X157636714Y-71645857D01*
X157529571Y-71574428D01*
X157458142Y-71503000D01*
X157422428Y-71431571D01*
X156886714Y-72574428D02*
X156886714Y-72145857D01*
X156886714Y-72360142D02*
X157636714Y-72360142D01*
X157529571Y-72288714D01*
X157458142Y-72217285D01*
X157422428Y-72145857D01*
X167684476Y-83548380D02*
X167351142Y-83072190D01*
X167113047Y-83548380D02*
X167113047Y-82548380D01*
X167494000Y-82548380D01*
X167589238Y-82596000D01*
X167636857Y-82643619D01*
X167684476Y-82738857D01*
X167684476Y-82881714D01*
X167636857Y-82976952D01*
X167589238Y-83024571D01*
X167494000Y-83072190D01*
X167113047Y-83072190D01*
X168113047Y-83167428D02*
X168874952Y-83167428D01*
X172704476Y-83618380D02*
X172228285Y-83618380D01*
X172228285Y-82618380D01*
X173037809Y-83237428D02*
X173799714Y-83237428D01*
X173418761Y-83618380D02*
X173418761Y-82856476D01*
X170134476Y-83588380D02*
X169658285Y-83588380D01*
X169658285Y-82588380D01*
X170467809Y-83207428D02*
X171229714Y-83207428D01*
X187077000Y-61271571D02*
X187041285Y-61343000D01*
X187041285Y-61450142D01*
X187077000Y-61557285D01*
X187148428Y-61628714D01*
X187219857Y-61664428D01*
X187362714Y-61700142D01*
X187469857Y-61700142D01*
X187612714Y-61664428D01*
X187684142Y-61628714D01*
X187755571Y-61557285D01*
X187791285Y-61450142D01*
X187791285Y-61378714D01*
X187755571Y-61271571D01*
X187719857Y-61235857D01*
X187469857Y-61235857D01*
X187469857Y-61378714D01*
X156773619Y-44219904D02*
X157773619Y-44219904D01*
X157773619Y-44458000D01*
X157726000Y-44600857D01*
X157630761Y-44696095D01*
X157535523Y-44743714D01*
X157345047Y-44791333D01*
X157202190Y-44791333D01*
X157011714Y-44743714D01*
X156916476Y-44696095D01*
X156821238Y-44600857D01*
X156773619Y-44458000D01*
X156773619Y-44219904D01*
X156773619Y-45743714D02*
X156773619Y-45172285D01*
X156773619Y-45458000D02*
X157773619Y-45458000D01*
X157630761Y-45362761D01*
X157535523Y-45267523D01*
X157487904Y-45172285D01*
X156773619Y-50569904D02*
X157773619Y-50569904D01*
X157773619Y-50808000D01*
X157726000Y-50950857D01*
X157630761Y-51046095D01*
X157535523Y-51093714D01*
X157345047Y-51141333D01*
X157202190Y-51141333D01*
X157011714Y-51093714D01*
X156916476Y-51046095D01*
X156821238Y-50950857D01*
X156773619Y-50808000D01*
X156773619Y-50569904D01*
X157773619Y-51474666D02*
X157773619Y-52093714D01*
X157392666Y-51760380D01*
X157392666Y-51903238D01*
X157345047Y-51998476D01*
X157297428Y-52046095D01*
X157202190Y-52093714D01*
X156964095Y-52093714D01*
X156868857Y-52046095D01*
X156821238Y-51998476D01*
X156773619Y-51903238D01*
X156773619Y-51617523D01*
X156821238Y-51522285D01*
X156868857Y-51474666D01*
X156773619Y-47775904D02*
X157773619Y-47775904D01*
X157773619Y-48014000D01*
X157726000Y-48156857D01*
X157630761Y-48252095D01*
X157535523Y-48299714D01*
X157345047Y-48347333D01*
X157202190Y-48347333D01*
X157011714Y-48299714D01*
X156916476Y-48252095D01*
X156821238Y-48156857D01*
X156773619Y-48014000D01*
X156773619Y-47775904D01*
X157678380Y-48728285D02*
X157726000Y-48775904D01*
X157773619Y-48871142D01*
X157773619Y-49109238D01*
X157726000Y-49204476D01*
X157678380Y-49252095D01*
X157583142Y-49299714D01*
X157487904Y-49299714D01*
X157345047Y-49252095D01*
X156773619Y-48680666D01*
X156773619Y-49299714D01*
X182697428Y-42005142D02*
X182697428Y-41243238D01*
X183078380Y-41624190D02*
X182316476Y-41624190D01*
X182078380Y-40290857D02*
X182078380Y-40767047D01*
X182554571Y-40814666D01*
X182506952Y-40767047D01*
X182459333Y-40671809D01*
X182459333Y-40433714D01*
X182506952Y-40338476D01*
X182554571Y-40290857D01*
X182649809Y-40243238D01*
X182887904Y-40243238D01*
X182983142Y-40290857D01*
X183030761Y-40338476D01*
X183078380Y-40433714D01*
X183078380Y-40671809D01*
X183030761Y-40767047D01*
X182983142Y-40814666D01*
X187755571Y-57280857D02*
X187791285Y-57173714D01*
X187791285Y-56995142D01*
X187755571Y-56923714D01*
X187719857Y-56888000D01*
X187648428Y-56852285D01*
X187577000Y-56852285D01*
X187505571Y-56888000D01*
X187469857Y-56923714D01*
X187434142Y-56995142D01*
X187398428Y-57138000D01*
X187362714Y-57209428D01*
X187327000Y-57245142D01*
X187255571Y-57280857D01*
X187184142Y-57280857D01*
X187112714Y-57245142D01*
X187077000Y-57209428D01*
X187041285Y-57138000D01*
X187041285Y-56959428D01*
X187077000Y-56852285D01*
X187719857Y-56102285D02*
X187755571Y-56138000D01*
X187791285Y-56245142D01*
X187791285Y-56316571D01*
X187755571Y-56423714D01*
X187684142Y-56495142D01*
X187612714Y-56530857D01*
X187469857Y-56566571D01*
X187362714Y-56566571D01*
X187219857Y-56530857D01*
X187148428Y-56495142D01*
X187077000Y-56423714D01*
X187041285Y-56316571D01*
X187041285Y-56245142D01*
X187077000Y-56138000D01*
X187112714Y-56102285D01*
X187791285Y-55423714D02*
X187791285Y-55780857D01*
X187041285Y-55780857D01*
X182951428Y-47085142D02*
X182951428Y-46323238D01*
X183332380Y-46704190D02*
X182570476Y-46704190D01*
X182332380Y-45942285D02*
X182332380Y-45323238D01*
X182713333Y-45656571D01*
X182713333Y-45513714D01*
X182760952Y-45418476D01*
X182808571Y-45370857D01*
X182903809Y-45323238D01*
X183141904Y-45323238D01*
X183237142Y-45370857D01*
X183284761Y-45418476D01*
X183332380Y-45513714D01*
X183332380Y-45799428D01*
X183284761Y-45894666D01*
X183237142Y-45942285D01*
X183949571Y-59570857D02*
X183949571Y-58999428D01*
X184235285Y-59285142D02*
X183663857Y-59285142D01*
X183485285Y-58285142D02*
X183485285Y-58642285D01*
X183842428Y-58678000D01*
X183806714Y-58642285D01*
X183771000Y-58570857D01*
X183771000Y-58392285D01*
X183806714Y-58320857D01*
X183842428Y-58285142D01*
X183913857Y-58249428D01*
X184092428Y-58249428D01*
X184163857Y-58285142D01*
X184199571Y-58320857D01*
X184235285Y-58392285D01*
X184235285Y-58570857D01*
X184199571Y-58642285D01*
X184163857Y-58678000D01*
X184094380Y-81224285D02*
X183094380Y-81224285D01*
X183094380Y-80986190D01*
X183142000Y-80843333D01*
X183237238Y-80748095D01*
X183332476Y-80700476D01*
X183522952Y-80652857D01*
X183665809Y-80652857D01*
X183856285Y-80700476D01*
X183951523Y-80748095D01*
X184046761Y-80843333D01*
X184094380Y-80986190D01*
X184094380Y-81224285D01*
X184094380Y-79700476D02*
X184094380Y-80271904D01*
X184094380Y-79986190D02*
X183094380Y-79986190D01*
X183237238Y-80081428D01*
X183332476Y-80176666D01*
X183380095Y-80271904D01*
X183094380Y-79367142D02*
X183094380Y-78748095D01*
X183475333Y-79081428D01*
X183475333Y-78938571D01*
X183522952Y-78843333D01*
X183570571Y-78795714D01*
X183665809Y-78748095D01*
X183903904Y-78748095D01*
X183999142Y-78795714D01*
X184046761Y-78843333D01*
X184094380Y-78938571D01*
X184094380Y-79224285D01*
X184046761Y-79319523D01*
X183999142Y-79367142D01*
X156886714Y-68177285D02*
X157636714Y-68177285D01*
X157636714Y-68355857D01*
X157601000Y-68463000D01*
X157529571Y-68534428D01*
X157458142Y-68570142D01*
X157315285Y-68605857D01*
X157208142Y-68605857D01*
X157065285Y-68570142D01*
X156993857Y-68534428D01*
X156922428Y-68463000D01*
X156886714Y-68355857D01*
X156886714Y-68177285D01*
X156886714Y-69320142D02*
X156886714Y-68891571D01*
X156886714Y-69105857D02*
X157636714Y-69105857D01*
X157529571Y-69034428D01*
X157458142Y-68963000D01*
X157422428Y-68891571D01*
X157636714Y-69784428D02*
X157636714Y-69855857D01*
X157601000Y-69927285D01*
X157565285Y-69963000D01*
X157493857Y-69998714D01*
X157351000Y-70034428D01*
X157172428Y-70034428D01*
X157029571Y-69998714D01*
X156958142Y-69963000D01*
X156922428Y-69927285D01*
X156886714Y-69855857D01*
X156886714Y-69784428D01*
X156922428Y-69713000D01*
X156958142Y-69677285D01*
X157029571Y-69641571D01*
X157172428Y-69605857D01*
X157351000Y-69605857D01*
X157493857Y-69641571D01*
X157565285Y-69677285D01*
X157601000Y-69713000D01*
X157636714Y-69784428D01*
X156773619Y-56411904D02*
X157773619Y-56411904D01*
X157773619Y-56650000D01*
X157726000Y-56792857D01*
X157630761Y-56888095D01*
X157535523Y-56935714D01*
X157345047Y-56983333D01*
X157202190Y-56983333D01*
X157011714Y-56935714D01*
X156916476Y-56888095D01*
X156821238Y-56792857D01*
X156773619Y-56650000D01*
X156773619Y-56411904D01*
X157773619Y-57888095D02*
X157773619Y-57411904D01*
X157297428Y-57364285D01*
X157345047Y-57411904D01*
X157392666Y-57507142D01*
X157392666Y-57745238D01*
X157345047Y-57840476D01*
X157297428Y-57888095D01*
X157202190Y-57935714D01*
X156964095Y-57935714D01*
X156868857Y-57888095D01*
X156821238Y-57840476D01*
X156773619Y-57745238D01*
X156773619Y-57507142D01*
X156821238Y-57411904D01*
X156868857Y-57364285D01*
X184199571Y-57192857D02*
X184235285Y-57085714D01*
X184235285Y-56907142D01*
X184199571Y-56835714D01*
X184163857Y-56800000D01*
X184092428Y-56764285D01*
X184021000Y-56764285D01*
X183949571Y-56800000D01*
X183913857Y-56835714D01*
X183878142Y-56907142D01*
X183842428Y-57050000D01*
X183806714Y-57121428D01*
X183771000Y-57157142D01*
X183699571Y-57192857D01*
X183628142Y-57192857D01*
X183556714Y-57157142D01*
X183521000Y-57121428D01*
X183485285Y-57050000D01*
X183485285Y-56871428D01*
X183521000Y-56764285D01*
X184163857Y-56014285D02*
X184199571Y-56050000D01*
X184235285Y-56157142D01*
X184235285Y-56228571D01*
X184199571Y-56335714D01*
X184128142Y-56407142D01*
X184056714Y-56442857D01*
X183913857Y-56478571D01*
X183806714Y-56478571D01*
X183663857Y-56442857D01*
X183592428Y-56407142D01*
X183521000Y-56335714D01*
X183485285Y-56228571D01*
X183485285Y-56157142D01*
X183521000Y-56050000D01*
X183556714Y-56014285D01*
X184235285Y-55335714D02*
X184235285Y-55692857D01*
X183485285Y-55692857D01*
X179482857Y-83129428D02*
X180244761Y-83129428D01*
X179863809Y-83510380D02*
X179863809Y-82748476D01*
X181197142Y-82510380D02*
X180720952Y-82510380D01*
X180673333Y-82986571D01*
X180720952Y-82938952D01*
X180816190Y-82891333D01*
X181054285Y-82891333D01*
X181149523Y-82938952D01*
X181197142Y-82986571D01*
X181244761Y-83081809D01*
X181244761Y-83319904D01*
X181197142Y-83415142D01*
X181149523Y-83462761D01*
X181054285Y-83510380D01*
X180816190Y-83510380D01*
X180720952Y-83462761D01*
X180673333Y-83415142D01*
X156773619Y-41679904D02*
X157773619Y-41679904D01*
X157773619Y-41918000D01*
X157726000Y-42060857D01*
X157630761Y-42156095D01*
X157535523Y-42203714D01*
X157345047Y-42251333D01*
X157202190Y-42251333D01*
X157011714Y-42203714D01*
X156916476Y-42156095D01*
X156821238Y-42060857D01*
X156773619Y-41918000D01*
X156773619Y-41679904D01*
X157773619Y-42870380D02*
X157773619Y-42965619D01*
X157726000Y-43060857D01*
X157678380Y-43108476D01*
X157583142Y-43156095D01*
X157392666Y-43203714D01*
X157154571Y-43203714D01*
X156964095Y-43156095D01*
X156868857Y-43108476D01*
X156821238Y-43060857D01*
X156773619Y-42965619D01*
X156773619Y-42870380D01*
X156821238Y-42775142D01*
X156868857Y-42727523D01*
X156964095Y-42679904D01*
X157154571Y-42632285D01*
X157392666Y-42632285D01*
X157583142Y-42679904D01*
X157678380Y-42727523D01*
X157726000Y-42775142D01*
X157773619Y-42870380D01*
X182792666Y-49482285D02*
X182792666Y-49006095D01*
X183078380Y-49577523D02*
X182078380Y-49244190D01*
X183078380Y-48910857D01*
X183078380Y-48529904D02*
X183078380Y-48339428D01*
X183030761Y-48244190D01*
X182983142Y-48196571D01*
X182840285Y-48101333D01*
X182649809Y-48053714D01*
X182268857Y-48053714D01*
X182173619Y-48101333D01*
X182126000Y-48148952D01*
X182078380Y-48244190D01*
X182078380Y-48434666D01*
X182126000Y-48529904D01*
X182173619Y-48577523D01*
X182268857Y-48625142D01*
X182506952Y-48625142D01*
X182602190Y-48577523D01*
X182649809Y-48529904D01*
X182697428Y-48434666D01*
X182697428Y-48244190D01*
X182649809Y-48148952D01*
X182602190Y-48101333D01*
X182506952Y-48053714D01*
X172410476Y-102052380D02*
X172077142Y-101576190D01*
X171839047Y-102052380D02*
X171839047Y-101052380D01*
X172220000Y-101052380D01*
X172315238Y-101100000D01*
X172362857Y-101147619D01*
X172410476Y-101242857D01*
X172410476Y-101385714D01*
X172362857Y-101480952D01*
X172315238Y-101528571D01*
X172220000Y-101576190D01*
X171839047Y-101576190D01*
X172839047Y-101671428D02*
X173600952Y-101671428D01*
X173220000Y-102052380D02*
X173220000Y-101290476D01*
X164536476Y-101798380D02*
X164060285Y-101798380D01*
X164060285Y-100798380D01*
X164869809Y-101417428D02*
X165631714Y-101417428D01*
X183840380Y-96575523D02*
X183364190Y-96908857D01*
X183840380Y-97146952D02*
X182840380Y-97146952D01*
X182840380Y-96766000D01*
X182888000Y-96670761D01*
X182935619Y-96623142D01*
X183030857Y-96575523D01*
X183173714Y-96575523D01*
X183268952Y-96623142D01*
X183316571Y-96670761D01*
X183364190Y-96766000D01*
X183364190Y-97146952D01*
X183459428Y-96146952D02*
X183459428Y-95385047D01*
X183840380Y-95766000D02*
X183078476Y-95766000D01*
X183046666Y-52022285D02*
X183046666Y-51546095D01*
X183332380Y-52117523D02*
X182332380Y-51784190D01*
X183332380Y-51450857D01*
X182760952Y-50974666D02*
X182713333Y-51069904D01*
X182665714Y-51117523D01*
X182570476Y-51165142D01*
X182522857Y-51165142D01*
X182427619Y-51117523D01*
X182380000Y-51069904D01*
X182332380Y-50974666D01*
X182332380Y-50784190D01*
X182380000Y-50688952D01*
X182427619Y-50641333D01*
X182522857Y-50593714D01*
X182570476Y-50593714D01*
X182665714Y-50641333D01*
X182713333Y-50688952D01*
X182760952Y-50784190D01*
X182760952Y-50974666D01*
X182808571Y-51069904D01*
X182856190Y-51117523D01*
X182951428Y-51165142D01*
X183141904Y-51165142D01*
X183237142Y-51117523D01*
X183284761Y-51069904D01*
X183332380Y-50974666D01*
X183332380Y-50784190D01*
X183284761Y-50688952D01*
X183237142Y-50641333D01*
X183141904Y-50593714D01*
X182951428Y-50593714D01*
X182856190Y-50641333D01*
X182808571Y-50688952D01*
X182760952Y-50784190D01*
X183840380Y-99115523D02*
X183364190Y-99448857D01*
X183840380Y-99686952D02*
X182840380Y-99686952D01*
X182840380Y-99306000D01*
X182888000Y-99210761D01*
X182935619Y-99163142D01*
X183030857Y-99115523D01*
X183173714Y-99115523D01*
X183268952Y-99163142D01*
X183316571Y-99210761D01*
X183364190Y-99306000D01*
X183364190Y-99686952D01*
X183459428Y-98686952D02*
X183459428Y-97925047D01*
X187755571Y-54758714D02*
X187791285Y-54651571D01*
X187791285Y-54473000D01*
X187755571Y-54401571D01*
X187719857Y-54365857D01*
X187648428Y-54330142D01*
X187577000Y-54330142D01*
X187505571Y-54365857D01*
X187469857Y-54401571D01*
X187434142Y-54473000D01*
X187398428Y-54615857D01*
X187362714Y-54687285D01*
X187327000Y-54723000D01*
X187255571Y-54758714D01*
X187184142Y-54758714D01*
X187112714Y-54723000D01*
X187077000Y-54687285D01*
X187041285Y-54615857D01*
X187041285Y-54437285D01*
X187077000Y-54330142D01*
X187791285Y-54008714D02*
X187041285Y-54008714D01*
X187041285Y-53830142D01*
X187077000Y-53723000D01*
X187148428Y-53651571D01*
X187219857Y-53615857D01*
X187362714Y-53580142D01*
X187469857Y-53580142D01*
X187612714Y-53615857D01*
X187684142Y-53651571D01*
X187755571Y-53723000D01*
X187791285Y-53830142D01*
X187791285Y-54008714D01*
X187577000Y-53294428D02*
X187577000Y-52937285D01*
X187791285Y-53365857D02*
X187041285Y-53115857D01*
X187791285Y-52865857D01*
X183570571Y-76017333D02*
X183570571Y-76350666D01*
X184094380Y-76350666D02*
X183094380Y-76350666D01*
X183094380Y-75874476D01*
X184046761Y-75541142D02*
X184094380Y-75398285D01*
X184094380Y-75160190D01*
X184046761Y-75064952D01*
X183999142Y-75017333D01*
X183903904Y-74969714D01*
X183808666Y-74969714D01*
X183713428Y-75017333D01*
X183665809Y-75064952D01*
X183618190Y-75160190D01*
X183570571Y-75350666D01*
X183522952Y-75445904D01*
X183475333Y-75493523D01*
X183380095Y-75541142D01*
X183284857Y-75541142D01*
X183189619Y-75493523D01*
X183142000Y-75445904D01*
X183094380Y-75350666D01*
X183094380Y-75112571D01*
X183142000Y-74969714D01*
X184094380Y-73969714D02*
X183618190Y-74303047D01*
X184094380Y-74541142D02*
X183094380Y-74541142D01*
X183094380Y-74160190D01*
X183142000Y-74064952D01*
X183189619Y-74017333D01*
X183284857Y-73969714D01*
X183427714Y-73969714D01*
X183522952Y-74017333D01*
X183570571Y-74064952D01*
X183618190Y-74160190D01*
X183618190Y-74541142D01*
X182380000Y-43426095D02*
X182332380Y-43521333D01*
X182332380Y-43664190D01*
X182380000Y-43807047D01*
X182475238Y-43902285D01*
X182570476Y-43949904D01*
X182760952Y-43997523D01*
X182903809Y-43997523D01*
X183094285Y-43949904D01*
X183189523Y-43902285D01*
X183284761Y-43807047D01*
X183332380Y-43664190D01*
X183332380Y-43568952D01*
X183284761Y-43426095D01*
X183237142Y-43378476D01*
X182903809Y-43378476D01*
X182903809Y-43568952D01*
X187505571Y-59570857D02*
X187505571Y-58999428D01*
X187791285Y-59285142D02*
X187219857Y-59285142D01*
X187041285Y-58285142D02*
X187041285Y-58642285D01*
X187398428Y-58678000D01*
X187362714Y-58642285D01*
X187327000Y-58570857D01*
X187327000Y-58392285D01*
X187362714Y-58320857D01*
X187398428Y-58285142D01*
X187469857Y-58249428D01*
X187648428Y-58249428D01*
X187719857Y-58285142D01*
X187755571Y-58320857D01*
X187791285Y-58392285D01*
X187791285Y-58570857D01*
X187755571Y-58642285D01*
X187719857Y-58678000D01*
X183570571Y-71191333D02*
X183570571Y-71524666D01*
X184094380Y-71524666D02*
X183094380Y-71524666D01*
X183094380Y-71048476D01*
X184046761Y-70715142D02*
X184094380Y-70572285D01*
X184094380Y-70334190D01*
X184046761Y-70238952D01*
X183999142Y-70191333D01*
X183903904Y-70143714D01*
X183808666Y-70143714D01*
X183713428Y-70191333D01*
X183665809Y-70238952D01*
X183618190Y-70334190D01*
X183570571Y-70524666D01*
X183522952Y-70619904D01*
X183475333Y-70667523D01*
X183380095Y-70715142D01*
X183284857Y-70715142D01*
X183189619Y-70667523D01*
X183142000Y-70619904D01*
X183094380Y-70524666D01*
X183094380Y-70286571D01*
X183142000Y-70143714D01*
X184094380Y-69143714D02*
X183618190Y-69477047D01*
X184094380Y-69715142D02*
X183094380Y-69715142D01*
X183094380Y-69334190D01*
X183142000Y-69238952D01*
X183189619Y-69191333D01*
X183284857Y-69143714D01*
X183427714Y-69143714D01*
X183522952Y-69191333D01*
X183570571Y-69238952D01*
X183618190Y-69334190D01*
X183618190Y-69715142D01*
D12*
%TO.C,R1*%
X181328190Y-70187333D02*
X181090095Y-70354000D01*
X181328190Y-70473047D02*
X180828190Y-70473047D01*
X180828190Y-70282571D01*
X180852000Y-70234952D01*
X180875809Y-70211142D01*
X180923428Y-70187333D01*
X180994857Y-70187333D01*
X181042476Y-70211142D01*
X181066285Y-70234952D01*
X181090095Y-70282571D01*
X181090095Y-70473047D01*
X181328190Y-69711142D02*
X181328190Y-69996857D01*
X181328190Y-69854000D02*
X180828190Y-69854000D01*
X180899619Y-69901619D01*
X180947238Y-69949238D01*
X180971047Y-69996857D01*
D10*
%TO.C,J6*%
X185426666Y-66210380D02*
X185426666Y-66924666D01*
X185379047Y-67067523D01*
X185283809Y-67162761D01*
X185140952Y-67210380D01*
X185045714Y-67210380D01*
X186331428Y-66210380D02*
X186140952Y-66210380D01*
X186045714Y-66258000D01*
X185998095Y-66305619D01*
X185902857Y-66448476D01*
X185855238Y-66638952D01*
X185855238Y-67019904D01*
X185902857Y-67115142D01*
X185950476Y-67162761D01*
X186045714Y-67210380D01*
X186236190Y-67210380D01*
X186331428Y-67162761D01*
X186379047Y-67115142D01*
X186426666Y-67019904D01*
X186426666Y-66781809D01*
X186379047Y-66686571D01*
X186331428Y-66638952D01*
X186236190Y-66591333D01*
X186045714Y-66591333D01*
X185950476Y-66638952D01*
X185902857Y-66686571D01*
X185855238Y-66781809D01*
%TO.C,J9*%
X186030666Y-75966380D02*
X186030666Y-76680666D01*
X185983047Y-76823523D01*
X185887809Y-76918761D01*
X185744952Y-76966380D01*
X185649714Y-76966380D01*
X186554476Y-76966380D02*
X186744952Y-76966380D01*
X186840190Y-76918761D01*
X186887809Y-76871142D01*
X186983047Y-76728285D01*
X187030666Y-76537809D01*
X187030666Y-76156857D01*
X186983047Y-76061619D01*
X186935428Y-76014000D01*
X186840190Y-75966380D01*
X186649714Y-75966380D01*
X186554476Y-76014000D01*
X186506857Y-76061619D01*
X186459238Y-76156857D01*
X186459238Y-76394952D01*
X186506857Y-76490190D01*
X186554476Y-76537809D01*
X186649714Y-76585428D01*
X186840190Y-76585428D01*
X186935428Y-76537809D01*
X186983047Y-76490190D01*
X187030666Y-76394952D01*
%TO.C,RV1*%
X174310261Y-76908380D02*
X173976928Y-76432190D01*
X173738833Y-76908380D02*
X173738833Y-75908380D01*
X174119785Y-75908380D01*
X174215023Y-75956000D01*
X174262642Y-76003619D01*
X174310261Y-76098857D01*
X174310261Y-76241714D01*
X174262642Y-76336952D01*
X174215023Y-76384571D01*
X174119785Y-76432190D01*
X173738833Y-76432190D01*
X174595976Y-75908380D02*
X174929309Y-76908380D01*
X175262642Y-75908380D01*
X176119785Y-76908380D02*
X175548357Y-76908380D01*
X175834071Y-76908380D02*
X175834071Y-75908380D01*
X175738833Y-76051238D01*
X175643595Y-76146476D01*
X175548357Y-76194095D01*
D12*
%TO.C,R2*%
X181328190Y-74759333D02*
X181090095Y-74926000D01*
X181328190Y-75045047D02*
X180828190Y-75045047D01*
X180828190Y-74854571D01*
X180852000Y-74806952D01*
X180875809Y-74783142D01*
X180923428Y-74759333D01*
X180994857Y-74759333D01*
X181042476Y-74783142D01*
X181066285Y-74806952D01*
X181090095Y-74854571D01*
X181090095Y-75045047D01*
X180875809Y-74568857D02*
X180852000Y-74545047D01*
X180828190Y-74497428D01*
X180828190Y-74378380D01*
X180852000Y-74330761D01*
X180875809Y-74306952D01*
X180923428Y-74283142D01*
X180971047Y-74283142D01*
X181042476Y-74306952D01*
X181328190Y-74592666D01*
X181328190Y-74283142D01*
D10*
%TO.C,RV2*%
X159008761Y-76908380D02*
X158675428Y-76432190D01*
X158437333Y-76908380D02*
X158437333Y-75908380D01*
X158818285Y-75908380D01*
X158913523Y-75956000D01*
X158961142Y-76003619D01*
X159008761Y-76098857D01*
X159008761Y-76241714D01*
X158961142Y-76336952D01*
X158913523Y-76384571D01*
X158818285Y-76432190D01*
X158437333Y-76432190D01*
X159294476Y-75908380D02*
X159627809Y-76908380D01*
X159961142Y-75908380D01*
X160246857Y-76003619D02*
X160294476Y-75956000D01*
X160389714Y-75908380D01*
X160627809Y-75908380D01*
X160723047Y-75956000D01*
X160770666Y-76003619D01*
X160818285Y-76098857D01*
X160818285Y-76194095D01*
X160770666Y-76336952D01*
X160199238Y-76908380D01*
X160818285Y-76908380D01*
%TO.C,J18*%
X184980476Y-76370380D02*
X184980476Y-77084666D01*
X184932857Y-77227523D01*
X184837619Y-77322761D01*
X184694761Y-77370380D01*
X184599523Y-77370380D01*
X185980476Y-77370380D02*
X185409047Y-77370380D01*
X185694761Y-77370380D02*
X185694761Y-76370380D01*
X185599523Y-76513238D01*
X185504285Y-76608476D01*
X185409047Y-76656095D01*
X186551904Y-76798952D02*
X186456666Y-76751333D01*
X186409047Y-76703714D01*
X186361428Y-76608476D01*
X186361428Y-76560857D01*
X186409047Y-76465619D01*
X186456666Y-76418000D01*
X186551904Y-76370380D01*
X186742380Y-76370380D01*
X186837619Y-76418000D01*
X186885238Y-76465619D01*
X186932857Y-76560857D01*
X186932857Y-76608476D01*
X186885238Y-76703714D01*
X186837619Y-76751333D01*
X186742380Y-76798952D01*
X186551904Y-76798952D01*
X186456666Y-76846571D01*
X186409047Y-76894190D01*
X186361428Y-76989428D01*
X186361428Y-77179904D01*
X186409047Y-77275142D01*
X186456666Y-77322761D01*
X186551904Y-77370380D01*
X186742380Y-77370380D01*
X186837619Y-77322761D01*
X186885238Y-77275142D01*
X186932857Y-77179904D01*
X186932857Y-76989428D01*
X186885238Y-76894190D01*
X186837619Y-76846571D01*
X186742380Y-76798952D01*
D13*
%TO.C,R1*%
X181920000Y-70700000D02*
X181920000Y-70080000D01*
X182840000Y-71620000D02*
G75*
G03*
X182840000Y-71620000I-920000J0D01*
G01*
%TO.C,J1*%
X187608000Y-91411000D02*
X187608000Y-94011000D01*
X184948000Y-91411000D02*
X184948000Y-94011000D01*
X184948000Y-90141000D02*
X184948000Y-88811000D01*
X184948000Y-88811000D02*
X186278000Y-88811000D01*
X184948000Y-91411000D02*
X187608000Y-91411000D01*
X184948000Y-94011000D02*
X187608000Y-94011000D01*
%TO.C,J13*%
X160880000Y-43705000D02*
X160880000Y-41105000D01*
X158220000Y-43705000D02*
X158220000Y-41105000D01*
X160880000Y-44975000D02*
X160880000Y-46305000D01*
X160880000Y-41105000D02*
X158220000Y-41105000D01*
X160880000Y-43705000D02*
X158220000Y-43705000D01*
X160880000Y-46305000D02*
X159550000Y-46305000D01*
%TO.C,J12*%
X184344000Y-52384000D02*
X187004000Y-52384000D01*
X184344000Y-47184000D02*
X185674000Y-47184000D01*
X187004000Y-49784000D02*
X187004000Y-52384000D01*
X184344000Y-48514000D02*
X184344000Y-47184000D01*
X184344000Y-49784000D02*
X187004000Y-49784000D01*
X184344000Y-49784000D02*
X184344000Y-52384000D01*
%TO.C,J14*%
X187004000Y-60198000D02*
X184344000Y-60198000D01*
X184344000Y-60198000D02*
X184344000Y-52518000D01*
X187004000Y-61468000D02*
X187004000Y-62798000D01*
X187004000Y-60198000D02*
X187004000Y-52518000D01*
X187004000Y-52518000D02*
X184344000Y-52518000D01*
X187004000Y-62798000D02*
X185674000Y-62798000D01*
%TO.C,J15*%
X180720000Y-60140000D02*
X180720000Y-52460000D01*
X183380000Y-62740000D02*
X182050000Y-62740000D01*
X183380000Y-61410000D02*
X183380000Y-62740000D01*
X183380000Y-52460000D02*
X180720000Y-52460000D01*
X183380000Y-60140000D02*
X183380000Y-52460000D01*
X183380000Y-60140000D02*
X180720000Y-60140000D01*
%TO.C,J10*%
X184290000Y-40900000D02*
X184290000Y-39570000D01*
X184290000Y-42170000D02*
X184290000Y-47310000D01*
X184290000Y-47310000D02*
X186950000Y-47310000D01*
X184290000Y-42170000D02*
X186950000Y-42170000D01*
X186950000Y-42170000D02*
X186950000Y-47310000D01*
X184290000Y-39570000D02*
X185620000Y-39570000D01*
%TO.C,J19*%
X160860000Y-59815000D02*
X160860000Y-61145000D01*
X160860000Y-61145000D02*
X159530000Y-61145000D01*
X158200000Y-58545000D02*
X158200000Y-55945000D01*
X160860000Y-55945000D02*
X158200000Y-55945000D01*
X160860000Y-58545000D02*
X158200000Y-58545000D01*
X160860000Y-58545000D02*
X160860000Y-55945000D01*
%TO.C,J6*%
X184430000Y-70358000D02*
X184430000Y-72958000D01*
X184430000Y-70358000D02*
X187090000Y-70358000D01*
X184430000Y-72958000D02*
X187090000Y-72958000D01*
X184430000Y-69088000D02*
X184430000Y-67758000D01*
X184430000Y-67758000D02*
X185760000Y-67758000D01*
X187090000Y-70358000D02*
X187090000Y-72958000D01*
%TO.C,J9*%
X187090000Y-75438000D02*
X184430000Y-75438000D01*
X187090000Y-72838000D02*
X184430000Y-72838000D01*
X187090000Y-76708000D02*
X187090000Y-78038000D01*
X187090000Y-78038000D02*
X185760000Y-78038000D01*
X187090000Y-75438000D02*
X187090000Y-72838000D01*
X184430000Y-75438000D02*
X184430000Y-72838000D01*
%TO.C,J11*%
X158210000Y-49890000D02*
X158210000Y-55030000D01*
X158210000Y-55030000D02*
X160870000Y-55030000D01*
X160870000Y-49890000D02*
X160870000Y-55030000D01*
X158210000Y-48620000D02*
X158210000Y-47290000D01*
X158210000Y-49890000D02*
X160870000Y-49890000D01*
X158210000Y-47290000D02*
X159540000Y-47290000D01*
%TO.C,RV1*%
X176638000Y-77136000D02*
X178058000Y-77136000D01*
X174338000Y-84356000D02*
X172848000Y-84356000D01*
X171538000Y-83046000D02*
X171538000Y-79506000D01*
X178058000Y-77136000D02*
X178058000Y-77336000D01*
X171538000Y-77336000D02*
X171538000Y-77586000D01*
X178158000Y-79066000D02*
X178158000Y-83046000D01*
X173058000Y-77336000D02*
X173058000Y-77136000D01*
X171638000Y-77136000D02*
X171638000Y-77336000D01*
X176638000Y-77336000D02*
X176638000Y-77136000D01*
X176848000Y-84356000D02*
X175358000Y-84356000D01*
X171638000Y-77136000D02*
X173058000Y-77136000D01*
X171638000Y-77336000D02*
X171538000Y-77336000D01*
X178058000Y-77336000D02*
X178158000Y-77336000D01*
X178158000Y-77336000D02*
X178158000Y-78026000D01*
X173058000Y-77336000D02*
X176638000Y-77336000D01*
X171538000Y-83046000D02*
G75*
G03*
X172848000Y-84356000I1310000J0D01*
G01*
X176848000Y-84356000D02*
G75*
G03*
X178158000Y-83046000I0J1310000D01*
G01*
%TO.C,J20*%
X158182000Y-66460000D02*
X158182000Y-65130000D01*
X158182000Y-65130000D02*
X159512000Y-65130000D01*
X160842000Y-67730000D02*
X160842000Y-75410000D01*
X158182000Y-67730000D02*
X160842000Y-67730000D01*
X158182000Y-75410000D02*
X160842000Y-75410000D01*
X158182000Y-67730000D02*
X158182000Y-75410000D01*
%TO.C,R2*%
X181930000Y-75230000D02*
X181930000Y-74610000D01*
X182850000Y-76150000D02*
G75*
G03*
X182850000Y-76150000I-920000J0D01*
G01*
%TO.C,J2*%
X184948000Y-97552000D02*
X184948000Y-100152000D01*
X184948000Y-97552000D02*
X187608000Y-97552000D01*
X184948000Y-94952000D02*
X186278000Y-94952000D01*
X184948000Y-100152000D02*
X187608000Y-100152000D01*
X184948000Y-96282000D02*
X184948000Y-94952000D01*
X187608000Y-97552000D02*
X187608000Y-100152000D01*
%TO.C,J4*%
X179060000Y-75390000D02*
X177730000Y-75390000D01*
X180390000Y-72790000D02*
X177730000Y-72790000D01*
X180390000Y-72790000D02*
X180390000Y-39710000D01*
X180390000Y-39710000D02*
X177730000Y-39710000D01*
X177730000Y-75390000D02*
X177730000Y-74060000D01*
X177730000Y-72790000D02*
X177730000Y-39710000D01*
%TO.C,J17*%
X184390000Y-65278000D02*
X184390000Y-67878000D01*
X187050000Y-65278000D02*
X187050000Y-67878000D01*
X184390000Y-64008000D02*
X184390000Y-62678000D01*
X184390000Y-62678000D02*
X185720000Y-62678000D01*
X184390000Y-67878000D02*
X187050000Y-67878000D01*
X184390000Y-65278000D02*
X187050000Y-65278000D01*
%TO.C,RV2*%
X157846500Y-77336000D02*
X161426500Y-77336000D01*
X156326500Y-83046000D02*
X156326500Y-79506000D01*
X156326500Y-77336000D02*
X156326500Y-77586000D01*
X159126500Y-84356000D02*
X157636500Y-84356000D01*
X156426500Y-77336000D02*
X156326500Y-77336000D01*
X162846500Y-77136000D02*
X162846500Y-77336000D01*
X161636500Y-84356000D02*
X160146500Y-84356000D01*
X157846500Y-77336000D02*
X157846500Y-77136000D01*
X162946500Y-79066000D02*
X162946500Y-83046000D01*
X162846500Y-77336000D02*
X162946500Y-77336000D01*
X161426500Y-77336000D02*
X161426500Y-77136000D01*
X161426500Y-77136000D02*
X162846500Y-77136000D01*
X156426500Y-77136000D02*
X156426500Y-77336000D01*
X156426500Y-77136000D02*
X157846500Y-77136000D01*
X162946500Y-77336000D02*
X162946500Y-78026000D01*
X156326500Y-83046000D02*
G75*
G03*
X157636500Y-84356000I1310000J0D01*
G01*
X161636500Y-84356000D02*
G75*
G03*
X162946500Y-83046000I0J1310000D01*
G01*
%TO.C,J3*%
X162530000Y-75360000D02*
X165190000Y-75360000D01*
X162530000Y-42280000D02*
X165190000Y-42280000D01*
X163860000Y-39680000D02*
X165190000Y-39680000D01*
X165190000Y-39680000D02*
X165190000Y-41010000D01*
X165190000Y-42280000D02*
X165190000Y-75360000D01*
X162530000Y-42280000D02*
X162530000Y-75360000D01*
%TO.C,J18*%
X184460000Y-80578000D02*
X187120000Y-80578000D01*
X184460000Y-80518000D02*
X184460000Y-80578000D01*
X184460000Y-77918000D02*
X185790000Y-77918000D01*
X184460000Y-80518000D02*
X187120000Y-80518000D01*
X184460000Y-79248000D02*
X184460000Y-77918000D01*
X187120000Y-80518000D02*
X187120000Y-80578000D01*
%TD*%
M02*
